ISO-10303-21;
HEADER;
/* Generated by software containing ST-Developer
 * from STEP Tools, Inc. (www.steptools.com) 
 */

FILE_DESCRIPTION(
/* description */ (''),
/* implementation_level */ '2;1');

FILE_NAME(
/* name */ 'Dice Hub Base.step',
/* time_stamp */ '2026-09-13T08:12:18-05:00',
/* author */ (''),
/* organization */ (''),
/* preprocessor_version */ 'ST-DEVELOPER v20.1',
/* originating_system */ 'Autodesk Translation Framework v15.8.0.0',
/* authorisation */ '');

FILE_SCHEMA (('AUTOMOTIVE_DESIGN { 1 0 10303 214 3 1 1 }'));
ENDSEC;

DATA;
#10=MECHANICAL_DESIGN_GEOMETRIC_PRESENTATION_REPRESENTATION('',(#13,#14,
#15),#893);
#11=SHAPE_REPRESENTATION_RELATIONSHIP('SRR','None',#900,#12);
#12=ADVANCED_BREP_SHAPE_REPRESENTATION('',(#16,#17,#18),#892);
#13=STYLED_ITEM('',(#909),#16);
#14=STYLED_ITEM('',(#909),#17);
#15=STYLED_ITEM('',(#909),#18);
#16=MANIFOLD_SOLID_BREP('Body4',#559);
#17=MANIFOLD_SOLID_BREP('Body5',#560);
#18=MANIFOLD_SOLID_BREP('Body6',#561);
#19=FACE_BOUND('',#66,.T.);
#20=FACE_BOUND('',#67,.T.);
#21=FACE_BOUND('',#73,.T.);
#22=FACE_BOUND('',#74,.T.);
#23=FACE_BOUND('',#76,.T.);
#24=FACE_BOUND('',#78,.T.);
#25=FACE_OUTER_BOUND('',#55,.T.);
#26=FACE_OUTER_BOUND('',#56,.T.);
#27=FACE_OUTER_BOUND('',#57,.T.);
#28=FACE_OUTER_BOUND('',#58,.T.);
#29=FACE_OUTER_BOUND('',#59,.T.);
#30=FACE_OUTER_BOUND('',#60,.T.);
#31=FACE_OUTER_BOUND('',#61,.T.);
#32=FACE_OUTER_BOUND('',#62,.T.);
#33=FACE_OUTER_BOUND('',#63,.T.);
#34=FACE_OUTER_BOUND('',#64,.T.);
#35=FACE_OUTER_BOUND('',#65,.T.);
#36=FACE_OUTER_BOUND('',#68,.T.);
#37=FACE_OUTER_BOUND('',#69,.T.);
#38=FACE_OUTER_BOUND('',#70,.T.);
#39=FACE_OUTER_BOUND('',#71,.T.);
#40=FACE_OUTER_BOUND('',#72,.T.);
#41=FACE_OUTER_BOUND('',#75,.T.);
#42=FACE_OUTER_BOUND('',#77,.T.);
#43=FACE_OUTER_BOUND('',#79,.T.);
#44=FACE_OUTER_BOUND('',#80,.T.);
#45=FACE_OUTER_BOUND('',#81,.T.);
#46=FACE_OUTER_BOUND('',#82,.T.);
#47=FACE_OUTER_BOUND('',#83,.T.);
#48=FACE_OUTER_BOUND('',#84,.T.);
#49=FACE_OUTER_BOUND('',#85,.T.);
#50=FACE_OUTER_BOUND('',#86,.T.);
#51=FACE_OUTER_BOUND('',#87,.T.);
#52=FACE_OUTER_BOUND('',#88,.T.);
#53=FACE_OUTER_BOUND('',#89,.T.);
#54=FACE_OUTER_BOUND('',#90,.T.);
#55=EDGE_LOOP('',(#355,#356,#357,#358));
#56=EDGE_LOOP('',(#359,#360,#361,#362));
#57=EDGE_LOOP('',(#363,#364,#365,#366));
#58=EDGE_LOOP('',(#367,#368,#369,#370));
#59=EDGE_LOOP('',(#371,#372,#373,#374));
#60=EDGE_LOOP('',(#375,#376,#377,#378));
#61=EDGE_LOOP('',(#379,#380,#381,#382));
#62=EDGE_LOOP('',(#383,#384,#385,#386));
#63=EDGE_LOOP('',(#387,#388,#389,#390));
#64=EDGE_LOOP('',(#391,#392,#393,#394));
#65=EDGE_LOOP('',(#395,#396,#397,#398));
#66=EDGE_LOOP('',(#399,#400,#401,#402));
#67=EDGE_LOOP('',(#403,#404,#405,#406));
#68=EDGE_LOOP('',(#407,#408,#409,#410));
#69=EDGE_LOOP('',(#411,#412,#413,#414));
#70=EDGE_LOOP('',(#415,#416,#417,#418));
#71=EDGE_LOOP('',(#419,#420,#421,#422));
#72=EDGE_LOOP('',(#423,#424,#425,#426));
#73=EDGE_LOOP('',(#427,#428,#429,#430));
#74=EDGE_LOOP('',(#431,#432,#433,#434));
#75=EDGE_LOOP('',(#435,#436,#437,#438));
#76=EDGE_LOOP('',(#439,#440,#441,#442));
#77=EDGE_LOOP('',(#443,#444,#445,#446));
#78=EDGE_LOOP('',(#447,#448,#449,#450));
#79=EDGE_LOOP('',(#451,#452,#453,#454));
#80=EDGE_LOOP('',(#455,#456,#457,#458));
#81=EDGE_LOOP('',(#459,#460,#461,#462));
#82=EDGE_LOOP('',(#463,#464,#465,#466));
#83=EDGE_LOOP('',(#467,#468,#469,#470));
#84=EDGE_LOOP('',(#471,#472,#473,#474));
#85=EDGE_LOOP('',(#475,#476,#477,#478));
#86=EDGE_LOOP('',(#479,#480,#481,#482));
#87=EDGE_LOOP('',(#483,#484,#485,#486));
#88=EDGE_LOOP('',(#487,#488,#489,#490));
#89=EDGE_LOOP('',(#491,#492,#493,#494));
#90=EDGE_LOOP('',(#495,#496,#497,#498));
#91=LINE('',#743,#163);
#92=LINE('',#745,#164);
#93=LINE('',#747,#165);
#94=LINE('',#748,#166);
#95=LINE('',#751,#167);
#96=LINE('',#753,#168);
#97=LINE('',#754,#169);
#98=LINE('',#757,#170);
#99=LINE('',#759,#171);
#100=LINE('',#760,#172);
#101=LINE('',#762,#173);
#102=LINE('',#763,#174);
#103=LINE('',#767,#175);
#104=LINE('',#769,#176);
#105=LINE('',#771,#177);
#106=LINE('',#772,#178);
#107=LINE('',#775,#179);
#108=LINE('',#777,#180);
#109=LINE('',#778,#181);
#110=LINE('',#781,#182);
#111=LINE('',#783,#183);
#112=LINE('',#784,#184);
#113=LINE('',#786,#185);
#114=LINE('',#787,#186);
#115=LINE('',#791,#187);
#116=LINE('',#793,#188);
#117=LINE('',#795,#189);
#118=LINE('',#796,#190);
#119=LINE('',#799,#191);
#120=LINE('',#801,#192);
#121=LINE('',#802,#193);
#122=LINE('',#805,#194);
#123=LINE('',#807,#195);
#124=LINE('',#808,#196);
#125=LINE('',#810,#197);
#126=LINE('',#811,#198);
#127=LINE('',#815,#199);
#128=LINE('',#817,#200);
#129=LINE('',#819,#201);
#130=LINE('',#820,#202);
#131=LINE('',#823,#203);
#132=LINE('',#825,#204);
#133=LINE('',#826,#205);
#134=LINE('',#829,#206);
#135=LINE('',#831,#207);
#136=LINE('',#832,#208);
#137=LINE('',#834,#209);
#138=LINE('',#835,#210);
#139=LINE('',#841,#211);
#140=LINE('',#843,#212);
#141=LINE('',#845,#213);
#142=LINE('',#846,#214);
#143=LINE('',#849,#215);
#144=LINE('',#851,#216);
#145=LINE('',#852,#217);
#146=LINE('',#855,#218);
#147=LINE('',#857,#219);
#148=LINE('',#858,#220);
#149=LINE('',#860,#221);
#150=LINE('',#861,#222);
#151=LINE('',#867,#223);
#152=LINE('',#869,#224);
#153=LINE('',#871,#225);
#154=LINE('',#872,#226);
#155=LINE('',#875,#227);
#156=LINE('',#877,#228);
#157=LINE('',#878,#229);
#158=LINE('',#881,#230);
#159=LINE('',#883,#231);
#160=LINE('',#884,#232);
#161=LINE('',#886,#233);
#162=LINE('',#887,#234);
#163=VECTOR('',#609,10.);
#164=VECTOR('',#610,10.);
#165=VECTOR('',#611,10.);
#166=VECTOR('',#612,10.);
#167=VECTOR('',#615,10.);
#168=VECTOR('',#616,10.);
#169=VECTOR('',#617,10.);
#170=VECTOR('',#620,10.);
#171=VECTOR('',#621,10.);
#172=VECTOR('',#622,10.);
#173=VECTOR('',#625,10.);
#174=VECTOR('',#626,10.);
#175=VECTOR('',#629,10.);
#176=VECTOR('',#630,10.);
#177=VECTOR('',#631,10.);
#178=VECTOR('',#632,10.);
#179=VECTOR('',#635,10.);
#180=VECTOR('',#636,10.);
#181=VECTOR('',#637,10.);
#182=VECTOR('',#640,10.);
#183=VECTOR('',#641,10.);
#184=VECTOR('',#642,10.);
#185=VECTOR('',#645,10.);
#186=VECTOR('',#646,10.);
#187=VECTOR('',#649,10.);
#188=VECTOR('',#650,10.);
#189=VECTOR('',#651,10.);
#190=VECTOR('',#652,10.);
#191=VECTOR('',#655,10.);
#192=VECTOR('',#656,10.);
#193=VECTOR('',#657,10.);
#194=VECTOR('',#660,10.);
#195=VECTOR('',#661,10.);
#196=VECTOR('',#662,10.);
#197=VECTOR('',#665,10.);
#198=VECTOR('',#666,10.);
#199=VECTOR('',#669,10.);
#200=VECTOR('',#670,10.);
#201=VECTOR('',#671,10.);
#202=VECTOR('',#672,10.);
#203=VECTOR('',#675,10.);
#204=VECTOR('',#676,10.);
#205=VECTOR('',#677,10.);
#206=VECTOR('',#680,10.);
#207=VECTOR('',#681,10.);
#208=VECTOR('',#682,10.);
#209=VECTOR('',#685,10.);
#210=VECTOR('',#686,10.);
#211=VECTOR('',#693,10.);
#212=VECTOR('',#694,10.);
#213=VECTOR('',#695,10.);
#214=VECTOR('',#696,10.);
#215=VECTOR('',#699,10.);
#216=VECTOR('',#700,10.);
#217=VECTOR('',#701,10.);
#218=VECTOR('',#704,10.);
#219=VECTOR('',#705,10.);
#220=VECTOR('',#706,10.);
#221=VECTOR('',#709,10.);
#222=VECTOR('',#710,10.);
#223=VECTOR('',#717,10.);
#224=VECTOR('',#718,10.);
#225=VECTOR('',#719,10.);
#226=VECTOR('',#720,10.);
#227=VECTOR('',#723,10.);
#228=VECTOR('',#724,10.);
#229=VECTOR('',#725,10.);
#230=VECTOR('',#728,10.);
#231=VECTOR('',#729,10.);
#232=VECTOR('',#730,10.);
#233=VECTOR('',#733,10.);
#234=VECTOR('',#734,10.);
#235=VERTEX_POINT('',#741);
#236=VERTEX_POINT('',#742);
#237=VERTEX_POINT('',#744);
#238=VERTEX_POINT('',#746);
#239=VERTEX_POINT('',#750);
#240=VERTEX_POINT('',#752);
#241=VERTEX_POINT('',#756);
#242=VERTEX_POINT('',#758);
#243=VERTEX_POINT('',#765);
#244=VERTEX_POINT('',#766);
#245=VERTEX_POINT('',#768);
#246=VERTEX_POINT('',#770);
#247=VERTEX_POINT('',#774);
#248=VERTEX_POINT('',#776);
#249=VERTEX_POINT('',#780);
#250=VERTEX_POINT('',#782);
#251=VERTEX_POINT('',#789);
#252=VERTEX_POINT('',#790);
#253=VERTEX_POINT('',#792);
#254=VERTEX_POINT('',#794);
#255=VERTEX_POINT('',#798);
#256=VERTEX_POINT('',#800);
#257=VERTEX_POINT('',#804);
#258=VERTEX_POINT('',#806);
#259=VERTEX_POINT('',#813);
#260=VERTEX_POINT('',#814);
#261=VERTEX_POINT('',#816);
#262=VERTEX_POINT('',#818);
#263=VERTEX_POINT('',#822);
#264=VERTEX_POINT('',#824);
#265=VERTEX_POINT('',#828);
#266=VERTEX_POINT('',#830);
#267=VERTEX_POINT('',#839);
#268=VERTEX_POINT('',#840);
#269=VERTEX_POINT('',#842);
#270=VERTEX_POINT('',#844);
#271=VERTEX_POINT('',#848);
#272=VERTEX_POINT('',#850);
#273=VERTEX_POINT('',#854);
#274=VERTEX_POINT('',#856);
#275=VERTEX_POINT('',#865);
#276=VERTEX_POINT('',#866);
#277=VERTEX_POINT('',#868);
#278=VERTEX_POINT('',#870);
#279=VERTEX_POINT('',#874);
#280=VERTEX_POINT('',#876);
#281=VERTEX_POINT('',#880);
#282=VERTEX_POINT('',#882);
#283=EDGE_CURVE('',#235,#236,#91,.T.);
#284=EDGE_CURVE('',#235,#237,#92,.T.);
#285=EDGE_CURVE('',#238,#237,#93,.T.);
#286=EDGE_CURVE('',#236,#238,#94,.T.);
#287=EDGE_CURVE('',#239,#235,#95,.T.);
#288=EDGE_CURVE('',#239,#240,#96,.T.);
#289=EDGE_CURVE('',#237,#240,#97,.T.);
#290=EDGE_CURVE('',#241,#239,#98,.T.);
#291=EDGE_CURVE('',#241,#242,#99,.T.);
#292=EDGE_CURVE('',#240,#242,#100,.T.);
#293=EDGE_CURVE('',#236,#241,#101,.T.);
#294=EDGE_CURVE('',#242,#238,#102,.T.);
#295=EDGE_CURVE('',#243,#244,#103,.T.);
#296=EDGE_CURVE('',#243,#245,#104,.T.);
#297=EDGE_CURVE('',#246,#245,#105,.T.);
#298=EDGE_CURVE('',#244,#246,#106,.T.);
#299=EDGE_CURVE('',#247,#243,#107,.T.);
#300=EDGE_CURVE('',#247,#248,#108,.T.);
#301=EDGE_CURVE('',#245,#248,#109,.T.);
#302=EDGE_CURVE('',#249,#247,#110,.T.);
#303=EDGE_CURVE('',#249,#250,#111,.T.);
#304=EDGE_CURVE('',#248,#250,#112,.T.);
#305=EDGE_CURVE('',#244,#249,#113,.T.);
#306=EDGE_CURVE('',#250,#246,#114,.T.);
#307=EDGE_CURVE('',#251,#252,#115,.T.);
#308=EDGE_CURVE('',#252,#253,#116,.T.);
#309=EDGE_CURVE('',#254,#253,#117,.T.);
#310=EDGE_CURVE('',#251,#254,#118,.T.);
#311=EDGE_CURVE('',#255,#251,#119,.T.);
#312=EDGE_CURVE('',#256,#254,#120,.T.);
#313=EDGE_CURVE('',#255,#256,#121,.T.);
#314=EDGE_CURVE('',#257,#255,#122,.T.);
#315=EDGE_CURVE('',#258,#256,#123,.T.);
#316=EDGE_CURVE('',#257,#258,#124,.T.);
#317=EDGE_CURVE('',#252,#257,#125,.T.);
#318=EDGE_CURVE('',#253,#258,#126,.T.);
#319=EDGE_CURVE('',#259,#260,#127,.T.);
#320=EDGE_CURVE('',#259,#261,#128,.T.);
#321=EDGE_CURVE('',#262,#261,#129,.T.);
#322=EDGE_CURVE('',#260,#262,#130,.T.);
#323=EDGE_CURVE('',#260,#263,#131,.T.);
#324=EDGE_CURVE('',#264,#262,#132,.T.);
#325=EDGE_CURVE('',#263,#264,#133,.T.);
#326=EDGE_CURVE('',#263,#265,#134,.T.);
#327=EDGE_CURVE('',#266,#264,#135,.T.);
#328=EDGE_CURVE('',#265,#266,#136,.T.);
#329=EDGE_CURVE('',#265,#259,#137,.T.);
#330=EDGE_CURVE('',#261,#266,#138,.T.);
#331=EDGE_CURVE('',#267,#268,#139,.T.);
#332=EDGE_CURVE('',#267,#269,#140,.T.);
#333=EDGE_CURVE('',#270,#269,#141,.T.);
#334=EDGE_CURVE('',#268,#270,#142,.T.);
#335=EDGE_CURVE('',#268,#271,#143,.T.);
#336=EDGE_CURVE('',#272,#270,#144,.T.);
#337=EDGE_CURVE('',#271,#272,#145,.T.);
#338=EDGE_CURVE('',#271,#273,#146,.T.);
#339=EDGE_CURVE('',#274,#272,#147,.T.);
#340=EDGE_CURVE('',#273,#274,#148,.T.);
#341=EDGE_CURVE('',#273,#267,#149,.T.);
#342=EDGE_CURVE('',#269,#274,#150,.T.);
#343=EDGE_CURVE('',#275,#276,#151,.T.);
#344=EDGE_CURVE('',#275,#277,#152,.T.);
#345=EDGE_CURVE('',#278,#277,#153,.T.);
#346=EDGE_CURVE('',#276,#278,#154,.T.);
#347=EDGE_CURVE('',#276,#279,#155,.T.);
#348=EDGE_CURVE('',#280,#278,#156,.T.);
#349=EDGE_CURVE('',#279,#280,#157,.T.);
#350=EDGE_CURVE('',#281,#279,#158,.T.);
#351=EDGE_CURVE('',#282,#280,#159,.T.);
#352=EDGE_CURVE('',#281,#282,#160,.T.);
#353=EDGE_CURVE('',#281,#275,#161,.T.);
#354=EDGE_CURVE('',#277,#282,#162,.T.);
#355=ORIENTED_EDGE('',*,*,#283,.F.);
#356=ORIENTED_EDGE('',*,*,#284,.T.);
#357=ORIENTED_EDGE('',*,*,#285,.F.);
#358=ORIENTED_EDGE('',*,*,#286,.F.);
#359=ORIENTED_EDGE('',*,*,#287,.F.);
#360=ORIENTED_EDGE('',*,*,#288,.T.);
#361=ORIENTED_EDGE('',*,*,#289,.F.);
#362=ORIENTED_EDGE('',*,*,#284,.F.);
#363=ORIENTED_EDGE('',*,*,#290,.F.);
#364=ORIENTED_EDGE('',*,*,#291,.T.);
#365=ORIENTED_EDGE('',*,*,#292,.F.);
#366=ORIENTED_EDGE('',*,*,#288,.F.);
#367=ORIENTED_EDGE('',*,*,#293,.F.);
#368=ORIENTED_EDGE('',*,*,#286,.T.);
#369=ORIENTED_EDGE('',*,*,#294,.F.);
#370=ORIENTED_EDGE('',*,*,#291,.F.);
#371=ORIENTED_EDGE('',*,*,#295,.F.);
#372=ORIENTED_EDGE('',*,*,#296,.T.);
#373=ORIENTED_EDGE('',*,*,#297,.F.);
#374=ORIENTED_EDGE('',*,*,#298,.F.);
#375=ORIENTED_EDGE('',*,*,#299,.F.);
#376=ORIENTED_EDGE('',*,*,#300,.T.);
#377=ORIENTED_EDGE('',*,*,#301,.F.);
#378=ORIENTED_EDGE('',*,*,#296,.F.);
#379=ORIENTED_EDGE('',*,*,#302,.F.);
#380=ORIENTED_EDGE('',*,*,#303,.T.);
#381=ORIENTED_EDGE('',*,*,#304,.F.);
#382=ORIENTED_EDGE('',*,*,#300,.F.);
#383=ORIENTED_EDGE('',*,*,#305,.F.);
#384=ORIENTED_EDGE('',*,*,#298,.T.);
#385=ORIENTED_EDGE('',*,*,#306,.F.);
#386=ORIENTED_EDGE('',*,*,#303,.F.);
#387=ORIENTED_EDGE('',*,*,#307,.T.);
#388=ORIENTED_EDGE('',*,*,#308,.T.);
#389=ORIENTED_EDGE('',*,*,#309,.F.);
#390=ORIENTED_EDGE('',*,*,#310,.F.);
#391=ORIENTED_EDGE('',*,*,#311,.T.);
#392=ORIENTED_EDGE('',*,*,#310,.T.);
#393=ORIENTED_EDGE('',*,*,#312,.F.);
#394=ORIENTED_EDGE('',*,*,#313,.F.);
#395=ORIENTED_EDGE('',*,*,#314,.T.);
#396=ORIENTED_EDGE('',*,*,#313,.T.);
#397=ORIENTED_EDGE('',*,*,#315,.F.);
#398=ORIENTED_EDGE('',*,*,#316,.F.);
#399=ORIENTED_EDGE('',*,*,#285,.T.);
#400=ORIENTED_EDGE('',*,*,#289,.T.);
#401=ORIENTED_EDGE('',*,*,#292,.T.);
#402=ORIENTED_EDGE('',*,*,#294,.T.);
#403=ORIENTED_EDGE('',*,*,#297,.T.);
#404=ORIENTED_EDGE('',*,*,#301,.T.);
#405=ORIENTED_EDGE('',*,*,#304,.T.);
#406=ORIENTED_EDGE('',*,*,#306,.T.);
#407=ORIENTED_EDGE('',*,*,#317,.T.);
#408=ORIENTED_EDGE('',*,*,#316,.T.);
#409=ORIENTED_EDGE('',*,*,#318,.F.);
#410=ORIENTED_EDGE('',*,*,#308,.F.);
#411=ORIENTED_EDGE('',*,*,#319,.F.);
#412=ORIENTED_EDGE('',*,*,#320,.T.);
#413=ORIENTED_EDGE('',*,*,#321,.F.);
#414=ORIENTED_EDGE('',*,*,#322,.F.);
#415=ORIENTED_EDGE('',*,*,#323,.F.);
#416=ORIENTED_EDGE('',*,*,#322,.T.);
#417=ORIENTED_EDGE('',*,*,#324,.F.);
#418=ORIENTED_EDGE('',*,*,#325,.F.);
#419=ORIENTED_EDGE('',*,*,#326,.F.);
#420=ORIENTED_EDGE('',*,*,#325,.T.);
#421=ORIENTED_EDGE('',*,*,#327,.F.);
#422=ORIENTED_EDGE('',*,*,#328,.F.);
#423=ORIENTED_EDGE('',*,*,#329,.F.);
#424=ORIENTED_EDGE('',*,*,#328,.T.);
#425=ORIENTED_EDGE('',*,*,#330,.F.);
#426=ORIENTED_EDGE('',*,*,#320,.F.);
#427=ORIENTED_EDGE('',*,*,#283,.T.);
#428=ORIENTED_EDGE('',*,*,#293,.T.);
#429=ORIENTED_EDGE('',*,*,#290,.T.);
#430=ORIENTED_EDGE('',*,*,#287,.T.);
#431=ORIENTED_EDGE('',*,*,#295,.T.);
#432=ORIENTED_EDGE('',*,*,#305,.T.);
#433=ORIENTED_EDGE('',*,*,#302,.T.);
#434=ORIENTED_EDGE('',*,*,#299,.T.);
#435=ORIENTED_EDGE('',*,*,#330,.T.);
#436=ORIENTED_EDGE('',*,*,#327,.T.);
#437=ORIENTED_EDGE('',*,*,#324,.T.);
#438=ORIENTED_EDGE('',*,*,#321,.T.);
#439=ORIENTED_EDGE('',*,*,#318,.T.);
#440=ORIENTED_EDGE('',*,*,#315,.T.);
#441=ORIENTED_EDGE('',*,*,#312,.T.);
#442=ORIENTED_EDGE('',*,*,#309,.T.);
#443=ORIENTED_EDGE('',*,*,#329,.T.);
#444=ORIENTED_EDGE('',*,*,#319,.T.);
#445=ORIENTED_EDGE('',*,*,#323,.T.);
#446=ORIENTED_EDGE('',*,*,#326,.T.);
#447=ORIENTED_EDGE('',*,*,#317,.F.);
#448=ORIENTED_EDGE('',*,*,#307,.F.);
#449=ORIENTED_EDGE('',*,*,#311,.F.);
#450=ORIENTED_EDGE('',*,*,#314,.F.);
#451=ORIENTED_EDGE('',*,*,#331,.F.);
#452=ORIENTED_EDGE('',*,*,#332,.T.);
#453=ORIENTED_EDGE('',*,*,#333,.F.);
#454=ORIENTED_EDGE('',*,*,#334,.F.);
#455=ORIENTED_EDGE('',*,*,#335,.F.);
#456=ORIENTED_EDGE('',*,*,#334,.T.);
#457=ORIENTED_EDGE('',*,*,#336,.F.);
#458=ORIENTED_EDGE('',*,*,#337,.F.);
#459=ORIENTED_EDGE('',*,*,#338,.F.);
#460=ORIENTED_EDGE('',*,*,#337,.T.);
#461=ORIENTED_EDGE('',*,*,#339,.F.);
#462=ORIENTED_EDGE('',*,*,#340,.F.);
#463=ORIENTED_EDGE('',*,*,#341,.F.);
#464=ORIENTED_EDGE('',*,*,#340,.T.);
#465=ORIENTED_EDGE('',*,*,#342,.F.);
#466=ORIENTED_EDGE('',*,*,#332,.F.);
#467=ORIENTED_EDGE('',*,*,#342,.T.);
#468=ORIENTED_EDGE('',*,*,#339,.T.);
#469=ORIENTED_EDGE('',*,*,#336,.T.);
#470=ORIENTED_EDGE('',*,*,#333,.T.);
#471=ORIENTED_EDGE('',*,*,#341,.T.);
#472=ORIENTED_EDGE('',*,*,#331,.T.);
#473=ORIENTED_EDGE('',*,*,#335,.T.);
#474=ORIENTED_EDGE('',*,*,#338,.T.);
#475=ORIENTED_EDGE('',*,*,#343,.F.);
#476=ORIENTED_EDGE('',*,*,#344,.T.);
#477=ORIENTED_EDGE('',*,*,#345,.F.);
#478=ORIENTED_EDGE('',*,*,#346,.F.);
#479=ORIENTED_EDGE('',*,*,#347,.F.);
#480=ORIENTED_EDGE('',*,*,#346,.T.);
#481=ORIENTED_EDGE('',*,*,#348,.F.);
#482=ORIENTED_EDGE('',*,*,#349,.F.);
#483=ORIENTED_EDGE('',*,*,#350,.T.);
#484=ORIENTED_EDGE('',*,*,#349,.T.);
#485=ORIENTED_EDGE('',*,*,#351,.F.);
#486=ORIENTED_EDGE('',*,*,#352,.F.);
#487=ORIENTED_EDGE('',*,*,#353,.F.);
#488=ORIENTED_EDGE('',*,*,#352,.T.);
#489=ORIENTED_EDGE('',*,*,#354,.F.);
#490=ORIENTED_EDGE('',*,*,#344,.F.);
#491=ORIENTED_EDGE('',*,*,#354,.T.);
#492=ORIENTED_EDGE('',*,*,#351,.T.);
#493=ORIENTED_EDGE('',*,*,#348,.T.);
#494=ORIENTED_EDGE('',*,*,#345,.T.);
#495=ORIENTED_EDGE('',*,*,#353,.T.);
#496=ORIENTED_EDGE('',*,*,#343,.T.);
#497=ORIENTED_EDGE('',*,*,#347,.T.);
#498=ORIENTED_EDGE('',*,*,#350,.F.);
#499=PLANE('',#575);
#500=PLANE('',#576);
#501=PLANE('',#577);
#502=PLANE('',#578);
#503=PLANE('',#579);
#504=PLANE('',#580);
#505=PLANE('',#581);
#506=PLANE('',#582);
#507=PLANE('',#583);
#508=PLANE('',#584);
#509=PLANE('',#585);
#510=PLANE('',#586);
#511=PLANE('',#587);
#512=PLANE('',#588);
#513=PLANE('',#589);
#514=PLANE('',#590);
#515=PLANE('',#591);
#516=PLANE('',#592);
#517=PLANE('',#593);
#518=PLANE('',#594);
#519=PLANE('',#595);
#520=PLANE('',#596);
#521=PLANE('',#597);
#522=PLANE('',#598);
#523=PLANE('',#599);
#524=PLANE('',#600);
#525=PLANE('',#601);
#526=PLANE('',#602);
#527=PLANE('',#603);
#528=PLANE('',#604);
#529=ADVANCED_FACE('',(#25),#499,.F.);
#530=ADVANCED_FACE('',(#26),#500,.F.);
#531=ADVANCED_FACE('',(#27),#501,.F.);
#532=ADVANCED_FACE('',(#28),#502,.F.);
#533=ADVANCED_FACE('',(#29),#503,.F.);
#534=ADVANCED_FACE('',(#30),#504,.F.);
#535=ADVANCED_FACE('',(#31),#505,.F.);
#536=ADVANCED_FACE('',(#32),#506,.F.);
#537=ADVANCED_FACE('',(#33),#507,.T.);
#538=ADVANCED_FACE('',(#34),#508,.T.);
#539=ADVANCED_FACE('',(#35,#19,#20),#509,.T.);
#540=ADVANCED_FACE('',(#36),#510,.T.);
#541=ADVANCED_FACE('',(#37),#511,.T.);
#542=ADVANCED_FACE('',(#38),#512,.T.);
#543=ADVANCED_FACE('',(#39),#513,.T.);
#544=ADVANCED_FACE('',(#40,#21,#22),#514,.T.);
#545=ADVANCED_FACE('',(#41,#23),#515,.T.);
#546=ADVANCED_FACE('',(#42,#24),#516,.F.);
#547=ADVANCED_FACE('',(#43),#517,.T.);
#548=ADVANCED_FACE('',(#44),#518,.T.);
#549=ADVANCED_FACE('',(#45),#519,.T.);
#550=ADVANCED_FACE('',(#46),#520,.T.);
#551=ADVANCED_FACE('',(#47),#521,.T.);
#552=ADVANCED_FACE('',(#48),#522,.F.);
#553=ADVANCED_FACE('',(#49),#523,.T.);
#554=ADVANCED_FACE('',(#50),#524,.T.);
#555=ADVANCED_FACE('',(#51),#525,.T.);
#556=ADVANCED_FACE('',(#52),#526,.T.);
#557=ADVANCED_FACE('',(#53),#527,.T.);
#558=ADVANCED_FACE('',(#54),#528,.F.);
#559=CLOSED_SHELL('',(#529,#530,#531,#532,#533,#534,#535,#536,#537,#538,
#539,#540,#541,#542,#543,#544,#545,#546));
#560=CLOSED_SHELL('',(#547,#548,#549,#550,#551,#552));
#561=CLOSED_SHELL('',(#553,#554,#555,#556,#557,#558));
#562=DERIVED_UNIT_ELEMENT(#564,1.);
#563=DERIVED_UNIT_ELEMENT(#895,-3.);
#564=(
MASS_UNIT()
NAMED_UNIT(*)
SI_UNIT(.KILO.,.GRAM.)
);
#565=DERIVED_UNIT((#562,#563));
#566=MEASURE_REPRESENTATION_ITEM('density measure',
POSITIVE_RATIO_MEASURE(7850.),#565);
#567=PROPERTY_DEFINITION_REPRESENTATION(#572,#569);
#568=PROPERTY_DEFINITION_REPRESENTATION(#573,#570);
#569=REPRESENTATION('material name',(#571),#892);
#570=REPRESENTATION('density',(#566),#892);
#571=DESCRIPTIVE_REPRESENTATION_ITEM('Steel','Steel');
#572=PROPERTY_DEFINITION('material property','material name',#902);
#573=PROPERTY_DEFINITION('material property','density of part',#902);
#574=AXIS2_PLACEMENT_3D('',#739,#605,#606);
#575=AXIS2_PLACEMENT_3D('',#740,#607,#608);
#576=AXIS2_PLACEMENT_3D('',#749,#613,#614);
#577=AXIS2_PLACEMENT_3D('',#755,#618,#619);
#578=AXIS2_PLACEMENT_3D('',#761,#623,#624);
#579=AXIS2_PLACEMENT_3D('',#764,#627,#628);
#580=AXIS2_PLACEMENT_3D('',#773,#633,#634);
#581=AXIS2_PLACEMENT_3D('',#779,#638,#639);
#582=AXIS2_PLACEMENT_3D('',#785,#643,#644);
#583=AXIS2_PLACEMENT_3D('',#788,#647,#648);
#584=AXIS2_PLACEMENT_3D('',#797,#653,#654);
#585=AXIS2_PLACEMENT_3D('',#803,#658,#659);
#586=AXIS2_PLACEMENT_3D('',#809,#663,#664);
#587=AXIS2_PLACEMENT_3D('',#812,#667,#668);
#588=AXIS2_PLACEMENT_3D('',#821,#673,#674);
#589=AXIS2_PLACEMENT_3D('',#827,#678,#679);
#590=AXIS2_PLACEMENT_3D('',#833,#683,#684);
#591=AXIS2_PLACEMENT_3D('',#836,#687,#688);
#592=AXIS2_PLACEMENT_3D('',#837,#689,#690);
#593=AXIS2_PLACEMENT_3D('',#838,#691,#692);
#594=AXIS2_PLACEMENT_3D('',#847,#697,#698);
#595=AXIS2_PLACEMENT_3D('',#853,#702,#703);
#596=AXIS2_PLACEMENT_3D('',#859,#707,#708);
#597=AXIS2_PLACEMENT_3D('',#862,#711,#712);
#598=AXIS2_PLACEMENT_3D('',#863,#713,#714);
#599=AXIS2_PLACEMENT_3D('',#864,#715,#716);
#600=AXIS2_PLACEMENT_3D('',#873,#721,#722);
#601=AXIS2_PLACEMENT_3D('',#879,#726,#727);
#602=AXIS2_PLACEMENT_3D('',#885,#731,#732);
#603=AXIS2_PLACEMENT_3D('',#888,#735,#736);
#604=AXIS2_PLACEMENT_3D('',#889,#737,#738);
#605=DIRECTION('axis',(0.,0.,1.));
#606=DIRECTION('refdir',(1.,0.,0.));
#607=DIRECTION('center_axis',(1.,0.,0.));
#608=DIRECTION('ref_axis',(0.,0.,-1.));
#609=DIRECTION('',(0.,0.,-1.));
#610=DIRECTION('',(0.,1.,0.));
#611=DIRECTION('',(0.,0.,1.));
#612=DIRECTION('',(0.,1.,0.));
#613=DIRECTION('center_axis',(0.,0.,1.));
#614=DIRECTION('ref_axis',(1.,0.,0.));
#615=DIRECTION('',(1.,0.,0.));
#616=DIRECTION('',(0.,1.,0.));
#617=DIRECTION('',(-1.,0.,0.));
#618=DIRECTION('center_axis',(-1.,0.,0.));
#619=DIRECTION('ref_axis',(0.,0.,1.));
#620=DIRECTION('',(0.,0.,1.));
#621=DIRECTION('',(0.,1.,0.));
#622=DIRECTION('',(0.,0.,-1.));
#623=DIRECTION('center_axis',(0.,0.,-1.));
#624=DIRECTION('ref_axis',(-1.,0.,0.));
#625=DIRECTION('',(-1.,0.,0.));
#626=DIRECTION('',(1.,0.,0.));
#627=DIRECTION('center_axis',(1.,0.,0.));
#628=DIRECTION('ref_axis',(0.,0.,-1.));
#629=DIRECTION('',(0.,0.,-1.));
#630=DIRECTION('',(0.,1.,0.));
#631=DIRECTION('',(0.,0.,1.));
#632=DIRECTION('',(0.,1.,0.));
#633=DIRECTION('center_axis',(0.,0.,1.));
#634=DIRECTION('ref_axis',(1.,0.,0.));
#635=DIRECTION('',(1.,0.,0.));
#636=DIRECTION('',(0.,1.,0.));
#637=DIRECTION('',(-1.,0.,0.));
#638=DIRECTION('center_axis',(-1.,0.,0.));
#639=DIRECTION('ref_axis',(0.,0.,1.));
#640=DIRECTION('',(0.,0.,1.));
#641=DIRECTION('',(0.,1.,0.));
#642=DIRECTION('',(0.,0.,-1.));
#643=DIRECTION('center_axis',(0.,0.,-1.));
#644=DIRECTION('ref_axis',(-1.,0.,0.));
#645=DIRECTION('',(-1.,0.,0.));
#646=DIRECTION('',(1.,0.,0.));
#647=DIRECTION('center_axis',(0.,-1.,0.));
#648=DIRECTION('ref_axis',(1.,0.,0.));
#649=DIRECTION('',(1.,0.,0.));
#650=DIRECTION('',(0.,0.,1.));
#651=DIRECTION('',(1.,0.,0.));
#652=DIRECTION('',(0.,0.,1.));
#653=DIRECTION('center_axis',(1.,0.,0.));
#654=DIRECTION('ref_axis',(0.,1.,0.));
#655=DIRECTION('',(0.,1.,0.));
#656=DIRECTION('',(0.,1.,0.));
#657=DIRECTION('',(0.,0.,1.));
#658=DIRECTION('center_axis',(0.,1.,0.));
#659=DIRECTION('ref_axis',(-1.,0.,0.));
#660=DIRECTION('',(-1.,0.,0.));
#661=DIRECTION('',(-1.,0.,0.));
#662=DIRECTION('',(0.,0.,1.));
#663=DIRECTION('center_axis',(-1.,0.,0.));
#664=DIRECTION('ref_axis',(0.,-1.,0.));
#665=DIRECTION('',(0.,-1.,0.));
#666=DIRECTION('',(0.,-1.,0.));
#667=DIRECTION('center_axis',(-1.,0.,0.));
#668=DIRECTION('ref_axis',(0.,-1.,0.));
#669=DIRECTION('',(0.,1.,0.));
#670=DIRECTION('',(0.,0.,1.));
#671=DIRECTION('',(0.,-1.,0.));
#672=DIRECTION('',(0.,0.,1.));
#673=DIRECTION('center_axis',(0.,1.,0.));
#674=DIRECTION('ref_axis',(-1.,0.,0.));
#675=DIRECTION('',(1.,0.,0.));
#676=DIRECTION('',(-1.,0.,0.));
#677=DIRECTION('',(0.,0.,1.));
#678=DIRECTION('center_axis',(1.,0.,0.));
#679=DIRECTION('ref_axis',(0.,1.,0.));
#680=DIRECTION('',(0.,-1.,0.));
#681=DIRECTION('',(0.,1.,0.));
#682=DIRECTION('',(0.,0.,1.));
#683=DIRECTION('center_axis',(0.,-1.,0.));
#684=DIRECTION('ref_axis',(1.,0.,0.));
#685=DIRECTION('',(-1.,0.,0.));
#686=DIRECTION('',(1.,0.,0.));
#687=DIRECTION('center_axis',(0.,0.,1.));
#688=DIRECTION('ref_axis',(1.,0.,0.));
#689=DIRECTION('center_axis',(0.,0.,1.));
#690=DIRECTION('ref_axis',(1.,0.,0.));
#691=DIRECTION('center_axis',(1.,0.,0.));
#692=DIRECTION('ref_axis',(0.,1.,0.));
#693=DIRECTION('',(0.,-1.,0.));
#694=DIRECTION('',(0.,0.,1.));
#695=DIRECTION('',(0.,1.,0.));
#696=DIRECTION('',(0.,0.,1.));
#697=DIRECTION('center_axis',(0.,-1.,0.));
#698=DIRECTION('ref_axis',(1.,0.,0.));
#699=DIRECTION('',(-1.,0.,0.));
#700=DIRECTION('',(1.,0.,0.));
#701=DIRECTION('',(0.,0.,1.));
#702=DIRECTION('center_axis',(-1.,0.,0.));
#703=DIRECTION('ref_axis',(0.,-1.,0.));
#704=DIRECTION('',(0.,1.,0.));
#705=DIRECTION('',(0.,-1.,0.));
#706=DIRECTION('',(0.,0.,1.));
#707=DIRECTION('center_axis',(0.,1.,0.));
#708=DIRECTION('ref_axis',(-1.,0.,0.));
#709=DIRECTION('',(1.,0.,0.));
#710=DIRECTION('',(-1.,0.,0.));
#711=DIRECTION('center_axis',(0.,0.,1.));
#712=DIRECTION('ref_axis',(1.,0.,0.));
#713=DIRECTION('center_axis',(0.,0.,1.));
#714=DIRECTION('ref_axis',(1.,0.,0.));
#715=DIRECTION('center_axis',(1.,0.,0.));
#716=DIRECTION('ref_axis',(0.,1.,0.));
#717=DIRECTION('',(0.,-1.,0.));
#718=DIRECTION('',(0.,0.,1.));
#719=DIRECTION('',(0.,1.,0.));
#720=DIRECTION('',(0.,0.,1.));
#721=DIRECTION('center_axis',(0.,-1.,0.));
#722=DIRECTION('ref_axis',(1.,0.,0.));
#723=DIRECTION('',(-1.,0.,0.));
#724=DIRECTION('',(1.,0.,0.));
#725=DIRECTION('',(0.,0.,1.));
#726=DIRECTION('center_axis',(-1.,0.,0.));
#727=DIRECTION('ref_axis',(0.,-1.,0.));
#728=DIRECTION('',(0.,-1.,0.));
#729=DIRECTION('',(0.,-1.,0.));
#730=DIRECTION('',(0.,0.,1.));
#731=DIRECTION('center_axis',(0.,1.,0.));
#732=DIRECTION('ref_axis',(-1.,0.,0.));
#733=DIRECTION('',(1.,0.,0.));
#734=DIRECTION('',(-1.,0.,0.));
#735=DIRECTION('center_axis',(0.,0.,1.));
#736=DIRECTION('ref_axis',(1.,0.,0.));
#737=DIRECTION('center_axis',(0.,0.,1.));
#738=DIRECTION('ref_axis',(1.,0.,0.));
#739=CARTESIAN_POINT('',(0.,0.,0.));
#740=CARTESIAN_POINT('Origin',(-9.54640437445652,-28.5241338253673,15.0000002235174));
#741=CARTESIAN_POINT('',(-9.54640437445652,-28.5241338253673,15.0000002235174));
#742=CARTESIAN_POINT('',(-9.54640437445652,-28.5241338253673,5.00000022351742));
#743=CARTESIAN_POINT('',(-9.54640437445652,-28.5241338253673,7.50000011175871));
#744=CARTESIAN_POINT('',(-9.54640437445652,-22.5241338253673,15.0000002235174));
#745=CARTESIAN_POINT('',(-9.54640437445652,-28.5241338253673,15.0000002235174));
#746=CARTESIAN_POINT('',(-9.54640437445652,-22.5241338253673,5.00000022351742));
#747=CARTESIAN_POINT('',(-9.54640437445653,-22.5241338253673,7.50000011175871));
#748=CARTESIAN_POINT('',(-9.54640437445652,-28.5241338253673,5.00000022351742));
#749=CARTESIAN_POINT('Origin',(-24.5464043744565,-28.5241338253673,15.0000002235174));
#750=CARTESIAN_POINT('',(-24.5464043744565,-28.5241338253673,15.0000002235174));
#751=CARTESIAN_POINT('',(-30.0464043744565,-28.5241338253673,15.0000002235174));
#752=CARTESIAN_POINT('',(-24.5464043744565,-22.5241338253673,15.0000002235174));
#753=CARTESIAN_POINT('',(-24.5464043744565,-28.5241338253673,15.0000002235174));
#754=CARTESIAN_POINT('',(37.4535956255435,-22.5241338253673,15.0000002235174));
#755=CARTESIAN_POINT('Origin',(-24.5464043744565,-28.5241338253673,5.00000022351742));
#756=CARTESIAN_POINT('',(-24.5464043744565,-28.5241338253673,5.00000022351742));
#757=CARTESIAN_POINT('',(-24.5464043744565,-28.5241338253673,2.50000011175871));
#758=CARTESIAN_POINT('',(-24.5464043744565,-22.5241338253673,5.00000022351742));
#759=CARTESIAN_POINT('',(-24.5464043744565,-28.5241338253673,5.00000022351742));
#760=CARTESIAN_POINT('',(-24.5464043744565,-22.5241338253673,2.50000011175871));
#761=CARTESIAN_POINT('Origin',(-9.54640437445652,-28.5241338253673,5.00000022351742));
#762=CARTESIAN_POINT('',(-22.5464043744565,-28.5241338253673,5.00000022351742));
#763=CARTESIAN_POINT('',(44.9535956255435,-22.5241338253673,5.00000022351742));
#764=CARTESIAN_POINT('Origin',(10.4535956255435,-28.5241338253673,10.));
#765=CARTESIAN_POINT('',(10.4535956255435,-28.5241338253673,10.));
#766=CARTESIAN_POINT('',(10.4535956255435,-28.5241338253673,5.));
#767=CARTESIAN_POINT('',(10.4535956255435,-28.5241338253673,5.));
#768=CARTESIAN_POINT('',(10.4535956255435,-22.5241338253673,10.));
#769=CARTESIAN_POINT('',(10.4535956255435,-28.5241338253673,10.));
#770=CARTESIAN_POINT('',(10.4535956255435,-22.5241338253673,5.));
#771=CARTESIAN_POINT('',(10.4535956255435,-22.5241338253673,5.));
#772=CARTESIAN_POINT('',(10.4535956255435,-28.5241338253673,5.));
#773=CARTESIAN_POINT('Origin',(-4.54640437445652,-28.5241338253673,10.));
#774=CARTESIAN_POINT('',(-4.54640437445652,-28.5241338253673,10.));
#775=CARTESIAN_POINT('',(-20.0464043744565,-28.5241338253673,10.));
#776=CARTESIAN_POINT('',(-4.54640437445652,-22.5241338253673,10.));
#777=CARTESIAN_POINT('',(-4.54640437445652,-28.5241338253673,10.));
#778=CARTESIAN_POINT('',(47.4535956255435,-22.5241338253673,10.));
#779=CARTESIAN_POINT('Origin',(-4.54640437445652,-28.5241338253673,5.));
#780=CARTESIAN_POINT('',(-4.54640437445652,-28.5241338253673,5.));
#781=CARTESIAN_POINT('',(-4.54640437445652,-28.5241338253673,2.5));
#782=CARTESIAN_POINT('',(-4.54640437445652,-22.5241338253673,5.));
#783=CARTESIAN_POINT('',(-4.54640437445652,-28.5241338253673,5.));
#784=CARTESIAN_POINT('',(-4.54640437445653,-22.5241338253673,2.5));
#785=CARTESIAN_POINT('Origin',(10.4535956255435,-28.5241338253673,5.));
#786=CARTESIAN_POINT('',(-12.5464043744565,-28.5241338253673,5.));
#787=CARTESIAN_POINT('',(54.9535956255435,-22.5241338253673,5.));
#788=CARTESIAN_POINT('Origin',(-29.5464043744565,22.4758661746327,0.));
#789=CARTESIAN_POINT('',(-29.5464043744565,22.4758661746327,0.));
#790=CARTESIAN_POINT('',(99.4535956255435,22.4758661746327,0.));
#791=CARTESIAN_POINT('',(-29.5464043744565,22.4758661746327,0.));
#792=CARTESIAN_POINT('',(99.4535956255435,22.4758661746327,20.));
#793=CARTESIAN_POINT('',(99.4535956255435,22.4758661746327,0.));
#794=CARTESIAN_POINT('',(-29.5464043744565,22.4758661746327,20.));
#795=CARTESIAN_POINT('',(-29.5464043744565,22.4758661746327,20.));
#796=CARTESIAN_POINT('',(-29.5464043744565,22.4758661746327,0.));
#797=CARTESIAN_POINT('Origin',(-29.5464043744565,-22.5241338253673,0.));
#798=CARTESIAN_POINT('',(-29.5464043744565,-22.5241338253673,0.));
#799=CARTESIAN_POINT('',(-29.5464043744565,-22.5241338253673,0.));
#800=CARTESIAN_POINT('',(-29.5464043744565,-22.5241338253673,20.));
#801=CARTESIAN_POINT('',(-29.5464043744565,-22.5241338253673,20.));
#802=CARTESIAN_POINT('',(-29.5464043744565,-22.5241338253673,0.));
#803=CARTESIAN_POINT('Origin',(99.4535956255435,-22.5241338253673,0.));
#804=CARTESIAN_POINT('',(99.4535956255435,-22.5241338253673,0.));
#805=CARTESIAN_POINT('',(99.4535956255435,-22.5241338253673,0.));
#806=CARTESIAN_POINT('',(99.4535956255435,-22.5241338253673,20.));
#807=CARTESIAN_POINT('',(99.4535956255435,-22.5241338253673,20.));
#808=CARTESIAN_POINT('',(99.4535956255435,-22.5241338253673,0.));
#809=CARTESIAN_POINT('Origin',(99.4535956255435,22.4758661746327,0.));
#810=CARTESIAN_POINT('',(99.4535956255435,22.4758661746327,0.));
#811=CARTESIAN_POINT('',(99.4535956255435,22.4758661746327,20.));
#812=CARTESIAN_POINT('Origin',(-35.5464043744565,28.4758661746327,0.));
#813=CARTESIAN_POINT('',(-35.5464043744565,-28.5241338253673,0.));
#814=CARTESIAN_POINT('',(-35.5464043744565,28.4758661746327,0.));
#815=CARTESIAN_POINT('',(-35.5464043744565,-28.5241338253673,0.));
#816=CARTESIAN_POINT('',(-35.5464043744565,-28.5241338253672,20.));
#817=CARTESIAN_POINT('',(-35.5464043744565,-28.5241338253673,0.));
#818=CARTESIAN_POINT('',(-35.5464043744565,28.4758661746327,20.));
#819=CARTESIAN_POINT('',(-35.5464043744565,-28.5241338253673,20.));
#820=CARTESIAN_POINT('',(-35.5464043744565,28.4758661746327,0.));
#821=CARTESIAN_POINT('Origin',(105.453595625543,28.4758661746327,0.));
#822=CARTESIAN_POINT('',(105.453595625543,28.4758661746327,0.));
#823=CARTESIAN_POINT('',(-35.5464043744565,28.4758661746327,0.));
#824=CARTESIAN_POINT('',(105.453595625543,28.4758661746327,20.));
#825=CARTESIAN_POINT('',(-35.5464043744565,28.4758661746327,20.));
#826=CARTESIAN_POINT('',(105.453595625543,28.4758661746327,0.));
#827=CARTESIAN_POINT('Origin',(105.453595625543,-28.5241338253673,0.));
#828=CARTESIAN_POINT('',(105.453595625543,-28.5241338253673,0.));
#829=CARTESIAN_POINT('',(105.453595625543,28.4758661746327,0.));
#830=CARTESIAN_POINT('',(105.453595625543,-28.5241338253672,20.));
#831=CARTESIAN_POINT('',(105.453595625543,28.4758661746327,20.));
#832=CARTESIAN_POINT('',(105.453595625543,-28.5241338253673,0.));
#833=CARTESIAN_POINT('Origin',(-35.5464043744565,-28.5241338253673,0.));
#834=CARTESIAN_POINT('',(105.453595625543,-28.5241338253673,0.));
#835=CARTESIAN_POINT('',(105.453595625543,-28.5241338253673,20.));
#836=CARTESIAN_POINT('Origin',(34.9535956255435,-0.0241338253672518,20.));
#837=CARTESIAN_POINT('Origin',(34.9535956255435,-0.0241338253672518,0.));
#838=CARTESIAN_POINT('Origin',(15.4535956255435,-22.5241338253673,0.));
#839=CARTESIAN_POINT('',(15.4535956255435,22.4758661746327,0.));
#840=CARTESIAN_POINT('',(15.4535956255435,-22.5241338253673,0.));
#841=CARTESIAN_POINT('',(15.4535956255435,22.4758661746327,0.));
#842=CARTESIAN_POINT('',(15.4535956255435,22.4758661746327,3.));
#843=CARTESIAN_POINT('',(15.4535956255435,22.4758661746327,0.));
#844=CARTESIAN_POINT('',(15.4535956255435,-22.5241338253673,3.));
#845=CARTESIAN_POINT('',(15.4535956255435,22.4758661746327,3.));
#846=CARTESIAN_POINT('',(15.4535956255435,-22.5241338253673,0.));
#847=CARTESIAN_POINT('Origin',(-29.5464043744565,-22.5241338253673,0.));
#848=CARTESIAN_POINT('',(-29.5464043744565,-22.5241338253673,0.));
#849=CARTESIAN_POINT('',(99.4535956255435,-22.5241338253673,0.));
#850=CARTESIAN_POINT('',(-29.5464043744565,-22.5241338253673,3.));
#851=CARTESIAN_POINT('',(99.4535956255435,-22.5241338253673,3.));
#852=CARTESIAN_POINT('',(-29.5464043744565,-22.5241338253673,0.));
#853=CARTESIAN_POINT('Origin',(-29.5464043744565,22.4758661746327,0.));
#854=CARTESIAN_POINT('',(-29.5464043744565,22.4758661746327,0.));
#855=CARTESIAN_POINT('',(-29.5464043744565,-22.5241338253673,0.));
#856=CARTESIAN_POINT('',(-29.5464043744565,22.4758661746327,3.));
#857=CARTESIAN_POINT('',(-29.5464043744565,-22.5241338253673,3.));
#858=CARTESIAN_POINT('',(-29.5464043744565,22.4758661746327,0.));
#859=CARTESIAN_POINT('Origin',(15.4535956255435,22.4758661746327,0.));
#860=CARTESIAN_POINT('',(-29.5464043744565,22.4758661746327,0.));
#861=CARTESIAN_POINT('',(-29.5464043744565,22.4758661746327,3.));
#862=CARTESIAN_POINT('Origin',(-7.04640437445653,-0.0241338253672518,3.));
#863=CARTESIAN_POINT('Origin',(-7.04640437445653,-0.0241338253672518,0.));
#864=CARTESIAN_POINT('Origin',(99.4535956255435,-22.5241338253673,0.));
#865=CARTESIAN_POINT('',(99.4535956255435,22.4758661746327,0.));
#866=CARTESIAN_POINT('',(99.4535956255435,-22.5241338253673,0.));
#867=CARTESIAN_POINT('',(99.4535956255435,22.4758661746327,0.));
#868=CARTESIAN_POINT('',(99.4535956255435,22.4758661746327,5.));
#869=CARTESIAN_POINT('',(99.4535956255435,22.4758661746327,0.));
#870=CARTESIAN_POINT('',(99.4535956255435,-22.5241338253673,5.));
#871=CARTESIAN_POINT('',(99.4535956255435,22.4758661746327,5.));
#872=CARTESIAN_POINT('',(99.4535956255435,-22.5241338253673,0.));
#873=CARTESIAN_POINT('Origin',(15.4535956255435,-22.5241338253673,0.));
#874=CARTESIAN_POINT('',(15.4535956255435,-22.5241338253673,0.));
#875=CARTESIAN_POINT('',(99.4535956255435,-22.5241338253673,0.));
#876=CARTESIAN_POINT('',(15.4535956255435,-22.5241338253673,5.));
#877=CARTESIAN_POINT('',(99.4535956255435,-22.5241338253673,5.));
#878=CARTESIAN_POINT('',(15.4535956255435,-22.5241338253673,0.));
#879=CARTESIAN_POINT('Origin',(15.4535956255435,22.4758661746327,0.));
#880=CARTESIAN_POINT('',(15.4535956255435,22.4758661746327,0.));
#881=CARTESIAN_POINT('',(15.4535956255435,22.4758661746327,0.));
#882=CARTESIAN_POINT('',(15.4535956255435,22.4758661746327,5.));
#883=CARTESIAN_POINT('',(15.4535956255435,22.4758661746327,5.));
#884=CARTESIAN_POINT('',(15.4535956255435,22.4758661746327,0.));
#885=CARTESIAN_POINT('Origin',(99.4535956255435,22.4758661746327,0.));
#886=CARTESIAN_POINT('',(-29.5464043744565,22.4758661746327,0.));
#887=CARTESIAN_POINT('',(-29.5464043744565,22.4758661746327,5.));
#888=CARTESIAN_POINT('Origin',(57.4535956255435,-0.0241338253672518,5.));
#889=CARTESIAN_POINT('Origin',(57.4535956255435,-0.0241338253672518,0.));
#890=UNCERTAINTY_MEASURE_WITH_UNIT(LENGTH_MEASURE(0.01),#894,
'DISTANCE_ACCURACY_VALUE',
'Maximum model space distance between geometric entities at asserted c
onnectivities');
#891=UNCERTAINTY_MEASURE_WITH_UNIT(LENGTH_MEASURE(0.01),#894,
'DISTANCE_ACCURACY_VALUE',
'Maximum model space distance between geometric entities at asserted c
onnectivities');
#892=(
GEOMETRIC_REPRESENTATION_CONTEXT(3)
GLOBAL_UNCERTAINTY_ASSIGNED_CONTEXT((#890))
GLOBAL_UNIT_ASSIGNED_CONTEXT((#894,#896,#897))
REPRESENTATION_CONTEXT('','3D')
);
#893=(
GEOMETRIC_REPRESENTATION_CONTEXT(3)
GLOBAL_UNCERTAINTY_ASSIGNED_CONTEXT((#891))
GLOBAL_UNIT_ASSIGNED_CONTEXT((#894,#896,#897))
REPRESENTATION_CONTEXT('','3D')
);
#894=(
LENGTH_UNIT()
NAMED_UNIT(*)
SI_UNIT(.MILLI.,.METRE.)
);
#895=(
LENGTH_UNIT()
NAMED_UNIT(*)
SI_UNIT($,.METRE.)
);
#896=(
NAMED_UNIT(*)
PLANE_ANGLE_UNIT()
SI_UNIT($,.RADIAN.)
);
#897=(
NAMED_UNIT(*)
SI_UNIT($,.STERADIAN.)
SOLID_ANGLE_UNIT()
);
#898=SHAPE_DEFINITION_REPRESENTATION(#899,#900);
#899=PRODUCT_DEFINITION_SHAPE('',$,#902);
#900=SHAPE_REPRESENTATION('',(#574),#892);
#901=PRODUCT_DEFINITION_CONTEXT('part definition',#906,'design');
#902=PRODUCT_DEFINITION('2026-09-12-19-25-02-339','Dice Hub Base',#903,
#901);
#903=PRODUCT_DEFINITION_FORMATION('',$,#908);
#904=PRODUCT_RELATED_PRODUCT_CATEGORY('Dice Hub Base','Dice Hub Base',(#908));
#905=APPLICATION_PROTOCOL_DEFINITION('international standard',
'automotive_design',2009,#906);
#906=APPLICATION_CONTEXT(
'Core Data for Automotive Mechanical Design Process');
#907=PRODUCT_CONTEXT('part definition',#906,'mechanical');
#908=PRODUCT('2026-09-12-19-25-02-339','Dice Hub Base',$,(#907));
#909=PRESENTATION_STYLE_ASSIGNMENT((#910));
#910=SURFACE_STYLE_USAGE(.BOTH.,#911);
#911=SURFACE_SIDE_STYLE('',(#912));
#912=SURFACE_STYLE_FILL_AREA(#913);
#913=FILL_AREA_STYLE('Steel - Satin',(#914));
#914=FILL_AREA_STYLE_COLOUR('Steel - Satin',#915);
#915=COLOUR_RGB('Steel - Satin',0.627450980392157,0.627450980392157,0.627450980392157);
ENDSEC;
END-ISO-10303-21;
