ISO-10303-21;
HEADER;
/* Generated by software containing ST-Developer
 * from STEP Tools, Inc. (www.steptools.com) 
 */

FILE_DESCRIPTION(
/* description */ (''),
/* implementation_level */ '2;1');

FILE_NAME(
/* name */ 'Dice Hub Top.step',
/* time_stamp */ '2026-09-13T08:12:32-05:00',
/* author */ (''),
/* organization */ (''),
/* preprocessor_version */ 'ST-DEVELOPER v20.1',
/* originating_system */ 'Autodesk Translation Framework v15.8.0.0',
/* authorisation */ '');

FILE_SCHEMA (('AUTOMOTIVE_DESIGN { 1 0 10303 214 3 1 1 }'));
ENDSEC;

DATA;
#10=MECHANICAL_DESIGN_GEOMETRIC_PRESENTATION_REPRESENTATION('',(#13),#1405);
#11=SHAPE_REPRESENTATION_RELATIONSHIP('SRR','None',#1412,#12);
#12=ADVANCED_BREP_SHAPE_REPRESENTATION('',(#14),#1404);
#13=STYLED_ITEM('',(#1421),#14);
#14=MANIFOLD_SOLID_BREP('Body2',#873);
#15=FACE_BOUND('',#144,.T.);
#16=FACE_BOUND('',#145,.T.);
#17=FACE_BOUND('',#146,.T.);
#18=FACE_BOUND('',#147,.T.);
#19=FACE_BOUND('',#148,.T.);
#20=FACE_BOUND('',#149,.T.);
#21=FACE_BOUND('',#150,.T.);
#22=FACE_BOUND('',#152,.T.);
#23=FACE_BOUND('',#153,.T.);
#24=FACE_BOUND('',#154,.T.);
#25=FACE_BOUND('',#155,.T.);
#26=FACE_BOUND('',#156,.T.);
#27=FACE_BOUND('',#157,.T.);
#28=FACE_BOUND('',#158,.T.);
#29=FACE_BOUND('',#159,.T.);
#30=FACE_BOUND('',#160,.T.);
#31=FACE_BOUND('',#161,.T.);
#32=FACE_BOUND('',#162,.T.);
#33=FACE_BOUND('',#163,.T.);
#34=FACE_BOUND('',#164,.T.);
#35=CIRCLE('',#892,1.49999999999999);
#36=CIRCLE('',#893,1.49999999999999);
#37=CIRCLE('',#896,1.49999999999999);
#38=CIRCLE('',#897,1.49999999999999);
#39=CIRCLE('',#900,1.5);
#40=CIRCLE('',#901,1.5);
#41=CIRCLE('',#904,1.5);
#42=CIRCLE('',#905,1.5);
#43=CIRCLE('',#908,1.5);
#44=CIRCLE('',#909,1.5);
#45=CIRCLE('',#912,1.5);
#46=CIRCLE('',#913,1.5);
#47=CYLINDRICAL_SURFACE('',#891,1.49999999999999);
#48=CYLINDRICAL_SURFACE('',#895,1.49999999999999);
#49=CYLINDRICAL_SURFACE('',#899,1.5);
#50=CYLINDRICAL_SURFACE('',#903,1.5);
#51=CYLINDRICAL_SURFACE('',#907,1.5);
#52=CYLINDRICAL_SURFACE('',#911,1.5);
#53=FACE_OUTER_BOUND('',#99,.T.);
#54=FACE_OUTER_BOUND('',#100,.T.);
#55=FACE_OUTER_BOUND('',#101,.T.);
#56=FACE_OUTER_BOUND('',#102,.T.);
#57=FACE_OUTER_BOUND('',#103,.T.);
#58=FACE_OUTER_BOUND('',#104,.T.);
#59=FACE_OUTER_BOUND('',#105,.T.);
#60=FACE_OUTER_BOUND('',#106,.T.);
#61=FACE_OUTER_BOUND('',#107,.T.);
#62=FACE_OUTER_BOUND('',#108,.T.);
#63=FACE_OUTER_BOUND('',#109,.T.);
#64=FACE_OUTER_BOUND('',#110,.T.);
#65=FACE_OUTER_BOUND('',#111,.T.);
#66=FACE_OUTER_BOUND('',#112,.T.);
#67=FACE_OUTER_BOUND('',#113,.T.);
#68=FACE_OUTER_BOUND('',#114,.T.);
#69=FACE_OUTER_BOUND('',#115,.T.);
#70=FACE_OUTER_BOUND('',#116,.T.);
#71=FACE_OUTER_BOUND('',#117,.T.);
#72=FACE_OUTER_BOUND('',#118,.T.);
#73=FACE_OUTER_BOUND('',#119,.T.);
#74=FACE_OUTER_BOUND('',#120,.T.);
#75=FACE_OUTER_BOUND('',#121,.T.);
#76=FACE_OUTER_BOUND('',#122,.T.);
#77=FACE_OUTER_BOUND('',#123,.T.);
#78=FACE_OUTER_BOUND('',#124,.T.);
#79=FACE_OUTER_BOUND('',#125,.T.);
#80=FACE_OUTER_BOUND('',#126,.T.);
#81=FACE_OUTER_BOUND('',#127,.T.);
#82=FACE_OUTER_BOUND('',#128,.T.);
#83=FACE_OUTER_BOUND('',#129,.T.);
#84=FACE_OUTER_BOUND('',#130,.T.);
#85=FACE_OUTER_BOUND('',#131,.T.);
#86=FACE_OUTER_BOUND('',#132,.T.);
#87=FACE_OUTER_BOUND('',#133,.T.);
#88=FACE_OUTER_BOUND('',#134,.T.);
#89=FACE_OUTER_BOUND('',#135,.T.);
#90=FACE_OUTER_BOUND('',#136,.T.);
#91=FACE_OUTER_BOUND('',#137,.T.);
#92=FACE_OUTER_BOUND('',#138,.T.);
#93=FACE_OUTER_BOUND('',#139,.T.);
#94=FACE_OUTER_BOUND('',#140,.T.);
#95=FACE_OUTER_BOUND('',#141,.T.);
#96=FACE_OUTER_BOUND('',#142,.T.);
#97=FACE_OUTER_BOUND('',#143,.T.);
#98=FACE_OUTER_BOUND('',#151,.T.);
#99=EDGE_LOOP('',(#559,#560,#561,#562));
#100=EDGE_LOOP('',(#563,#564,#565,#566));
#101=EDGE_LOOP('',(#567,#568,#569,#570));
#102=EDGE_LOOP('',(#571,#572,#573,#574));
#103=EDGE_LOOP('',(#575,#576,#577,#578));
#104=EDGE_LOOP('',(#579));
#105=EDGE_LOOP('',(#580,#581,#582,#583));
#106=EDGE_LOOP('',(#584));
#107=EDGE_LOOP('',(#585,#586,#587,#588));
#108=EDGE_LOOP('',(#589));
#109=EDGE_LOOP('',(#590,#591,#592,#593));
#110=EDGE_LOOP('',(#594));
#111=EDGE_LOOP('',(#595,#596,#597,#598));
#112=EDGE_LOOP('',(#599));
#113=EDGE_LOOP('',(#600,#601,#602,#603));
#114=EDGE_LOOP('',(#604));
#115=EDGE_LOOP('',(#605,#606,#607,#608));
#116=EDGE_LOOP('',(#609,#610,#611,#612));
#117=EDGE_LOOP('',(#613,#614,#615,#616));
#118=EDGE_LOOP('',(#617,#618,#619,#620));
#119=EDGE_LOOP('',(#621,#622,#623,#624));
#120=EDGE_LOOP('',(#625,#626,#627,#628));
#121=EDGE_LOOP('',(#629,#630,#631,#632));
#122=EDGE_LOOP('',(#633,#634,#635,#636));
#123=EDGE_LOOP('',(#637,#638,#639,#640));
#124=EDGE_LOOP('',(#641,#642,#643,#644));
#125=EDGE_LOOP('',(#645,#646,#647,#648));
#126=EDGE_LOOP('',(#649,#650,#651,#652));
#127=EDGE_LOOP('',(#653,#654,#655,#656));
#128=EDGE_LOOP('',(#657,#658,#659,#660));
#129=EDGE_LOOP('',(#661,#662,#663,#664));
#130=EDGE_LOOP('',(#665,#666,#667,#668));
#131=EDGE_LOOP('',(#669,#670,#671,#672));
#132=EDGE_LOOP('',(#673,#674,#675,#676));
#133=EDGE_LOOP('',(#677,#678,#679,#680));
#134=EDGE_LOOP('',(#681,#682,#683,#684));
#135=EDGE_LOOP('',(#685,#686,#687,#688));
#136=EDGE_LOOP('',(#689,#690,#691,#692));
#137=EDGE_LOOP('',(#693,#694,#695,#696));
#138=EDGE_LOOP('',(#697,#698,#699,#700));
#139=EDGE_LOOP('',(#701,#702,#703,#704));
#140=EDGE_LOOP('',(#705,#706,#707,#708));
#141=EDGE_LOOP('',(#709,#710,#711,#712));
#142=EDGE_LOOP('',(#713,#714,#715,#716));
#143=EDGE_LOOP('',(#717,#718,#719,#720));
#144=EDGE_LOOP('',(#721,#722,#723,#724));
#145=EDGE_LOOP('',(#725,#726,#727,#728));
#146=EDGE_LOOP('',(#729,#730,#731,#732));
#147=EDGE_LOOP('',(#733,#734,#735,#736));
#148=EDGE_LOOP('',(#737,#738,#739,#740));
#149=EDGE_LOOP('',(#741,#742,#743,#744));
#150=EDGE_LOOP('',(#745,#746,#747,#748));
#151=EDGE_LOOP('',(#749,#750,#751,#752));
#152=EDGE_LOOP('',(#753));
#153=EDGE_LOOP('',(#754));
#154=EDGE_LOOP('',(#755));
#155=EDGE_LOOP('',(#756));
#156=EDGE_LOOP('',(#757,#758,#759,#760));
#157=EDGE_LOOP('',(#761,#762,#763,#764));
#158=EDGE_LOOP('',(#765,#766,#767,#768));
#159=EDGE_LOOP('',(#769,#770,#771,#772));
#160=EDGE_LOOP('',(#773,#774,#775,#776));
#161=EDGE_LOOP('',(#777,#778,#779,#780));
#162=EDGE_LOOP('',(#781));
#163=EDGE_LOOP('',(#782));
#164=EDGE_LOOP('',(#783,#784,#785,#786));
#165=LINE('',#1169,#267);
#166=LINE('',#1171,#268);
#167=LINE('',#1173,#269);
#168=LINE('',#1174,#270);
#169=LINE('',#1177,#271);
#170=LINE('',#1179,#272);
#171=LINE('',#1180,#273);
#172=LINE('',#1183,#274);
#173=LINE('',#1185,#275);
#174=LINE('',#1186,#276);
#175=LINE('',#1188,#277);
#176=LINE('',#1189,#278);
#177=LINE('',#1194,#279);
#178=LINE('',#1201,#280);
#179=LINE('',#1208,#281);
#180=LINE('',#1215,#282);
#181=LINE('',#1222,#283);
#182=LINE('',#1229,#284);
#183=LINE('',#1235,#285);
#184=LINE('',#1237,#286);
#185=LINE('',#1239,#287);
#186=LINE('',#1240,#288);
#187=LINE('',#1243,#289);
#188=LINE('',#1245,#290);
#189=LINE('',#1246,#291);
#190=LINE('',#1249,#292);
#191=LINE('',#1251,#293);
#192=LINE('',#1252,#294);
#193=LINE('',#1254,#295);
#194=LINE('',#1255,#296);
#195=LINE('',#1259,#297);
#196=LINE('',#1261,#298);
#197=LINE('',#1263,#299);
#198=LINE('',#1264,#300);
#199=LINE('',#1267,#301);
#200=LINE('',#1269,#302);
#201=LINE('',#1270,#303);
#202=LINE('',#1273,#304);
#203=LINE('',#1275,#305);
#204=LINE('',#1276,#306);
#205=LINE('',#1278,#307);
#206=LINE('',#1279,#308);
#207=LINE('',#1283,#309);
#208=LINE('',#1285,#310);
#209=LINE('',#1287,#311);
#210=LINE('',#1288,#312);
#211=LINE('',#1291,#313);
#212=LINE('',#1293,#314);
#213=LINE('',#1294,#315);
#214=LINE('',#1297,#316);
#215=LINE('',#1299,#317);
#216=LINE('',#1300,#318);
#217=LINE('',#1302,#319);
#218=LINE('',#1303,#320);
#219=LINE('',#1307,#321);
#220=LINE('',#1309,#322);
#221=LINE('',#1311,#323);
#222=LINE('',#1312,#324);
#223=LINE('',#1315,#325);
#224=LINE('',#1317,#326);
#225=LINE('',#1318,#327);
#226=LINE('',#1321,#328);
#227=LINE('',#1323,#329);
#228=LINE('',#1324,#330);
#229=LINE('',#1326,#331);
#230=LINE('',#1327,#332);
#231=LINE('',#1331,#333);
#232=LINE('',#1333,#334);
#233=LINE('',#1335,#335);
#234=LINE('',#1336,#336);
#235=LINE('',#1339,#337);
#236=LINE('',#1341,#338);
#237=LINE('',#1342,#339);
#238=LINE('',#1345,#340);
#239=LINE('',#1347,#341);
#240=LINE('',#1348,#342);
#241=LINE('',#1350,#343);
#242=LINE('',#1351,#344);
#243=LINE('',#1355,#345);
#244=LINE('',#1357,#346);
#245=LINE('',#1359,#347);
#246=LINE('',#1360,#348);
#247=LINE('',#1363,#349);
#248=LINE('',#1365,#350);
#249=LINE('',#1366,#351);
#250=LINE('',#1369,#352);
#251=LINE('',#1371,#353);
#252=LINE('',#1372,#354);
#253=LINE('',#1374,#355);
#254=LINE('',#1375,#356);
#255=LINE('',#1379,#357);
#256=LINE('',#1381,#358);
#257=LINE('',#1383,#359);
#258=LINE('',#1384,#360);
#259=LINE('',#1387,#361);
#260=LINE('',#1389,#362);
#261=LINE('',#1390,#363);
#262=LINE('',#1393,#364);
#263=LINE('',#1395,#365);
#264=LINE('',#1396,#366);
#265=LINE('',#1398,#367);
#266=LINE('',#1399,#368);
#267=VECTOR('',#949,10.);
#268=VECTOR('',#950,10.);
#269=VECTOR('',#951,10.);
#270=VECTOR('',#952,10.);
#271=VECTOR('',#955,10.);
#272=VECTOR('',#956,10.);
#273=VECTOR('',#957,10.);
#274=VECTOR('',#960,10.);
#275=VECTOR('',#961,10.);
#276=VECTOR('',#962,10.);
#277=VECTOR('',#965,10.);
#278=VECTOR('',#966,10.);
#279=VECTOR('',#971,1.49999999999999);
#280=VECTOR('',#980,1.49999999999999);
#281=VECTOR('',#989,1.5);
#282=VECTOR('',#998,1.5);
#283=VECTOR('',#1007,1.5);
#284=VECTOR('',#1016,1.5);
#285=VECTOR('',#1023,10.);
#286=VECTOR('',#1024,10.);
#287=VECTOR('',#1025,10.);
#288=VECTOR('',#1026,10.);
#289=VECTOR('',#1029,10.);
#290=VECTOR('',#1030,10.);
#291=VECTOR('',#1031,10.);
#292=VECTOR('',#1034,10.);
#293=VECTOR('',#1035,10.);
#294=VECTOR('',#1036,10.);
#295=VECTOR('',#1039,10.);
#296=VECTOR('',#1040,10.);
#297=VECTOR('',#1043,10.);
#298=VECTOR('',#1044,10.);
#299=VECTOR('',#1045,10.);
#300=VECTOR('',#1046,10.);
#301=VECTOR('',#1049,10.);
#302=VECTOR('',#1050,10.);
#303=VECTOR('',#1051,10.);
#304=VECTOR('',#1054,10.);
#305=VECTOR('',#1055,10.);
#306=VECTOR('',#1056,10.);
#307=VECTOR('',#1059,10.);
#308=VECTOR('',#1060,10.);
#309=VECTOR('',#1063,10.);
#310=VECTOR('',#1064,10.);
#311=VECTOR('',#1065,10.);
#312=VECTOR('',#1066,10.);
#313=VECTOR('',#1069,10.);
#314=VECTOR('',#1070,10.);
#315=VECTOR('',#1071,10.);
#316=VECTOR('',#1074,10.);
#317=VECTOR('',#1075,10.);
#318=VECTOR('',#1076,10.);
#319=VECTOR('',#1079,10.);
#320=VECTOR('',#1080,10.);
#321=VECTOR('',#1083,10.);
#322=VECTOR('',#1084,10.);
#323=VECTOR('',#1085,10.);
#324=VECTOR('',#1086,10.);
#325=VECTOR('',#1089,10.);
#326=VECTOR('',#1090,10.);
#327=VECTOR('',#1091,10.);
#328=VECTOR('',#1094,10.);
#329=VECTOR('',#1095,10.);
#330=VECTOR('',#1096,10.);
#331=VECTOR('',#1099,10.);
#332=VECTOR('',#1100,10.);
#333=VECTOR('',#1103,10.);
#334=VECTOR('',#1104,10.);
#335=VECTOR('',#1105,10.);
#336=VECTOR('',#1106,10.);
#337=VECTOR('',#1109,10.);
#338=VECTOR('',#1110,10.);
#339=VECTOR('',#1111,10.);
#340=VECTOR('',#1114,10.);
#341=VECTOR('',#1115,10.);
#342=VECTOR('',#1116,10.);
#343=VECTOR('',#1119,10.);
#344=VECTOR('',#1120,10.);
#345=VECTOR('',#1123,10.);
#346=VECTOR('',#1124,10.);
#347=VECTOR('',#1125,10.);
#348=VECTOR('',#1126,10.);
#349=VECTOR('',#1129,10.);
#350=VECTOR('',#1130,10.);
#351=VECTOR('',#1131,10.);
#352=VECTOR('',#1134,10.);
#353=VECTOR('',#1135,10.);
#354=VECTOR('',#1136,10.);
#355=VECTOR('',#1139,10.);
#356=VECTOR('',#1140,10.);
#357=VECTOR('',#1143,10.);
#358=VECTOR('',#1144,10.);
#359=VECTOR('',#1145,10.);
#360=VECTOR('',#1146,10.);
#361=VECTOR('',#1149,10.);
#362=VECTOR('',#1150,10.);
#363=VECTOR('',#1151,10.);
#364=VECTOR('',#1154,10.);
#365=VECTOR('',#1155,10.);
#366=VECTOR('',#1156,10.);
#367=VECTOR('',#1159,10.);
#368=VECTOR('',#1160,10.);
#369=VERTEX_POINT('',#1167);
#370=VERTEX_POINT('',#1168);
#371=VERTEX_POINT('',#1170);
#372=VERTEX_POINT('',#1172);
#373=VERTEX_POINT('',#1176);
#374=VERTEX_POINT('',#1178);
#375=VERTEX_POINT('',#1182);
#376=VERTEX_POINT('',#1184);
#377=VERTEX_POINT('',#1191);
#378=VERTEX_POINT('',#1193);
#379=VERTEX_POINT('',#1198);
#380=VERTEX_POINT('',#1200);
#381=VERTEX_POINT('',#1205);
#382=VERTEX_POINT('',#1207);
#383=VERTEX_POINT('',#1212);
#384=VERTEX_POINT('',#1214);
#385=VERTEX_POINT('',#1219);
#386=VERTEX_POINT('',#1221);
#387=VERTEX_POINT('',#1226);
#388=VERTEX_POINT('',#1228);
#389=VERTEX_POINT('',#1233);
#390=VERTEX_POINT('',#1234);
#391=VERTEX_POINT('',#1236);
#392=VERTEX_POINT('',#1238);
#393=VERTEX_POINT('',#1242);
#394=VERTEX_POINT('',#1244);
#395=VERTEX_POINT('',#1248);
#396=VERTEX_POINT('',#1250);
#397=VERTEX_POINT('',#1257);
#398=VERTEX_POINT('',#1258);
#399=VERTEX_POINT('',#1260);
#400=VERTEX_POINT('',#1262);
#401=VERTEX_POINT('',#1266);
#402=VERTEX_POINT('',#1268);
#403=VERTEX_POINT('',#1272);
#404=VERTEX_POINT('',#1274);
#405=VERTEX_POINT('',#1281);
#406=VERTEX_POINT('',#1282);
#407=VERTEX_POINT('',#1284);
#408=VERTEX_POINT('',#1286);
#409=VERTEX_POINT('',#1290);
#410=VERTEX_POINT('',#1292);
#411=VERTEX_POINT('',#1296);
#412=VERTEX_POINT('',#1298);
#413=VERTEX_POINT('',#1305);
#414=VERTEX_POINT('',#1306);
#415=VERTEX_POINT('',#1308);
#416=VERTEX_POINT('',#1310);
#417=VERTEX_POINT('',#1314);
#418=VERTEX_POINT('',#1316);
#419=VERTEX_POINT('',#1320);
#420=VERTEX_POINT('',#1322);
#421=VERTEX_POINT('',#1329);
#422=VERTEX_POINT('',#1330);
#423=VERTEX_POINT('',#1332);
#424=VERTEX_POINT('',#1334);
#425=VERTEX_POINT('',#1338);
#426=VERTEX_POINT('',#1340);
#427=VERTEX_POINT('',#1344);
#428=VERTEX_POINT('',#1346);
#429=VERTEX_POINT('',#1353);
#430=VERTEX_POINT('',#1354);
#431=VERTEX_POINT('',#1356);
#432=VERTEX_POINT('',#1358);
#433=VERTEX_POINT('',#1362);
#434=VERTEX_POINT('',#1364);
#435=VERTEX_POINT('',#1368);
#436=VERTEX_POINT('',#1370);
#437=VERTEX_POINT('',#1377);
#438=VERTEX_POINT('',#1378);
#439=VERTEX_POINT('',#1380);
#440=VERTEX_POINT('',#1382);
#441=VERTEX_POINT('',#1386);
#442=VERTEX_POINT('',#1388);
#443=VERTEX_POINT('',#1392);
#444=VERTEX_POINT('',#1394);
#445=EDGE_CURVE('',#369,#370,#165,.T.);
#446=EDGE_CURVE('',#369,#371,#166,.T.);
#447=EDGE_CURVE('',#372,#371,#167,.T.);
#448=EDGE_CURVE('',#370,#372,#168,.T.);
#449=EDGE_CURVE('',#373,#369,#169,.T.);
#450=EDGE_CURVE('',#373,#374,#170,.T.);
#451=EDGE_CURVE('',#371,#374,#171,.T.);
#452=EDGE_CURVE('',#375,#373,#172,.T.);
#453=EDGE_CURVE('',#375,#376,#173,.T.);
#454=EDGE_CURVE('',#374,#376,#174,.T.);
#455=EDGE_CURVE('',#370,#375,#175,.T.);
#456=EDGE_CURVE('',#376,#372,#176,.T.);
#457=EDGE_CURVE('',#377,#377,#35,.T.);
#458=EDGE_CURVE('',#377,#378,#177,.T.);
#459=EDGE_CURVE('',#378,#378,#36,.T.);
#460=EDGE_CURVE('',#379,#379,#37,.T.);
#461=EDGE_CURVE('',#379,#380,#178,.T.);
#462=EDGE_CURVE('',#380,#380,#38,.T.);
#463=EDGE_CURVE('',#381,#381,#39,.T.);
#464=EDGE_CURVE('',#381,#382,#179,.T.);
#465=EDGE_CURVE('',#382,#382,#40,.T.);
#466=EDGE_CURVE('',#383,#383,#41,.T.);
#467=EDGE_CURVE('',#383,#384,#180,.T.);
#468=EDGE_CURVE('',#384,#384,#42,.T.);
#469=EDGE_CURVE('',#385,#385,#43,.T.);
#470=EDGE_CURVE('',#385,#386,#181,.T.);
#471=EDGE_CURVE('',#386,#386,#44,.T.);
#472=EDGE_CURVE('',#387,#387,#45,.T.);
#473=EDGE_CURVE('',#387,#388,#182,.T.);
#474=EDGE_CURVE('',#388,#388,#46,.T.);
#475=EDGE_CURVE('',#389,#390,#183,.T.);
#476=EDGE_CURVE('',#390,#391,#184,.T.);
#477=EDGE_CURVE('',#392,#391,#185,.T.);
#478=EDGE_CURVE('',#389,#392,#186,.T.);
#479=EDGE_CURVE('',#393,#389,#187,.T.);
#480=EDGE_CURVE('',#394,#392,#188,.T.);
#481=EDGE_CURVE('',#393,#394,#189,.T.);
#482=EDGE_CURVE('',#395,#393,#190,.T.);
#483=EDGE_CURVE('',#396,#394,#191,.T.);
#484=EDGE_CURVE('',#395,#396,#192,.T.);
#485=EDGE_CURVE('',#390,#395,#193,.T.);
#486=EDGE_CURVE('',#391,#396,#194,.T.);
#487=EDGE_CURVE('',#397,#398,#195,.T.);
#488=EDGE_CURVE('',#398,#399,#196,.T.);
#489=EDGE_CURVE('',#400,#399,#197,.T.);
#490=EDGE_CURVE('',#397,#400,#198,.T.);
#491=EDGE_CURVE('',#401,#397,#199,.T.);
#492=EDGE_CURVE('',#402,#400,#200,.T.);
#493=EDGE_CURVE('',#401,#402,#201,.T.);
#494=EDGE_CURVE('',#403,#401,#202,.T.);
#495=EDGE_CURVE('',#404,#402,#203,.T.);
#496=EDGE_CURVE('',#403,#404,#204,.T.);
#497=EDGE_CURVE('',#398,#403,#205,.T.);
#498=EDGE_CURVE('',#399,#404,#206,.T.);
#499=EDGE_CURVE('',#405,#406,#207,.T.);
#500=EDGE_CURVE('',#406,#407,#208,.T.);
#501=EDGE_CURVE('',#408,#407,#209,.T.);
#502=EDGE_CURVE('',#405,#408,#210,.T.);
#503=EDGE_CURVE('',#409,#405,#211,.T.);
#504=EDGE_CURVE('',#410,#408,#212,.T.);
#505=EDGE_CURVE('',#409,#410,#213,.T.);
#506=EDGE_CURVE('',#411,#409,#214,.T.);
#507=EDGE_CURVE('',#412,#410,#215,.T.);
#508=EDGE_CURVE('',#411,#412,#216,.T.);
#509=EDGE_CURVE('',#406,#411,#217,.T.);
#510=EDGE_CURVE('',#407,#412,#218,.T.);
#511=EDGE_CURVE('',#413,#414,#219,.T.);
#512=EDGE_CURVE('',#414,#415,#220,.T.);
#513=EDGE_CURVE('',#416,#415,#221,.T.);
#514=EDGE_CURVE('',#413,#416,#222,.T.);
#515=EDGE_CURVE('',#417,#413,#223,.T.);
#516=EDGE_CURVE('',#418,#416,#224,.T.);
#517=EDGE_CURVE('',#417,#418,#225,.T.);
#518=EDGE_CURVE('',#419,#417,#226,.T.);
#519=EDGE_CURVE('',#420,#418,#227,.T.);
#520=EDGE_CURVE('',#419,#420,#228,.T.);
#521=EDGE_CURVE('',#414,#419,#229,.T.);
#522=EDGE_CURVE('',#415,#420,#230,.T.);
#523=EDGE_CURVE('',#421,#422,#231,.T.);
#524=EDGE_CURVE('',#422,#423,#232,.T.);
#525=EDGE_CURVE('',#424,#423,#233,.T.);
#526=EDGE_CURVE('',#421,#424,#234,.T.);
#527=EDGE_CURVE('',#425,#421,#235,.T.);
#528=EDGE_CURVE('',#426,#424,#236,.T.);
#529=EDGE_CURVE('',#425,#426,#237,.T.);
#530=EDGE_CURVE('',#427,#425,#238,.T.);
#531=EDGE_CURVE('',#428,#426,#239,.T.);
#532=EDGE_CURVE('',#427,#428,#240,.T.);
#533=EDGE_CURVE('',#422,#427,#241,.T.);
#534=EDGE_CURVE('',#423,#428,#242,.T.);
#535=EDGE_CURVE('',#429,#430,#243,.T.);
#536=EDGE_CURVE('',#430,#431,#244,.T.);
#537=EDGE_CURVE('',#432,#431,#245,.T.);
#538=EDGE_CURVE('',#429,#432,#246,.T.);
#539=EDGE_CURVE('',#433,#429,#247,.T.);
#540=EDGE_CURVE('',#434,#432,#248,.T.);
#541=EDGE_CURVE('',#433,#434,#249,.T.);
#542=EDGE_CURVE('',#435,#433,#250,.T.);
#543=EDGE_CURVE('',#436,#434,#251,.T.);
#544=EDGE_CURVE('',#435,#436,#252,.T.);
#545=EDGE_CURVE('',#430,#435,#253,.T.);
#546=EDGE_CURVE('',#431,#436,#254,.T.);
#547=EDGE_CURVE('',#437,#438,#255,.T.);
#548=EDGE_CURVE('',#437,#439,#256,.T.);
#549=EDGE_CURVE('',#440,#439,#257,.T.);
#550=EDGE_CURVE('',#438,#440,#258,.T.);
#551=EDGE_CURVE('',#438,#441,#259,.T.);
#552=EDGE_CURVE('',#442,#440,#260,.T.);
#553=EDGE_CURVE('',#441,#442,#261,.T.);
#554=EDGE_CURVE('',#441,#443,#262,.T.);
#555=EDGE_CURVE('',#444,#442,#263,.T.);
#556=EDGE_CURVE('',#443,#444,#264,.T.);
#557=EDGE_CURVE('',#443,#437,#265,.T.);
#558=EDGE_CURVE('',#439,#444,#266,.T.);
#559=ORIENTED_EDGE('',*,*,#445,.F.);
#560=ORIENTED_EDGE('',*,*,#446,.T.);
#561=ORIENTED_EDGE('',*,*,#447,.F.);
#562=ORIENTED_EDGE('',*,*,#448,.F.);
#563=ORIENTED_EDGE('',*,*,#449,.F.);
#564=ORIENTED_EDGE('',*,*,#450,.T.);
#565=ORIENTED_EDGE('',*,*,#451,.F.);
#566=ORIENTED_EDGE('',*,*,#446,.F.);
#567=ORIENTED_EDGE('',*,*,#452,.F.);
#568=ORIENTED_EDGE('',*,*,#453,.T.);
#569=ORIENTED_EDGE('',*,*,#454,.F.);
#570=ORIENTED_EDGE('',*,*,#450,.F.);
#571=ORIENTED_EDGE('',*,*,#455,.F.);
#572=ORIENTED_EDGE('',*,*,#448,.T.);
#573=ORIENTED_EDGE('',*,*,#456,.F.);
#574=ORIENTED_EDGE('',*,*,#453,.F.);
#575=ORIENTED_EDGE('',*,*,#457,.F.);
#576=ORIENTED_EDGE('',*,*,#458,.T.);
#577=ORIENTED_EDGE('',*,*,#459,.T.);
#578=ORIENTED_EDGE('',*,*,#458,.F.);
#579=ORIENTED_EDGE('',*,*,#459,.F.);
#580=ORIENTED_EDGE('',*,*,#460,.F.);
#581=ORIENTED_EDGE('',*,*,#461,.T.);
#582=ORIENTED_EDGE('',*,*,#462,.T.);
#583=ORIENTED_EDGE('',*,*,#461,.F.);
#584=ORIENTED_EDGE('',*,*,#462,.F.);
#585=ORIENTED_EDGE('',*,*,#463,.F.);
#586=ORIENTED_EDGE('',*,*,#464,.T.);
#587=ORIENTED_EDGE('',*,*,#465,.T.);
#588=ORIENTED_EDGE('',*,*,#464,.F.);
#589=ORIENTED_EDGE('',*,*,#465,.F.);
#590=ORIENTED_EDGE('',*,*,#466,.F.);
#591=ORIENTED_EDGE('',*,*,#467,.T.);
#592=ORIENTED_EDGE('',*,*,#468,.T.);
#593=ORIENTED_EDGE('',*,*,#467,.F.);
#594=ORIENTED_EDGE('',*,*,#468,.F.);
#595=ORIENTED_EDGE('',*,*,#469,.F.);
#596=ORIENTED_EDGE('',*,*,#470,.T.);
#597=ORIENTED_EDGE('',*,*,#471,.T.);
#598=ORIENTED_EDGE('',*,*,#470,.F.);
#599=ORIENTED_EDGE('',*,*,#471,.F.);
#600=ORIENTED_EDGE('',*,*,#472,.F.);
#601=ORIENTED_EDGE('',*,*,#473,.T.);
#602=ORIENTED_EDGE('',*,*,#474,.T.);
#603=ORIENTED_EDGE('',*,*,#473,.F.);
#604=ORIENTED_EDGE('',*,*,#474,.F.);
#605=ORIENTED_EDGE('',*,*,#475,.T.);
#606=ORIENTED_EDGE('',*,*,#476,.T.);
#607=ORIENTED_EDGE('',*,*,#477,.F.);
#608=ORIENTED_EDGE('',*,*,#478,.F.);
#609=ORIENTED_EDGE('',*,*,#479,.T.);
#610=ORIENTED_EDGE('',*,*,#478,.T.);
#611=ORIENTED_EDGE('',*,*,#480,.F.);
#612=ORIENTED_EDGE('',*,*,#481,.F.);
#613=ORIENTED_EDGE('',*,*,#482,.T.);
#614=ORIENTED_EDGE('',*,*,#481,.T.);
#615=ORIENTED_EDGE('',*,*,#483,.F.);
#616=ORIENTED_EDGE('',*,*,#484,.F.);
#617=ORIENTED_EDGE('',*,*,#485,.T.);
#618=ORIENTED_EDGE('',*,*,#484,.T.);
#619=ORIENTED_EDGE('',*,*,#486,.F.);
#620=ORIENTED_EDGE('',*,*,#476,.F.);
#621=ORIENTED_EDGE('',*,*,#487,.T.);
#622=ORIENTED_EDGE('',*,*,#488,.T.);
#623=ORIENTED_EDGE('',*,*,#489,.F.);
#624=ORIENTED_EDGE('',*,*,#490,.F.);
#625=ORIENTED_EDGE('',*,*,#491,.T.);
#626=ORIENTED_EDGE('',*,*,#490,.T.);
#627=ORIENTED_EDGE('',*,*,#492,.F.);
#628=ORIENTED_EDGE('',*,*,#493,.F.);
#629=ORIENTED_EDGE('',*,*,#494,.T.);
#630=ORIENTED_EDGE('',*,*,#493,.T.);
#631=ORIENTED_EDGE('',*,*,#495,.F.);
#632=ORIENTED_EDGE('',*,*,#496,.F.);
#633=ORIENTED_EDGE('',*,*,#497,.T.);
#634=ORIENTED_EDGE('',*,*,#496,.T.);
#635=ORIENTED_EDGE('',*,*,#498,.F.);
#636=ORIENTED_EDGE('',*,*,#488,.F.);
#637=ORIENTED_EDGE('',*,*,#499,.T.);
#638=ORIENTED_EDGE('',*,*,#500,.T.);
#639=ORIENTED_EDGE('',*,*,#501,.F.);
#640=ORIENTED_EDGE('',*,*,#502,.F.);
#641=ORIENTED_EDGE('',*,*,#503,.T.);
#642=ORIENTED_EDGE('',*,*,#502,.T.);
#643=ORIENTED_EDGE('',*,*,#504,.F.);
#644=ORIENTED_EDGE('',*,*,#505,.F.);
#645=ORIENTED_EDGE('',*,*,#506,.T.);
#646=ORIENTED_EDGE('',*,*,#505,.T.);
#647=ORIENTED_EDGE('',*,*,#507,.F.);
#648=ORIENTED_EDGE('',*,*,#508,.F.);
#649=ORIENTED_EDGE('',*,*,#509,.T.);
#650=ORIENTED_EDGE('',*,*,#508,.T.);
#651=ORIENTED_EDGE('',*,*,#510,.F.);
#652=ORIENTED_EDGE('',*,*,#500,.F.);
#653=ORIENTED_EDGE('',*,*,#511,.T.);
#654=ORIENTED_EDGE('',*,*,#512,.T.);
#655=ORIENTED_EDGE('',*,*,#513,.F.);
#656=ORIENTED_EDGE('',*,*,#514,.F.);
#657=ORIENTED_EDGE('',*,*,#515,.T.);
#658=ORIENTED_EDGE('',*,*,#514,.T.);
#659=ORIENTED_EDGE('',*,*,#516,.F.);
#660=ORIENTED_EDGE('',*,*,#517,.F.);
#661=ORIENTED_EDGE('',*,*,#518,.T.);
#662=ORIENTED_EDGE('',*,*,#517,.T.);
#663=ORIENTED_EDGE('',*,*,#519,.F.);
#664=ORIENTED_EDGE('',*,*,#520,.F.);
#665=ORIENTED_EDGE('',*,*,#521,.T.);
#666=ORIENTED_EDGE('',*,*,#520,.T.);
#667=ORIENTED_EDGE('',*,*,#522,.F.);
#668=ORIENTED_EDGE('',*,*,#512,.F.);
#669=ORIENTED_EDGE('',*,*,#523,.T.);
#670=ORIENTED_EDGE('',*,*,#524,.T.);
#671=ORIENTED_EDGE('',*,*,#525,.F.);
#672=ORIENTED_EDGE('',*,*,#526,.F.);
#673=ORIENTED_EDGE('',*,*,#527,.T.);
#674=ORIENTED_EDGE('',*,*,#526,.T.);
#675=ORIENTED_EDGE('',*,*,#528,.F.);
#676=ORIENTED_EDGE('',*,*,#529,.F.);
#677=ORIENTED_EDGE('',*,*,#530,.T.);
#678=ORIENTED_EDGE('',*,*,#529,.T.);
#679=ORIENTED_EDGE('',*,*,#531,.F.);
#680=ORIENTED_EDGE('',*,*,#532,.F.);
#681=ORIENTED_EDGE('',*,*,#533,.T.);
#682=ORIENTED_EDGE('',*,*,#532,.T.);
#683=ORIENTED_EDGE('',*,*,#534,.F.);
#684=ORIENTED_EDGE('',*,*,#524,.F.);
#685=ORIENTED_EDGE('',*,*,#535,.T.);
#686=ORIENTED_EDGE('',*,*,#536,.T.);
#687=ORIENTED_EDGE('',*,*,#537,.F.);
#688=ORIENTED_EDGE('',*,*,#538,.F.);
#689=ORIENTED_EDGE('',*,*,#539,.T.);
#690=ORIENTED_EDGE('',*,*,#538,.T.);
#691=ORIENTED_EDGE('',*,*,#540,.F.);
#692=ORIENTED_EDGE('',*,*,#541,.F.);
#693=ORIENTED_EDGE('',*,*,#542,.T.);
#694=ORIENTED_EDGE('',*,*,#541,.T.);
#695=ORIENTED_EDGE('',*,*,#543,.F.);
#696=ORIENTED_EDGE('',*,*,#544,.F.);
#697=ORIENTED_EDGE('',*,*,#545,.T.);
#698=ORIENTED_EDGE('',*,*,#544,.T.);
#699=ORIENTED_EDGE('',*,*,#546,.F.);
#700=ORIENTED_EDGE('',*,*,#536,.F.);
#701=ORIENTED_EDGE('',*,*,#547,.F.);
#702=ORIENTED_EDGE('',*,*,#548,.T.);
#703=ORIENTED_EDGE('',*,*,#549,.F.);
#704=ORIENTED_EDGE('',*,*,#550,.F.);
#705=ORIENTED_EDGE('',*,*,#551,.F.);
#706=ORIENTED_EDGE('',*,*,#550,.T.);
#707=ORIENTED_EDGE('',*,*,#552,.F.);
#708=ORIENTED_EDGE('',*,*,#553,.F.);
#709=ORIENTED_EDGE('',*,*,#554,.F.);
#710=ORIENTED_EDGE('',*,*,#553,.T.);
#711=ORIENTED_EDGE('',*,*,#555,.F.);
#712=ORIENTED_EDGE('',*,*,#556,.F.);
#713=ORIENTED_EDGE('',*,*,#557,.F.);
#714=ORIENTED_EDGE('',*,*,#556,.T.);
#715=ORIENTED_EDGE('',*,*,#558,.F.);
#716=ORIENTED_EDGE('',*,*,#548,.F.);
#717=ORIENTED_EDGE('',*,*,#558,.T.);
#718=ORIENTED_EDGE('',*,*,#555,.T.);
#719=ORIENTED_EDGE('',*,*,#552,.T.);
#720=ORIENTED_EDGE('',*,*,#549,.T.);
#721=ORIENTED_EDGE('',*,*,#447,.T.);
#722=ORIENTED_EDGE('',*,*,#451,.T.);
#723=ORIENTED_EDGE('',*,*,#454,.T.);
#724=ORIENTED_EDGE('',*,*,#456,.T.);
#725=ORIENTED_EDGE('',*,*,#546,.T.);
#726=ORIENTED_EDGE('',*,*,#543,.T.);
#727=ORIENTED_EDGE('',*,*,#540,.T.);
#728=ORIENTED_EDGE('',*,*,#537,.T.);
#729=ORIENTED_EDGE('',*,*,#534,.T.);
#730=ORIENTED_EDGE('',*,*,#531,.T.);
#731=ORIENTED_EDGE('',*,*,#528,.T.);
#732=ORIENTED_EDGE('',*,*,#525,.T.);
#733=ORIENTED_EDGE('',*,*,#522,.T.);
#734=ORIENTED_EDGE('',*,*,#519,.T.);
#735=ORIENTED_EDGE('',*,*,#516,.T.);
#736=ORIENTED_EDGE('',*,*,#513,.T.);
#737=ORIENTED_EDGE('',*,*,#510,.T.);
#738=ORIENTED_EDGE('',*,*,#507,.T.);
#739=ORIENTED_EDGE('',*,*,#504,.T.);
#740=ORIENTED_EDGE('',*,*,#501,.T.);
#741=ORIENTED_EDGE('',*,*,#498,.T.);
#742=ORIENTED_EDGE('',*,*,#495,.T.);
#743=ORIENTED_EDGE('',*,*,#492,.T.);
#744=ORIENTED_EDGE('',*,*,#489,.T.);
#745=ORIENTED_EDGE('',*,*,#486,.T.);
#746=ORIENTED_EDGE('',*,*,#483,.T.);
#747=ORIENTED_EDGE('',*,*,#480,.T.);
#748=ORIENTED_EDGE('',*,*,#477,.T.);
#749=ORIENTED_EDGE('',*,*,#557,.T.);
#750=ORIENTED_EDGE('',*,*,#547,.T.);
#751=ORIENTED_EDGE('',*,*,#551,.T.);
#752=ORIENTED_EDGE('',*,*,#554,.T.);
#753=ORIENTED_EDGE('',*,*,#457,.T.);
#754=ORIENTED_EDGE('',*,*,#463,.T.);
#755=ORIENTED_EDGE('',*,*,#469,.T.);
#756=ORIENTED_EDGE('',*,*,#472,.T.);
#757=ORIENTED_EDGE('',*,*,#545,.F.);
#758=ORIENTED_EDGE('',*,*,#535,.F.);
#759=ORIENTED_EDGE('',*,*,#539,.F.);
#760=ORIENTED_EDGE('',*,*,#542,.F.);
#761=ORIENTED_EDGE('',*,*,#533,.F.);
#762=ORIENTED_EDGE('',*,*,#523,.F.);
#763=ORIENTED_EDGE('',*,*,#527,.F.);
#764=ORIENTED_EDGE('',*,*,#530,.F.);
#765=ORIENTED_EDGE('',*,*,#521,.F.);
#766=ORIENTED_EDGE('',*,*,#511,.F.);
#767=ORIENTED_EDGE('',*,*,#515,.F.);
#768=ORIENTED_EDGE('',*,*,#518,.F.);
#769=ORIENTED_EDGE('',*,*,#509,.F.);
#770=ORIENTED_EDGE('',*,*,#499,.F.);
#771=ORIENTED_EDGE('',*,*,#503,.F.);
#772=ORIENTED_EDGE('',*,*,#506,.F.);
#773=ORIENTED_EDGE('',*,*,#497,.F.);
#774=ORIENTED_EDGE('',*,*,#487,.F.);
#775=ORIENTED_EDGE('',*,*,#491,.F.);
#776=ORIENTED_EDGE('',*,*,#494,.F.);
#777=ORIENTED_EDGE('',*,*,#485,.F.);
#778=ORIENTED_EDGE('',*,*,#475,.F.);
#779=ORIENTED_EDGE('',*,*,#479,.F.);
#780=ORIENTED_EDGE('',*,*,#482,.F.);
#781=ORIENTED_EDGE('',*,*,#466,.T.);
#782=ORIENTED_EDGE('',*,*,#460,.T.);
#783=ORIENTED_EDGE('',*,*,#445,.T.);
#784=ORIENTED_EDGE('',*,*,#455,.T.);
#785=ORIENTED_EDGE('',*,*,#452,.T.);
#786=ORIENTED_EDGE('',*,*,#449,.T.);
#787=PLANE('',#887);
#788=PLANE('',#888);
#789=PLANE('',#889);
#790=PLANE('',#890);
#791=PLANE('',#894);
#792=PLANE('',#898);
#793=PLANE('',#902);
#794=PLANE('',#906);
#795=PLANE('',#910);
#796=PLANE('',#914);
#797=PLANE('',#915);
#798=PLANE('',#916);
#799=PLANE('',#917);
#800=PLANE('',#918);
#801=PLANE('',#919);
#802=PLANE('',#920);
#803=PLANE('',#921);
#804=PLANE('',#922);
#805=PLANE('',#923);
#806=PLANE('',#924);
#807=PLANE('',#925);
#808=PLANE('',#926);
#809=PLANE('',#927);
#810=PLANE('',#928);
#811=PLANE('',#929);
#812=PLANE('',#930);
#813=PLANE('',#931);
#814=PLANE('',#932);
#815=PLANE('',#933);
#816=PLANE('',#934);
#817=PLANE('',#935);
#818=PLANE('',#936);
#819=PLANE('',#937);
#820=PLANE('',#938);
#821=PLANE('',#939);
#822=PLANE('',#940);
#823=PLANE('',#941);
#824=PLANE('',#942);
#825=PLANE('',#943);
#826=PLANE('',#944);
#827=ADVANCED_FACE('',(#53),#787,.F.);
#828=ADVANCED_FACE('',(#54),#788,.F.);
#829=ADVANCED_FACE('',(#55),#789,.F.);
#830=ADVANCED_FACE('',(#56),#790,.F.);
#831=ADVANCED_FACE('',(#57),#47,.F.);
#832=ADVANCED_FACE('',(#58),#791,.F.);
#833=ADVANCED_FACE('',(#59),#48,.F.);
#834=ADVANCED_FACE('',(#60),#792,.F.);
#835=ADVANCED_FACE('',(#61),#49,.F.);
#836=ADVANCED_FACE('',(#62),#793,.F.);
#837=ADVANCED_FACE('',(#63),#50,.F.);
#838=ADVANCED_FACE('',(#64),#794,.F.);
#839=ADVANCED_FACE('',(#65),#51,.F.);
#840=ADVANCED_FACE('',(#66),#795,.F.);
#841=ADVANCED_FACE('',(#67),#52,.F.);
#842=ADVANCED_FACE('',(#68),#796,.F.);
#843=ADVANCED_FACE('',(#69),#797,.T.);
#844=ADVANCED_FACE('',(#70),#798,.T.);
#845=ADVANCED_FACE('',(#71),#799,.T.);
#846=ADVANCED_FACE('',(#72),#800,.T.);
#847=ADVANCED_FACE('',(#73),#801,.T.);
#848=ADVANCED_FACE('',(#74),#802,.T.);
#849=ADVANCED_FACE('',(#75),#803,.T.);
#850=ADVANCED_FACE('',(#76),#804,.T.);
#851=ADVANCED_FACE('',(#77),#805,.T.);
#852=ADVANCED_FACE('',(#78),#806,.T.);
#853=ADVANCED_FACE('',(#79),#807,.T.);
#854=ADVANCED_FACE('',(#80),#808,.T.);
#855=ADVANCED_FACE('',(#81),#809,.T.);
#856=ADVANCED_FACE('',(#82),#810,.T.);
#857=ADVANCED_FACE('',(#83),#811,.T.);
#858=ADVANCED_FACE('',(#84),#812,.T.);
#859=ADVANCED_FACE('',(#85),#813,.T.);
#860=ADVANCED_FACE('',(#86),#814,.T.);
#861=ADVANCED_FACE('',(#87),#815,.T.);
#862=ADVANCED_FACE('',(#88),#816,.T.);
#863=ADVANCED_FACE('',(#89),#817,.T.);
#864=ADVANCED_FACE('',(#90),#818,.T.);
#865=ADVANCED_FACE('',(#91),#819,.T.);
#866=ADVANCED_FACE('',(#92),#820,.T.);
#867=ADVANCED_FACE('',(#93),#821,.T.);
#868=ADVANCED_FACE('',(#94),#822,.T.);
#869=ADVANCED_FACE('',(#95),#823,.T.);
#870=ADVANCED_FACE('',(#96),#824,.T.);
#871=ADVANCED_FACE('',(#97,#15,#16,#17,#18,#19,#20,#21),#825,.T.);
#872=ADVANCED_FACE('',(#98,#22,#23,#24,#25,#26,#27,#28,#29,#30,#31,#32,
#33,#34),#826,.F.);
#873=CLOSED_SHELL('',(#827,#828,#829,#830,#831,#832,#833,#834,#835,#836,
#837,#838,#839,#840,#841,#842,#843,#844,#845,#846,#847,#848,#849,#850,#851,
#852,#853,#854,#855,#856,#857,#858,#859,#860,#861,#862,#863,#864,#865,#866,
#867,#868,#869,#870,#871,#872));
#874=DERIVED_UNIT_ELEMENT(#876,1.);
#875=DERIVED_UNIT_ELEMENT(#1407,-3.);
#876=(
MASS_UNIT()
NAMED_UNIT(*)
SI_UNIT(.KILO.,.GRAM.)
);
#877=DERIVED_UNIT((#874,#875));
#878=MEASURE_REPRESENTATION_ITEM('density measure',
POSITIVE_RATIO_MEASURE(7850.),#877);
#879=PROPERTY_DEFINITION_REPRESENTATION(#884,#881);
#880=PROPERTY_DEFINITION_REPRESENTATION(#885,#882);
#881=REPRESENTATION('material name',(#883),#1404);
#882=REPRESENTATION('density',(#878),#1404);
#883=DESCRIPTIVE_REPRESENTATION_ITEM('Steel','Steel');
#884=PROPERTY_DEFINITION('material property','material name',#1414);
#885=PROPERTY_DEFINITION('material property','density of part',#1414);
#886=AXIS2_PLACEMENT_3D('',#1165,#945,#946);
#887=AXIS2_PLACEMENT_3D('',#1166,#947,#948);
#888=AXIS2_PLACEMENT_3D('',#1175,#953,#954);
#889=AXIS2_PLACEMENT_3D('',#1181,#958,#959);
#890=AXIS2_PLACEMENT_3D('',#1187,#963,#964);
#891=AXIS2_PLACEMENT_3D('',#1190,#967,#968);
#892=AXIS2_PLACEMENT_3D('',#1192,#969,#970);
#893=AXIS2_PLACEMENT_3D('',#1195,#972,#973);
#894=AXIS2_PLACEMENT_3D('',#1196,#974,#975);
#895=AXIS2_PLACEMENT_3D('',#1197,#976,#977);
#896=AXIS2_PLACEMENT_3D('',#1199,#978,#979);
#897=AXIS2_PLACEMENT_3D('',#1202,#981,#982);
#898=AXIS2_PLACEMENT_3D('',#1203,#983,#984);
#899=AXIS2_PLACEMENT_3D('',#1204,#985,#986);
#900=AXIS2_PLACEMENT_3D('',#1206,#987,#988);
#901=AXIS2_PLACEMENT_3D('',#1209,#990,#991);
#902=AXIS2_PLACEMENT_3D('',#1210,#992,#993);
#903=AXIS2_PLACEMENT_3D('',#1211,#994,#995);
#904=AXIS2_PLACEMENT_3D('',#1213,#996,#997);
#905=AXIS2_PLACEMENT_3D('',#1216,#999,#1000);
#906=AXIS2_PLACEMENT_3D('',#1217,#1001,#1002);
#907=AXIS2_PLACEMENT_3D('',#1218,#1003,#1004);
#908=AXIS2_PLACEMENT_3D('',#1220,#1005,#1006);
#909=AXIS2_PLACEMENT_3D('',#1223,#1008,#1009);
#910=AXIS2_PLACEMENT_3D('',#1224,#1010,#1011);
#911=AXIS2_PLACEMENT_3D('',#1225,#1012,#1013);
#912=AXIS2_PLACEMENT_3D('',#1227,#1014,#1015);
#913=AXIS2_PLACEMENT_3D('',#1230,#1017,#1018);
#914=AXIS2_PLACEMENT_3D('',#1231,#1019,#1020);
#915=AXIS2_PLACEMENT_3D('',#1232,#1021,#1022);
#916=AXIS2_PLACEMENT_3D('',#1241,#1027,#1028);
#917=AXIS2_PLACEMENT_3D('',#1247,#1032,#1033);
#918=AXIS2_PLACEMENT_3D('',#1253,#1037,#1038);
#919=AXIS2_PLACEMENT_3D('',#1256,#1041,#1042);
#920=AXIS2_PLACEMENT_3D('',#1265,#1047,#1048);
#921=AXIS2_PLACEMENT_3D('',#1271,#1052,#1053);
#922=AXIS2_PLACEMENT_3D('',#1277,#1057,#1058);
#923=AXIS2_PLACEMENT_3D('',#1280,#1061,#1062);
#924=AXIS2_PLACEMENT_3D('',#1289,#1067,#1068);
#925=AXIS2_PLACEMENT_3D('',#1295,#1072,#1073);
#926=AXIS2_PLACEMENT_3D('',#1301,#1077,#1078);
#927=AXIS2_PLACEMENT_3D('',#1304,#1081,#1082);
#928=AXIS2_PLACEMENT_3D('',#1313,#1087,#1088);
#929=AXIS2_PLACEMENT_3D('',#1319,#1092,#1093);
#930=AXIS2_PLACEMENT_3D('',#1325,#1097,#1098);
#931=AXIS2_PLACEMENT_3D('',#1328,#1101,#1102);
#932=AXIS2_PLACEMENT_3D('',#1337,#1107,#1108);
#933=AXIS2_PLACEMENT_3D('',#1343,#1112,#1113);
#934=AXIS2_PLACEMENT_3D('',#1349,#1117,#1118);
#935=AXIS2_PLACEMENT_3D('',#1352,#1121,#1122);
#936=AXIS2_PLACEMENT_3D('',#1361,#1127,#1128);
#937=AXIS2_PLACEMENT_3D('',#1367,#1132,#1133);
#938=AXIS2_PLACEMENT_3D('',#1373,#1137,#1138);
#939=AXIS2_PLACEMENT_3D('',#1376,#1141,#1142);
#940=AXIS2_PLACEMENT_3D('',#1385,#1147,#1148);
#941=AXIS2_PLACEMENT_3D('',#1391,#1152,#1153);
#942=AXIS2_PLACEMENT_3D('',#1397,#1157,#1158);
#943=AXIS2_PLACEMENT_3D('',#1400,#1161,#1162);
#944=AXIS2_PLACEMENT_3D('',#1401,#1163,#1164);
#945=DIRECTION('axis',(0.,0.,1.));
#946=DIRECTION('refdir',(1.,0.,0.));
#947=DIRECTION('center_axis',(-1.,0.,0.));
#948=DIRECTION('ref_axis',(0.,-1.,0.));
#949=DIRECTION('',(0.,-1.,0.));
#950=DIRECTION('',(0.,0.,1.));
#951=DIRECTION('',(0.,1.,0.));
#952=DIRECTION('',(0.,0.,1.));
#953=DIRECTION('center_axis',(0.,1.,0.));
#954=DIRECTION('ref_axis',(-1.,0.,0.));
#955=DIRECTION('',(-1.,0.,0.));
#956=DIRECTION('',(0.,0.,1.));
#957=DIRECTION('',(1.,0.,0.));
#958=DIRECTION('center_axis',(1.,0.,0.));
#959=DIRECTION('ref_axis',(0.,1.,0.));
#960=DIRECTION('',(0.,1.,0.));
#961=DIRECTION('',(0.,0.,1.));
#962=DIRECTION('',(0.,-1.,0.));
#963=DIRECTION('center_axis',(0.,-1.,0.));
#964=DIRECTION('ref_axis',(1.,0.,0.));
#965=DIRECTION('',(1.,0.,0.));
#966=DIRECTION('',(-1.,0.,0.));
#967=DIRECTION('center_axis',(0.,0.,1.));
#968=DIRECTION('ref_axis',(1.,0.,0.));
#969=DIRECTION('center_axis',(0.,0.,1.));
#970=DIRECTION('ref_axis',(1.,0.,0.));
#971=DIRECTION('',(0.,0.,1.));
#972=DIRECTION('center_axis',(0.,0.,1.));
#973=DIRECTION('ref_axis',(1.,0.,0.));
#974=DIRECTION('center_axis',(0.,0.,1.));
#975=DIRECTION('ref_axis',(1.,0.,0.));
#976=DIRECTION('center_axis',(0.,0.,1.));
#977=DIRECTION('ref_axis',(1.,0.,0.));
#978=DIRECTION('center_axis',(0.,0.,1.));
#979=DIRECTION('ref_axis',(1.,0.,0.));
#980=DIRECTION('',(0.,0.,1.));
#981=DIRECTION('center_axis',(0.,0.,1.));
#982=DIRECTION('ref_axis',(1.,0.,0.));
#983=DIRECTION('center_axis',(0.,0.,1.));
#984=DIRECTION('ref_axis',(1.,0.,0.));
#985=DIRECTION('center_axis',(0.,0.,1.));
#986=DIRECTION('ref_axis',(1.,0.,0.));
#987=DIRECTION('center_axis',(0.,0.,1.));
#988=DIRECTION('ref_axis',(1.,0.,0.));
#989=DIRECTION('',(0.,0.,1.));
#990=DIRECTION('center_axis',(0.,0.,1.));
#991=DIRECTION('ref_axis',(1.,0.,0.));
#992=DIRECTION('center_axis',(0.,0.,1.));
#993=DIRECTION('ref_axis',(1.,0.,0.));
#994=DIRECTION('center_axis',(0.,0.,1.));
#995=DIRECTION('ref_axis',(1.,0.,0.));
#996=DIRECTION('center_axis',(0.,0.,1.));
#997=DIRECTION('ref_axis',(1.,0.,0.));
#998=DIRECTION('',(0.,0.,1.));
#999=DIRECTION('center_axis',(0.,0.,1.));
#1000=DIRECTION('ref_axis',(1.,0.,0.));
#1001=DIRECTION('center_axis',(0.,0.,1.));
#1002=DIRECTION('ref_axis',(1.,0.,0.));
#1003=DIRECTION('center_axis',(0.,0.,1.));
#1004=DIRECTION('ref_axis',(1.,0.,0.));
#1005=DIRECTION('center_axis',(0.,0.,1.));
#1006=DIRECTION('ref_axis',(1.,0.,0.));
#1007=DIRECTION('',(0.,0.,1.));
#1008=DIRECTION('center_axis',(0.,0.,1.));
#1009=DIRECTION('ref_axis',(1.,0.,0.));
#1010=DIRECTION('center_axis',(0.,0.,1.));
#1011=DIRECTION('ref_axis',(1.,0.,0.));
#1012=DIRECTION('center_axis',(0.,0.,1.));
#1013=DIRECTION('ref_axis',(1.,0.,0.));
#1014=DIRECTION('center_axis',(0.,0.,1.));
#1015=DIRECTION('ref_axis',(1.,0.,0.));
#1016=DIRECTION('',(0.,0.,1.));
#1017=DIRECTION('center_axis',(0.,0.,1.));
#1018=DIRECTION('ref_axis',(1.,0.,0.));
#1019=DIRECTION('center_axis',(0.,0.,1.));
#1020=DIRECTION('ref_axis',(1.,0.,0.));
#1021=DIRECTION('center_axis',(-1.,0.,0.));
#1022=DIRECTION('ref_axis',(0.,-1.,0.));
#1023=DIRECTION('',(0.,-1.,0.));
#1024=DIRECTION('',(0.,0.,1.));
#1025=DIRECTION('',(0.,-1.,0.));
#1026=DIRECTION('',(0.,0.,1.));
#1027=DIRECTION('center_axis',(0.,-1.,0.));
#1028=DIRECTION('ref_axis',(1.,0.,0.));
#1029=DIRECTION('',(1.,0.,0.));
#1030=DIRECTION('',(1.,0.,0.));
#1031=DIRECTION('',(0.,0.,1.));
#1032=DIRECTION('center_axis',(1.,0.,0.));
#1033=DIRECTION('ref_axis',(0.,1.,0.));
#1034=DIRECTION('',(0.,1.,0.));
#1035=DIRECTION('',(0.,1.,0.));
#1036=DIRECTION('',(0.,0.,1.));
#1037=DIRECTION('center_axis',(0.,1.,0.));
#1038=DIRECTION('ref_axis',(-1.,0.,0.));
#1039=DIRECTION('',(-1.,0.,0.));
#1040=DIRECTION('',(-1.,0.,0.));
#1041=DIRECTION('center_axis',(-1.,0.,0.));
#1042=DIRECTION('ref_axis',(0.,-1.,0.));
#1043=DIRECTION('',(0.,-1.,0.));
#1044=DIRECTION('',(0.,0.,1.));
#1045=DIRECTION('',(0.,-1.,0.));
#1046=DIRECTION('',(0.,0.,1.));
#1047=DIRECTION('center_axis',(0.,-1.,0.));
#1048=DIRECTION('ref_axis',(1.,0.,0.));
#1049=DIRECTION('',(1.,0.,0.));
#1050=DIRECTION('',(1.,0.,0.));
#1051=DIRECTION('',(0.,0.,1.));
#1052=DIRECTION('center_axis',(1.,0.,0.));
#1053=DIRECTION('ref_axis',(0.,1.,0.));
#1054=DIRECTION('',(0.,1.,0.));
#1055=DIRECTION('',(0.,1.,0.));
#1056=DIRECTION('',(0.,0.,1.));
#1057=DIRECTION('center_axis',(0.,1.,0.));
#1058=DIRECTION('ref_axis',(-1.,0.,0.));
#1059=DIRECTION('',(-1.,0.,0.));
#1060=DIRECTION('',(-1.,0.,0.));
#1061=DIRECTION('center_axis',(-1.,0.,0.));
#1062=DIRECTION('ref_axis',(0.,-1.,0.));
#1063=DIRECTION('',(0.,-1.,0.));
#1064=DIRECTION('',(0.,0.,1.));
#1065=DIRECTION('',(0.,-1.,0.));
#1066=DIRECTION('',(0.,0.,1.));
#1067=DIRECTION('center_axis',(0.,-1.,0.));
#1068=DIRECTION('ref_axis',(1.,0.,0.));
#1069=DIRECTION('',(1.,0.,0.));
#1070=DIRECTION('',(1.,0.,0.));
#1071=DIRECTION('',(0.,0.,1.));
#1072=DIRECTION('center_axis',(1.,0.,0.));
#1073=DIRECTION('ref_axis',(0.,1.,0.));
#1074=DIRECTION('',(0.,1.,0.));
#1075=DIRECTION('',(0.,1.,0.));
#1076=DIRECTION('',(0.,0.,1.));
#1077=DIRECTION('center_axis',(0.,1.,0.));
#1078=DIRECTION('ref_axis',(-1.,0.,0.));
#1079=DIRECTION('',(-1.,0.,0.));
#1080=DIRECTION('',(-1.,0.,0.));
#1081=DIRECTION('center_axis',(-1.,0.,0.));
#1082=DIRECTION('ref_axis',(0.,-1.,0.));
#1083=DIRECTION('',(0.,-1.,0.));
#1084=DIRECTION('',(0.,0.,1.));
#1085=DIRECTION('',(0.,-1.,0.));
#1086=DIRECTION('',(0.,0.,1.));
#1087=DIRECTION('center_axis',(0.,-1.,0.));
#1088=DIRECTION('ref_axis',(1.,0.,0.));
#1089=DIRECTION('',(1.,0.,0.));
#1090=DIRECTION('',(1.,0.,0.));
#1091=DIRECTION('',(0.,0.,1.));
#1092=DIRECTION('center_axis',(1.,0.,0.));
#1093=DIRECTION('ref_axis',(0.,1.,0.));
#1094=DIRECTION('',(0.,1.,0.));
#1095=DIRECTION('',(0.,1.,0.));
#1096=DIRECTION('',(0.,0.,1.));
#1097=DIRECTION('center_axis',(0.,1.,0.));
#1098=DIRECTION('ref_axis',(-1.,0.,0.));
#1099=DIRECTION('',(-1.,0.,0.));
#1100=DIRECTION('',(-1.,0.,0.));
#1101=DIRECTION('center_axis',(-1.,0.,0.));
#1102=DIRECTION('ref_axis',(0.,-1.,0.));
#1103=DIRECTION('',(0.,-1.,0.));
#1104=DIRECTION('',(0.,0.,1.));
#1105=DIRECTION('',(0.,-1.,0.));
#1106=DIRECTION('',(0.,0.,1.));
#1107=DIRECTION('center_axis',(0.,-1.,0.));
#1108=DIRECTION('ref_axis',(1.,0.,0.));
#1109=DIRECTION('',(1.,0.,0.));
#1110=DIRECTION('',(1.,0.,0.));
#1111=DIRECTION('',(0.,0.,1.));
#1112=DIRECTION('center_axis',(1.,0.,0.));
#1113=DIRECTION('ref_axis',(0.,1.,0.));
#1114=DIRECTION('',(0.,1.,0.));
#1115=DIRECTION('',(0.,1.,0.));
#1116=DIRECTION('',(0.,0.,1.));
#1117=DIRECTION('center_axis',(0.,1.,0.));
#1118=DIRECTION('ref_axis',(-1.,0.,0.));
#1119=DIRECTION('',(-1.,0.,0.));
#1120=DIRECTION('',(-1.,0.,0.));
#1121=DIRECTION('center_axis',(-1.,0.,0.));
#1122=DIRECTION('ref_axis',(0.,-1.,0.));
#1123=DIRECTION('',(0.,-1.,0.));
#1124=DIRECTION('',(0.,0.,1.));
#1125=DIRECTION('',(0.,-1.,0.));
#1126=DIRECTION('',(0.,0.,1.));
#1127=DIRECTION('center_axis',(0.,-1.,0.));
#1128=DIRECTION('ref_axis',(1.,0.,0.));
#1129=DIRECTION('',(1.,0.,0.));
#1130=DIRECTION('',(1.,0.,0.));
#1131=DIRECTION('',(0.,0.,1.));
#1132=DIRECTION('center_axis',(1.,0.,0.));
#1133=DIRECTION('ref_axis',(0.,1.,0.));
#1134=DIRECTION('',(0.,1.,0.));
#1135=DIRECTION('',(0.,1.,0.));
#1136=DIRECTION('',(0.,0.,1.));
#1137=DIRECTION('center_axis',(0.,1.,0.));
#1138=DIRECTION('ref_axis',(-1.,0.,0.));
#1139=DIRECTION('',(-1.,0.,0.));
#1140=DIRECTION('',(-1.,0.,0.));
#1141=DIRECTION('center_axis',(-1.,0.,0.));
#1142=DIRECTION('ref_axis',(0.,-1.,0.));
#1143=DIRECTION('',(0.,1.,0.));
#1144=DIRECTION('',(0.,0.,1.));
#1145=DIRECTION('',(0.,-1.,0.));
#1146=DIRECTION('',(0.,0.,1.));
#1147=DIRECTION('center_axis',(0.,1.,0.));
#1148=DIRECTION('ref_axis',(-1.,0.,0.));
#1149=DIRECTION('',(1.,0.,0.));
#1150=DIRECTION('',(-1.,0.,0.));
#1151=DIRECTION('',(0.,0.,1.));
#1152=DIRECTION('center_axis',(1.,0.,0.));
#1153=DIRECTION('ref_axis',(0.,1.,0.));
#1154=DIRECTION('',(0.,-1.,0.));
#1155=DIRECTION('',(0.,1.,0.));
#1156=DIRECTION('',(0.,0.,1.));
#1157=DIRECTION('center_axis',(0.,-1.,0.));
#1158=DIRECTION('ref_axis',(1.,0.,0.));
#1159=DIRECTION('',(-1.,0.,0.));
#1160=DIRECTION('',(1.,0.,0.));
#1161=DIRECTION('center_axis',(0.,0.,1.));
#1162=DIRECTION('ref_axis',(1.,0.,0.));
#1163=DIRECTION('center_axis',(0.,0.,1.));
#1164=DIRECTION('ref_axis',(1.,0.,0.));
#1165=CARTESIAN_POINT('',(0.,0.,0.));
#1166=CARTESIAN_POINT('Origin',(-55.9725635463881,33.0175285688781,0.));
#1167=CARTESIAN_POINT('',(-55.9725635463881,33.0175285688781,0.));
#1168=CARTESIAN_POINT('',(-55.9725635463881,-3.98247143112192,0.));
#1169=CARTESIAN_POINT('',(-55.9725635463881,22.0175285688781,0.));
#1170=CARTESIAN_POINT('',(-55.9725635463881,33.0175285688781,3.));
#1171=CARTESIAN_POINT('',(-55.9725635463881,33.0175285688781,0.));
#1172=CARTESIAN_POINT('',(-55.9725635463881,-3.98247143112192,3.));
#1173=CARTESIAN_POINT('',(-55.9725635463881,22.0175285688781,3.));
#1174=CARTESIAN_POINT('',(-55.9725635463881,-3.98247143112192,0.));
#1175=CARTESIAN_POINT('Origin',(6.02743645361188,33.0175285688781,0.));
#1176=CARTESIAN_POINT('',(6.02743645361188,33.0175285688781,0.));
#1177=CARTESIAN_POINT('',(7.02743645361188,33.0175285688781,0.));
#1178=CARTESIAN_POINT('',(6.02743645361188,33.0175285688781,3.));
#1179=CARTESIAN_POINT('',(6.02743645361188,33.0175285688781,0.));
#1180=CARTESIAN_POINT('',(7.02743645361188,33.0175285688781,3.));
#1181=CARTESIAN_POINT('Origin',(6.02743645361188,-3.98247143112192,0.));
#1182=CARTESIAN_POINT('',(6.02743645361188,-3.98247143112192,0.));
#1183=CARTESIAN_POINT('',(6.02743645361188,3.51752856887808,0.));
#1184=CARTESIAN_POINT('',(6.02743645361188,-3.98247143112192,3.));
#1185=CARTESIAN_POINT('',(6.02743645361188,-3.98247143112192,0.));
#1186=CARTESIAN_POINT('',(6.02743645361188,3.51752856887808,3.));
#1187=CARTESIAN_POINT('Origin',(-55.9725635463881,-3.98247143112192,0.));
#1188=CARTESIAN_POINT('',(-23.9725635463881,-3.98247143112192,0.));
#1189=CARTESIAN_POINT('',(-23.9725635463881,-3.98247143112192,3.));
#1190=CARTESIAN_POINT('Origin',(64.5274364536119,-3.48247143112192,0.));
#1191=CARTESIAN_POINT('',(63.0274364536119,-3.48247143112192,0.));
#1192=CARTESIAN_POINT('Origin',(64.5274364536119,-3.48247143112192,0.));
#1193=CARTESIAN_POINT('',(63.0274364536119,-3.48247143112192,2.));
#1194=CARTESIAN_POINT('',(63.0274364536119,-3.48247143112192,0.));
#1195=CARTESIAN_POINT('Origin',(64.5274364536119,-3.48247143112192,2.));
#1196=CARTESIAN_POINT('Origin',(64.5274364536119,-3.48247143112192,2.));
#1197=CARTESIAN_POINT('Origin',(40.5274364536119,17.5175285688781,0.));
#1198=CARTESIAN_POINT('',(39.0274364536119,17.5175285688781,0.));
#1199=CARTESIAN_POINT('Origin',(40.5274364536119,17.5175285688781,0.));
#1200=CARTESIAN_POINT('',(39.0274364536119,17.5175285688781,2.));
#1201=CARTESIAN_POINT('',(39.0274364536119,17.5175285688781,0.));
#1202=CARTESIAN_POINT('Origin',(40.5274364536119,17.5175285688781,2.));
#1203=CARTESIAN_POINT('Origin',(40.5274364536119,17.5175285688781,2.));
#1204=CARTESIAN_POINT('Origin',(64.5274364536119,17.5175285688781,0.));
#1205=CARTESIAN_POINT('',(63.0274364536119,17.5175285688781,0.));
#1206=CARTESIAN_POINT('Origin',(64.5274364536119,17.5175285688781,0.));
#1207=CARTESIAN_POINT('',(63.0274364536119,17.5175285688781,2.));
#1208=CARTESIAN_POINT('',(63.0274364536119,17.5175285688781,0.));
#1209=CARTESIAN_POINT('Origin',(64.5274364536119,17.5175285688781,2.));
#1210=CARTESIAN_POINT('Origin',(64.5274364536119,17.5175285688781,2.));
#1211=CARTESIAN_POINT('Origin',(40.5274364536119,-3.48247143112192,0.));
#1212=CARTESIAN_POINT('',(39.0274364536119,-3.48247143112192,0.));
#1213=CARTESIAN_POINT('Origin',(40.5274364536119,-3.48247143112192,0.));
#1214=CARTESIAN_POINT('',(39.0274364536119,-3.48247143112192,2.));
#1215=CARTESIAN_POINT('',(39.0274364536119,-3.48247143112192,0.));
#1216=CARTESIAN_POINT('Origin',(40.5274364536119,-3.48247143112192,2.));
#1217=CARTESIAN_POINT('Origin',(40.5274364536119,-3.48247143112192,2.));
#1218=CARTESIAN_POINT('Origin',(16.5274364536119,17.5175285688781,0.));
#1219=CARTESIAN_POINT('',(15.0274364536119,17.5175285688781,0.));
#1220=CARTESIAN_POINT('Origin',(16.5274364536119,17.5175285688781,0.));
#1221=CARTESIAN_POINT('',(15.0274364536119,17.5175285688781,2.));
#1222=CARTESIAN_POINT('',(15.0274364536119,17.5175285688781,0.));
#1223=CARTESIAN_POINT('Origin',(16.5274364536119,17.5175285688781,2.));
#1224=CARTESIAN_POINT('Origin',(16.5274364536119,17.5175285688781,2.));
#1225=CARTESIAN_POINT('Origin',(16.5274364536119,-3.48247143112192,0.));
#1226=CARTESIAN_POINT('',(15.0274364536119,-3.48247143112192,0.));
#1227=CARTESIAN_POINT('Origin',(16.5274364536119,-3.48247143112192,0.));
#1228=CARTESIAN_POINT('',(15.0274364536119,-3.48247143112192,2.));
#1229=CARTESIAN_POINT('',(15.0274364536119,-3.48247143112192,0.));
#1230=CARTESIAN_POINT('Origin',(16.5274364536119,-3.48247143112192,2.));
#1231=CARTESIAN_POINT('Origin',(16.5274364536119,-3.48247143112192,2.));
#1232=CARTESIAN_POINT('Origin',(19.0274364536119,1.76752856887808,0.));
#1233=CARTESIAN_POINT('',(19.0274364536119,1.76752856887808,0.));
#1234=CARTESIAN_POINT('',(19.0274364536119,-0.732471431121924,0.));
#1235=CARTESIAN_POINT('',(19.0274364536119,1.76752856887808,0.));
#1236=CARTESIAN_POINT('',(19.0274364536119,-0.732471431121926,3.));
#1237=CARTESIAN_POINT('',(19.0274364536119,-0.732471431121924,0.));
#1238=CARTESIAN_POINT('',(19.0274364536119,1.76752856887808,3.));
#1239=CARTESIAN_POINT('',(19.0274364536119,1.76752856887808,3.));
#1240=CARTESIAN_POINT('',(19.0274364536119,1.76752856887808,0.));
#1241=CARTESIAN_POINT('Origin',(14.0274364536119,1.76752856887808,0.));
#1242=CARTESIAN_POINT('',(14.0274364536119,1.76752856887808,0.));
#1243=CARTESIAN_POINT('',(14.0274364536119,1.76752856887808,0.));
#1244=CARTESIAN_POINT('',(14.0274364536119,1.76752856887808,3.));
#1245=CARTESIAN_POINT('',(14.0274364536119,1.76752856887808,3.));
#1246=CARTESIAN_POINT('',(14.0274364536119,1.76752856887808,0.));
#1247=CARTESIAN_POINT('Origin',(14.0274364536119,-0.732471431121924,0.));
#1248=CARTESIAN_POINT('',(14.0274364536119,-0.732471431121924,0.));
#1249=CARTESIAN_POINT('',(14.0274364536119,-0.732471431121924,0.));
#1250=CARTESIAN_POINT('',(14.0274364536119,-0.732471431121926,3.));
#1251=CARTESIAN_POINT('',(14.0274364536119,-0.732471431121924,3.));
#1252=CARTESIAN_POINT('',(14.0274364536119,-0.732471431121924,0.));
#1253=CARTESIAN_POINT('Origin',(19.0274364536119,-0.732471431121924,0.));
#1254=CARTESIAN_POINT('',(19.0274364536119,-0.732471431121924,0.));
#1255=CARTESIAN_POINT('',(19.0274364536119,-0.732471431121924,3.));
#1256=CARTESIAN_POINT('Origin',(67.0274364536119,22.7675285688781,0.));
#1257=CARTESIAN_POINT('',(67.0274364536119,22.7675285688781,0.));
#1258=CARTESIAN_POINT('',(67.0274364536119,20.2675285688781,0.));
#1259=CARTESIAN_POINT('',(67.0274364536119,22.7675285688781,0.));
#1260=CARTESIAN_POINT('',(67.0274364536119,20.2675285688781,3.));
#1261=CARTESIAN_POINT('',(67.0274364536119,20.2675285688781,0.));
#1262=CARTESIAN_POINT('',(67.0274364536119,22.7675285688781,3.));
#1263=CARTESIAN_POINT('',(67.0274364536119,22.7675285688781,3.));
#1264=CARTESIAN_POINT('',(67.0274364536119,22.7675285688781,0.));
#1265=CARTESIAN_POINT('Origin',(62.0274364536119,22.7675285688781,0.));
#1266=CARTESIAN_POINT('',(62.0274364536119,22.7675285688781,0.));
#1267=CARTESIAN_POINT('',(62.0274364536119,22.7675285688781,0.));
#1268=CARTESIAN_POINT('',(62.0274364536119,22.7675285688781,3.));
#1269=CARTESIAN_POINT('',(62.0274364536119,22.7675285688781,3.));
#1270=CARTESIAN_POINT('',(62.0274364536119,22.7675285688781,0.));
#1271=CARTESIAN_POINT('Origin',(62.0274364536119,20.2675285688781,0.));
#1272=CARTESIAN_POINT('',(62.0274364536119,20.2675285688781,0.));
#1273=CARTESIAN_POINT('',(62.0274364536119,20.2675285688781,0.));
#1274=CARTESIAN_POINT('',(62.0274364536119,20.2675285688781,3.));
#1275=CARTESIAN_POINT('',(62.0274364536119,20.2675285688781,3.));
#1276=CARTESIAN_POINT('',(62.0274364536119,20.2675285688781,0.));
#1277=CARTESIAN_POINT('Origin',(67.0274364536119,20.2675285688781,0.));
#1278=CARTESIAN_POINT('',(67.0274364536119,20.2675285688781,0.));
#1279=CARTESIAN_POINT('',(67.0274364536119,20.2675285688781,3.));
#1280=CARTESIAN_POINT('Origin',(67.0274364536119,1.76752856887808,0.));
#1281=CARTESIAN_POINT('',(67.0274364536119,1.76752856887808,0.));
#1282=CARTESIAN_POINT('',(67.0274364536119,-0.732471431121924,0.));
#1283=CARTESIAN_POINT('',(67.0274364536119,1.76752856887808,0.));
#1284=CARTESIAN_POINT('',(67.0274364536119,-0.732471431121926,3.));
#1285=CARTESIAN_POINT('',(67.0274364536119,-0.732471431121924,0.));
#1286=CARTESIAN_POINT('',(67.0274364536119,1.76752856887808,3.));
#1287=CARTESIAN_POINT('',(67.0274364536119,1.76752856887808,3.));
#1288=CARTESIAN_POINT('',(67.0274364536119,1.76752856887808,0.));
#1289=CARTESIAN_POINT('Origin',(62.0274364536119,1.76752856887808,0.));
#1290=CARTESIAN_POINT('',(62.0274364536119,1.76752856887808,0.));
#1291=CARTESIAN_POINT('',(62.0274364536119,1.76752856887808,0.));
#1292=CARTESIAN_POINT('',(62.0274364536119,1.76752856887808,3.));
#1293=CARTESIAN_POINT('',(62.0274364536119,1.76752856887808,3.));
#1294=CARTESIAN_POINT('',(62.0274364536119,1.76752856887808,0.));
#1295=CARTESIAN_POINT('Origin',(62.0274364536119,-0.732471431121924,0.));
#1296=CARTESIAN_POINT('',(62.0274364536119,-0.732471431121924,0.));
#1297=CARTESIAN_POINT('',(62.0274364536119,-0.732471431121924,0.));
#1298=CARTESIAN_POINT('',(62.0274364536119,-0.732471431121926,3.));
#1299=CARTESIAN_POINT('',(62.0274364536119,-0.732471431121924,3.));
#1300=CARTESIAN_POINT('',(62.0274364536119,-0.732471431121924,0.));
#1301=CARTESIAN_POINT('Origin',(67.0274364536119,-0.732471431121924,0.));
#1302=CARTESIAN_POINT('',(67.0274364536119,-0.732471431121924,0.));
#1303=CARTESIAN_POINT('',(67.0274364536119,-0.732471431121924,3.));
#1304=CARTESIAN_POINT('Origin',(43.0274364536119,1.76752856887808,0.));
#1305=CARTESIAN_POINT('',(43.0274364536119,1.76752856887808,0.));
#1306=CARTESIAN_POINT('',(43.0274364536119,-0.732471431121924,0.));
#1307=CARTESIAN_POINT('',(43.0274364536119,1.76752856887808,0.));
#1308=CARTESIAN_POINT('',(43.0274364536119,-0.732471431121926,3.));
#1309=CARTESIAN_POINT('',(43.0274364536119,-0.732471431121924,0.));
#1310=CARTESIAN_POINT('',(43.0274364536119,1.76752856887808,3.));
#1311=CARTESIAN_POINT('',(43.0274364536119,1.76752856887808,3.));
#1312=CARTESIAN_POINT('',(43.0274364536119,1.76752856887808,0.));
#1313=CARTESIAN_POINT('Origin',(38.0274364536119,1.76752856887808,0.));
#1314=CARTESIAN_POINT('',(38.0274364536119,1.76752856887808,0.));
#1315=CARTESIAN_POINT('',(38.0274364536119,1.76752856887808,0.));
#1316=CARTESIAN_POINT('',(38.0274364536119,1.76752856887808,3.));
#1317=CARTESIAN_POINT('',(38.0274364536119,1.76752856887808,3.));
#1318=CARTESIAN_POINT('',(38.0274364536119,1.76752856887808,0.));
#1319=CARTESIAN_POINT('Origin',(38.0274364536119,-0.732471431121924,0.));
#1320=CARTESIAN_POINT('',(38.0274364536119,-0.732471431121924,0.));
#1321=CARTESIAN_POINT('',(38.0274364536119,-0.732471431121924,0.));
#1322=CARTESIAN_POINT('',(38.0274364536119,-0.732471431121926,3.));
#1323=CARTESIAN_POINT('',(38.0274364536119,-0.732471431121924,3.));
#1324=CARTESIAN_POINT('',(38.0274364536119,-0.732471431121924,0.));
#1325=CARTESIAN_POINT('Origin',(43.0274364536119,-0.732471431121924,0.));
#1326=CARTESIAN_POINT('',(43.0274364536119,-0.732471431121924,0.));
#1327=CARTESIAN_POINT('',(43.0274364536119,-0.732471431121924,3.));
#1328=CARTESIAN_POINT('Origin',(43.0274364536119,22.7675285688781,0.));
#1329=CARTESIAN_POINT('',(43.0274364536119,22.7675285688781,0.));
#1330=CARTESIAN_POINT('',(43.0274364536119,20.2675285688781,0.));
#1331=CARTESIAN_POINT('',(43.0274364536119,22.7675285688781,0.));
#1332=CARTESIAN_POINT('',(43.0274364536119,20.2675285688781,3.));
#1333=CARTESIAN_POINT('',(43.0274364536119,20.2675285688781,0.));
#1334=CARTESIAN_POINT('',(43.0274364536119,22.7675285688781,3.));
#1335=CARTESIAN_POINT('',(43.0274364536119,22.7675285688781,3.));
#1336=CARTESIAN_POINT('',(43.0274364536119,22.7675285688781,0.));
#1337=CARTESIAN_POINT('Origin',(38.0274364536119,22.7675285688781,0.));
#1338=CARTESIAN_POINT('',(38.0274364536119,22.7675285688781,0.));
#1339=CARTESIAN_POINT('',(38.0274364536119,22.7675285688781,0.));
#1340=CARTESIAN_POINT('',(38.0274364536119,22.7675285688781,3.));
#1341=CARTESIAN_POINT('',(38.0274364536119,22.7675285688781,3.));
#1342=CARTESIAN_POINT('',(38.0274364536119,22.7675285688781,0.));
#1343=CARTESIAN_POINT('Origin',(38.0274364536119,20.2675285688781,0.));
#1344=CARTESIAN_POINT('',(38.0274364536119,20.2675285688781,0.));
#1345=CARTESIAN_POINT('',(38.0274364536119,20.2675285688781,0.));
#1346=CARTESIAN_POINT('',(38.0274364536119,20.2675285688781,3.));
#1347=CARTESIAN_POINT('',(38.0274364536119,20.2675285688781,3.));
#1348=CARTESIAN_POINT('',(38.0274364536119,20.2675285688781,0.));
#1349=CARTESIAN_POINT('Origin',(43.0274364536119,20.2675285688781,0.));
#1350=CARTESIAN_POINT('',(43.0274364536119,20.2675285688781,0.));
#1351=CARTESIAN_POINT('',(43.0274364536119,20.2675285688781,3.));
#1352=CARTESIAN_POINT('Origin',(19.0274364536119,22.7675285688781,0.));
#1353=CARTESIAN_POINT('',(19.0274364536119,22.7675285688781,0.));
#1354=CARTESIAN_POINT('',(19.0274364536119,20.2675285688781,0.));
#1355=CARTESIAN_POINT('',(19.0274364536119,22.7675285688781,0.));
#1356=CARTESIAN_POINT('',(19.0274364536119,20.2675285688781,3.));
#1357=CARTESIAN_POINT('',(19.0274364536119,20.2675285688781,0.));
#1358=CARTESIAN_POINT('',(19.0274364536119,22.7675285688781,3.));
#1359=CARTESIAN_POINT('',(19.0274364536119,22.7675285688781,3.));
#1360=CARTESIAN_POINT('',(19.0274364536119,22.7675285688781,0.));
#1361=CARTESIAN_POINT('Origin',(14.0274364536119,22.7675285688781,0.));
#1362=CARTESIAN_POINT('',(14.0274364536119,22.7675285688781,0.));
#1363=CARTESIAN_POINT('',(14.0274364536119,22.7675285688781,0.));
#1364=CARTESIAN_POINT('',(14.0274364536119,22.7675285688781,3.));
#1365=CARTESIAN_POINT('',(14.0274364536119,22.7675285688781,3.));
#1366=CARTESIAN_POINT('',(14.0274364536119,22.7675285688781,0.));
#1367=CARTESIAN_POINT('Origin',(14.0274364536119,20.2675285688781,0.));
#1368=CARTESIAN_POINT('',(14.0274364536119,20.2675285688781,0.));
#1369=CARTESIAN_POINT('',(14.0274364536119,20.2675285688781,0.));
#1370=CARTESIAN_POINT('',(14.0274364536119,20.2675285688781,3.));
#1371=CARTESIAN_POINT('',(14.0274364536119,20.2675285688781,3.));
#1372=CARTESIAN_POINT('',(14.0274364536119,20.2675285688781,0.));
#1373=CARTESIAN_POINT('Origin',(19.0274364536119,20.2675285688781,0.));
#1374=CARTESIAN_POINT('',(19.0274364536119,20.2675285688781,0.));
#1375=CARTESIAN_POINT('',(19.0274364536119,20.2675285688781,3.));
#1376=CARTESIAN_POINT('Origin',(-62.4725635463881,39.5175285688781,0.));
#1377=CARTESIAN_POINT('',(-62.4725635463881,-17.4824714311219,0.));
#1378=CARTESIAN_POINT('',(-62.4725635463881,39.5175285688781,0.));
#1379=CARTESIAN_POINT('',(-62.4725635463881,-17.4824714311219,0.));
#1380=CARTESIAN_POINT('',(-62.4725635463881,-17.4824714311219,3.));
#1381=CARTESIAN_POINT('',(-62.4725635463881,-17.4824714311219,0.));
#1382=CARTESIAN_POINT('',(-62.4725635463881,39.5175285688781,3.));
#1383=CARTESIAN_POINT('',(-62.4725635463881,-17.4824714311219,3.));
#1384=CARTESIAN_POINT('',(-62.4725635463881,39.5175285688781,0.));
#1385=CARTESIAN_POINT('Origin',(78.5274364536119,39.5175285688781,0.));
#1386=CARTESIAN_POINT('',(78.5274364536119,39.5175285688781,0.));
#1387=CARTESIAN_POINT('',(-62.4725635463881,39.5175285688781,0.));
#1388=CARTESIAN_POINT('',(78.5274364536119,39.5175285688781,3.));
#1389=CARTESIAN_POINT('',(-62.4725635463881,39.5175285688781,3.));
#1390=CARTESIAN_POINT('',(78.5274364536119,39.5175285688781,0.));
#1391=CARTESIAN_POINT('Origin',(78.5274364536119,-17.4824714311219,0.));
#1392=CARTESIAN_POINT('',(78.5274364536119,-17.4824714311219,0.));
#1393=CARTESIAN_POINT('',(78.5274364536119,39.5175285688781,0.));
#1394=CARTESIAN_POINT('',(78.5274364536119,-17.4824714311219,3.));
#1395=CARTESIAN_POINT('',(78.5274364536119,39.5175285688781,3.));
#1396=CARTESIAN_POINT('',(78.5274364536119,-17.4824714311219,0.));
#1397=CARTESIAN_POINT('Origin',(-62.4725635463881,-17.4824714311219,0.));
#1398=CARTESIAN_POINT('',(78.5274364536119,-17.4824714311219,0.));
#1399=CARTESIAN_POINT('',(78.5274364536119,-17.4824714311219,3.));
#1400=CARTESIAN_POINT('Origin',(8.02743645361188,11.0175285688781,3.));
#1401=CARTESIAN_POINT('Origin',(8.02743645361188,11.0175285688781,0.));
#1402=UNCERTAINTY_MEASURE_WITH_UNIT(LENGTH_MEASURE(0.01),#1406,
'DISTANCE_ACCURACY_VALUE',
'Maximum model space distance between geometric entities at asserted c
onnectivities');
#1403=UNCERTAINTY_MEASURE_WITH_UNIT(LENGTH_MEASURE(0.01),#1406,
'DISTANCE_ACCURACY_VALUE',
'Maximum model space distance between geometric entities at asserted c
onnectivities');
#1404=(
GEOMETRIC_REPRESENTATION_CONTEXT(3)
GLOBAL_UNCERTAINTY_ASSIGNED_CONTEXT((#1402))
GLOBAL_UNIT_ASSIGNED_CONTEXT((#1406,#1408,#1409))
REPRESENTATION_CONTEXT('','3D')
);
#1405=(
GEOMETRIC_REPRESENTATION_CONTEXT(3)
GLOBAL_UNCERTAINTY_ASSIGNED_CONTEXT((#1403))
GLOBAL_UNIT_ASSIGNED_CONTEXT((#1406,#1408,#1409))
REPRESENTATION_CONTEXT('','3D')
);
#1406=(
LENGTH_UNIT()
NAMED_UNIT(*)
SI_UNIT(.MILLI.,.METRE.)
);
#1407=(
LENGTH_UNIT()
NAMED_UNIT(*)
SI_UNIT($,.METRE.)
);
#1408=(
NAMED_UNIT(*)
PLANE_ANGLE_UNIT()
SI_UNIT($,.RADIAN.)
);
#1409=(
NAMED_UNIT(*)
SI_UNIT($,.STERADIAN.)
SOLID_ANGLE_UNIT()
);
#1410=SHAPE_DEFINITION_REPRESENTATION(#1411,#1412);
#1411=PRODUCT_DEFINITION_SHAPE('',$,#1414);
#1412=SHAPE_REPRESENTATION('',(#886),#1404);
#1413=PRODUCT_DEFINITION_CONTEXT('part definition',#1418,'design');
#1414=PRODUCT_DEFINITION('2026-09-12-20-40-35-556','Dice Hub Top',#1415,
#1413);
#1415=PRODUCT_DEFINITION_FORMATION('',$,#1420);
#1416=PRODUCT_RELATED_PRODUCT_CATEGORY('Dice Hub Top','Dice Hub Top',(#1420));
#1417=APPLICATION_PROTOCOL_DEFINITION('international standard',
'automotive_design',2009,#1418);
#1418=APPLICATION_CONTEXT(
'Core Data for Automotive Mechanical Design Process');
#1419=PRODUCT_CONTEXT('part definition',#1418,'mechanical');
#1420=PRODUCT('2026-09-12-20-40-35-556','Dice Hub Top',$,(#1419));
#1421=PRESENTATION_STYLE_ASSIGNMENT((#1422));
#1422=SURFACE_STYLE_USAGE(.BOTH.,#1423);
#1423=SURFACE_SIDE_STYLE('',(#1424));
#1424=SURFACE_STYLE_FILL_AREA(#1425);
#1425=FILL_AREA_STYLE('Steel - Satin',(#1426));
#1426=FILL_AREA_STYLE_COLOUR('Steel - Satin',#1427);
#1427=COLOUR_RGB('Steel - Satin',0.627450980392157,0.627450980392157,0.627450980392157);
ENDSEC;
END-ISO-10303-21;
