M48
; DRILL file KiCad 10.0.4 date 2026-09-13T08:14:46
; FORMAT={-:-/ absolute / metric / decimal}
; #@! TF.CreationDate,2026-09-13T08:14:46-05:00
; #@! TF.GenerationSoftware,Kicad,Pcbnew,10.0.4
; #@! TF.FileFunction,Plated,1,2,PTH
FMAT,2
METRIC
; #@! TA.AperFunction,Plated,PTH,ViaDrill
T1C0.300
; #@! TA.AperFunction,Plated,PTH,ComponentDrill
T2C0.800
; #@! TA.AperFunction,Plated,PTH,ComponentDrill
T3C1.000
%
G90
G05
T1
X118.35Y-57.959
X118.35Y-59.074
X118.35Y-59.95
X118.35Y-64.95
X118.734Y-79.59
X118.759Y-57.23
X118.785Y-66.45
X118.918Y-56.082
X118.95Y-63.381
X119.05Y-74.95
X119.45Y-64.45
X119.523Y-61.45
X119.917Y-77.234
X120.015Y-54.75
X120.65Y-63.443
X120.975Y-54.75
X121.546Y-57.0
X121.876Y-67.776
X121.929Y-64.829
X121.95Y-63.96
X122.64Y-66.209
X122.838Y-73.95
X122.951Y-81.033
X123.05Y-54.75
X123.389Y-114.151
X123.541Y-115.999
X123.886Y-81.614
X124.104Y-55.219
X124.126Y-79.51
X124.438Y-73.95
X124.438Y-75.899
X124.545Y-80.502
X124.9Y-61.93
X125.3Y-55.524
X125.55Y-80.45
X125.638Y-73.85
X125.638Y-77.95
X126.171Y-103.641
X126.332Y-58.258
X126.35Y-57.45
X126.35Y-60.95
X126.467Y-55.033
X126.55Y-67.812
X126.778Y-103.034
X127.671Y-102.141
X127.785Y-103.755
X128.23Y-101.541
X128.351Y-103.189
X128.916Y-102.624
X129.482Y-102.058
X133.336Y-57.836
X133.917Y-56.901
X134.448Y-58.495
X134.5Y-59.5
X134.785Y-113.172
X135.285Y-114.372
X135.36Y-52.684
X135.44Y-58.076
X137.0Y-59.588
X137.716Y-53.867
X137.795Y-123.095
X137.795Y-125.635
X138.785Y-113.172
X139.051Y-58.388
X139.585Y-113.172
X140.0Y-53.0
X140.185Y-117.755
X140.385Y-113.172
X141.0Y-56.788
X141.0Y-58.388
X141.1Y-59.588
X144.3Y-81.0
X144.3Y-83.075
X144.3Y-84.035
X144.583Y-77.583
X144.769Y-79.946
X145.074Y-78.75
X145.632Y-85.132
X146.55Y-82.504
X146.78Y-85.291
X147.0Y-77.7
X147.138Y-60.5
X147.174Y-55.826
X147.509Y-85.7
X147.808Y-77.718
X148.5Y-52.735
X148.624Y-85.7
X148.741Y-56.59
X149.5Y-85.7
X150.0Y-52.3
X150.121Y-55.879
X150.5Y-53.4
X150.5Y-77.7
X150.99Y-55.9
X151.0Y-84.527
X151.48Y-79.15
X151.507Y-54.6
X151.569Y-52.9
X152.931Y-85.1
X152.993Y-83.4
X153.02Y-58.85
X153.5Y-53.473
X153.51Y-82.1
X154.0Y-60.3
X154.0Y-84.6
X154.379Y-82.121
X154.5Y-85.7
X155.0Y-52.3
X155.759Y-81.41
X155.876Y-52.3
X156.0Y-85.265
X156.692Y-60.282
X156.991Y-52.3
X157.326Y-82.174
X157.362Y-77.5
X157.5Y-60.3
X157.72Y-52.709
X157.95Y-55.496
X158.868Y-52.868
X159.426Y-59.25
X159.731Y-58.054
X159.917Y-60.417
X160.2Y-53.965
X160.2Y-54.925
X160.2Y-57.0
X163.4Y-78.412
X163.5Y-79.612
X163.5Y-81.212
X164.5Y-85.0
X165.449Y-79.612
X166.784Y-84.133
X166.8Y-95.009
X166.8Y-96.124
X166.8Y-97.0
X166.8Y-102.0
X167.184Y-116.64
X167.209Y-94.28
X167.235Y-103.5
X167.368Y-93.132
X167.4Y-100.431
X167.5Y-78.412
X167.5Y-112.0
X167.836Y-57.836
X167.9Y-101.5
X167.973Y-98.5
X168.367Y-114.284
X168.417Y-56.901
X168.465Y-91.8
X168.948Y-58.495
X169.0Y-59.5
X169.06Y-79.924
X169.1Y-100.493
X169.14Y-85.316
X169.425Y-91.8
X169.86Y-52.684
X169.94Y-58.076
X169.996Y-94.05
X170.0Y-78.5
X170.052Y-79.505
X170.326Y-104.826
X170.379Y-101.879
X170.4Y-101.01
X170.583Y-81.099
X170.8Y-129.0
X170.8Y-131.075
X170.8Y-132.035
X171.083Y-125.583
X171.09Y-103.259
X171.164Y-80.164
X171.269Y-127.946
X171.288Y-111.0
X171.401Y-118.083
X171.5Y-59.588
X171.5Y-91.8
X171.574Y-126.75
X172.132Y-133.132
X172.216Y-53.867
X172.336Y-118.664
X172.554Y-92.269
X172.576Y-116.56
X172.888Y-111.0
X172.888Y-112.949
X172.995Y-117.552
X173.05Y-130.504
X173.28Y-133.291
X173.35Y-98.98
X173.5Y-125.7
X173.551Y-58.388
X173.75Y-92.574
X174.0Y-117.5
X174.009Y-133.7
X174.088Y-110.9
X174.088Y-115.0
X174.308Y-125.718
X174.5Y-53.0
X174.782Y-95.308
X174.8Y-94.5
X174.8Y-98.0
X174.917Y-92.083
X175.0Y-104.862
X175.124Y-133.7
X175.5Y-56.788
X175.5Y-58.388
X175.6Y-59.588
X176.0Y-133.7
X177.0Y-125.7
X177.5Y-132.527
X177.98Y-127.15
X179.431Y-133.1
X179.493Y-131.4
X180.01Y-130.1
X180.5Y-132.6
X180.879Y-130.121
X181.0Y-133.7
X181.638Y-60.5
X181.674Y-55.826
X182.259Y-129.41
X182.5Y-133.265
X183.0Y-52.735
X183.241Y-56.59
X183.826Y-130.174
X183.862Y-125.5
X184.5Y-52.3
X184.621Y-55.879
X185.0Y-53.4
X185.49Y-55.9
X186.007Y-54.6
X186.069Y-52.9
X187.52Y-58.85
X188.0Y-53.473
X188.5Y-60.3
X189.5Y-52.3
X189.9Y-126.412
X190.0Y-127.612
X190.0Y-129.212
X190.376Y-52.3
X190.5Y-82.638
X190.583Y-95.417
X190.7Y-89.5
X190.7Y-93.0
X190.718Y-92.192
X191.0Y-133.0
X191.192Y-60.282
X191.412Y-72.5
X191.412Y-76.6
X191.491Y-52.3
X191.5Y-70.0
X191.75Y-94.926
X191.949Y-127.612
X192.0Y-60.3
X192.15Y-88.52
X192.22Y-52.709
X192.45Y-55.496
X192.505Y-69.948
X192.612Y-74.551
X192.612Y-76.5
X192.924Y-70.94
X192.946Y-95.231
X193.164Y-68.836
X193.284Y-132.133
X193.368Y-52.868
X193.926Y-59.25
X194.0Y-95.7
X194.0Y-126.412
X194.099Y-69.417
X194.212Y-76.5
X194.231Y-58.054
X194.41Y-84.241
X194.417Y-60.417
X194.7Y-53.965
X194.7Y-54.925
X194.7Y-57.0
X195.1Y-86.49
X195.121Y-85.621
X195.174Y-82.674
X195.504Y-93.45
X195.56Y-127.924
X195.64Y-133.316
X196.075Y-95.7
X196.4Y-87.007
X196.5Y-126.5
X196.552Y-127.505
X197.035Y-95.7
X197.083Y-129.099
X197.133Y-73.216
X197.527Y-89.0
X197.6Y-86.0
X197.664Y-128.164
X198.0Y-75.5
X198.1Y-87.069
X198.132Y-94.368
X198.265Y-84.0
X198.291Y-93.22
X198.316Y-70.86
X198.7Y-85.5
X198.7Y-90.5
X198.7Y-91.376
X198.7Y-92.491
T2
X120.038Y-68.959
X125.038Y-68.959
X145.991Y-53.988
X145.991Y-58.988
X158.509Y-79.012
X158.509Y-84.012
X168.488Y-106.009
X173.488Y-106.009
X180.491Y-53.988
X180.491Y-58.988
X185.009Y-127.012
X185.009Y-132.012
X192.012Y-81.491
X197.012Y-81.491
T3
X120.795Y-94.625
X120.795Y-97.165
X120.795Y-99.705
X120.795Y-102.245
X120.795Y-104.785
X120.795Y-107.325
X120.795Y-109.865
X120.795Y-112.405
X132.889Y-68.015
X132.889Y-70.555
X143.092Y-126.072
X143.092Y-128.572
X144.395Y-66.839
X146.295Y-100.74
X146.295Y-103.28
X146.295Y-108.74
X146.295Y-111.28
X146.295Y-117.24
X146.295Y-119.78
X146.935Y-66.839
X157.295Y-100.74
X157.295Y-103.28
X157.295Y-108.74
X157.295Y-111.28
X157.295Y-117.24
X157.295Y-119.78
X157.565Y-71.161
X160.105Y-71.161
X178.895Y-66.839
X181.339Y-105.065
X181.339Y-107.605
X181.435Y-66.839
X184.065Y-119.161
X184.161Y-79.895
X184.161Y-82.435
X186.605Y-119.161
M30
