%TF.GenerationSoftware,KiCad,Pcbnew,10.0.4*%
%TF.CreationDate,2026-09-13T08:14:41-05:00*%
%TF.ProjectId,WirelessDice,57697265-6c65-4737-9344-6963652e6b69,rev?*%
%TF.SameCoordinates,Original*%
%TF.FileFunction,Copper,L1,Top*%
%TF.FilePolarity,Positive*%
%FSLAX46Y46*%
G04 Gerber Fmt 4.6, Leading zero omitted, Abs format (unit mm)*
G04 Created by KiCad (PCBNEW 10.0.4) date 2026-09-13 08:14:41*
%MOMM*%
%LPD*%
G01*
G04 APERTURE LIST*
G04 Aperture macros list*
%AMRoundRect*
0 Rectangle with rounded corners*
0 $1 Rounding radius*
0 $2 $3 $4 $5 $6 $7 $8 $9 X,Y pos of 4 corners*
0 Add a 4 corners polygon primitive as box body*
4,1,4,$2,$3,$4,$5,$6,$7,$8,$9,$2,$3,0*
0 Add four circle primitives for the rounded corners*
1,1,$1+$1,$2,$3*
1,1,$1+$1,$4,$5*
1,1,$1+$1,$6,$7*
1,1,$1+$1,$8,$9*
0 Add four rect primitives between the rounded corners*
20,1,$1+$1,$2,$3,$4,$5,0*
20,1,$1+$1,$4,$5,$6,$7,0*
20,1,$1+$1,$6,$7,$8,$9,0*
20,1,$1+$1,$8,$9,$2,$3,0*%
%AMFreePoly0*
4,1,15,-0.616000,0.142500,-0.283500,0.475000,0.521000,0.475000,0.557355,0.467769,0.588175,0.447175,0.608769,0.416355,0.616000,0.380000,0.616000,-0.380000,0.608769,-0.416355,0.588175,-0.447175,0.557355,-0.467769,0.521000,-0.475000,-0.283500,-0.475000,-0.616000,-0.142500,-0.616000,0.142500,-0.616000,0.142500,$1*%
G04 Aperture macros list end*
%TA.AperFunction,SMDPad,CuDef*%
%ADD10RoundRect,0.135000X-0.185000X0.135000X-0.185000X-0.135000X0.185000X-0.135000X0.185000X0.135000X0*%
%TD*%
%TA.AperFunction,SMDPad,CuDef*%
%ADD11RoundRect,0.140000X-0.170000X0.140000X-0.170000X-0.140000X0.170000X-0.140000X0.170000X0.140000X0*%
%TD*%
%TA.AperFunction,SMDPad,CuDef*%
%ADD12RoundRect,0.135000X0.135000X0.185000X-0.135000X0.185000X-0.135000X-0.185000X0.135000X-0.185000X0*%
%TD*%
%TA.AperFunction,SMDPad,CuDef*%
%ADD13C,1.000000*%
%TD*%
%TA.AperFunction,SMDPad,CuDef*%
%ADD14RoundRect,0.150000X0.200000X-0.150000X0.200000X0.150000X-0.200000X0.150000X-0.200000X-0.150000X0*%
%TD*%
%TA.AperFunction,ComponentPad*%
%ADD15RoundRect,0.190500X0.444500X-0.444500X0.444500X0.444500X-0.444500X0.444500X-0.444500X-0.444500X0*%
%TD*%
%TA.AperFunction,SMDPad,CuDef*%
%ADD16RoundRect,0.050000X0.350000X0.050000X-0.350000X0.050000X-0.350000X-0.050000X0.350000X-0.050000X0*%
%TD*%
%TA.AperFunction,SMDPad,CuDef*%
%ADD17RoundRect,0.050000X0.050000X0.350000X-0.050000X0.350000X-0.050000X-0.350000X0.050000X-0.350000X0*%
%TD*%
%TA.AperFunction,HeatsinkPad*%
%ADD18R,4.600000X4.600000*%
%TD*%
%TA.AperFunction,SMDPad,CuDef*%
%ADD19RoundRect,0.135000X-0.135000X-0.185000X0.135000X-0.185000X0.135000X0.185000X-0.135000X0.185000X0*%
%TD*%
%TA.AperFunction,ComponentPad*%
%ADD20R,1.700000X1.700000*%
%TD*%
%TA.AperFunction,ComponentPad*%
%ADD21C,1.700000*%
%TD*%
%TA.AperFunction,SMDPad,CuDef*%
%ADD22RoundRect,0.147500X0.147500X0.172500X-0.147500X0.172500X-0.147500X-0.172500X0.147500X-0.172500X0*%
%TD*%
%TA.AperFunction,SMDPad,CuDef*%
%ADD23RoundRect,0.140000X0.140000X0.170000X-0.140000X0.170000X-0.140000X-0.170000X0.140000X-0.170000X0*%
%TD*%
%TA.AperFunction,SMDPad,CuDef*%
%ADD24RoundRect,0.147500X-0.172500X0.147500X-0.172500X-0.147500X0.172500X-0.147500X0.172500X0.147500X0*%
%TD*%
%TA.AperFunction,SMDPad,CuDef*%
%ADD25RoundRect,0.050000X-0.050000X0.350000X-0.050000X-0.350000X0.050000X-0.350000X0.050000X0.350000X0*%
%TD*%
%TA.AperFunction,SMDPad,CuDef*%
%ADD26RoundRect,0.050000X-0.350000X0.050000X-0.350000X-0.050000X0.350000X-0.050000X0.350000X0.050000X0*%
%TD*%
%TA.AperFunction,SMDPad,CuDef*%
%ADD27RoundRect,0.150000X-0.200000X0.150000X-0.200000X-0.150000X0.200000X-0.150000X0.200000X0.150000X0*%
%TD*%
%TA.AperFunction,SMDPad,CuDef*%
%ADD28RoundRect,0.147500X-0.147500X-0.172500X0.147500X-0.172500X0.147500X0.172500X-0.147500X0.172500X0*%
%TD*%
%TA.AperFunction,SMDPad,CuDef*%
%ADD29RoundRect,0.150000X0.150000X0.200000X-0.150000X0.200000X-0.150000X-0.200000X0.150000X-0.200000X0*%
%TD*%
%TA.AperFunction,SMDPad,CuDef*%
%ADD30R,0.375000X0.350000*%
%TD*%
%TA.AperFunction,SMDPad,CuDef*%
%ADD31R,0.350000X0.375000*%
%TD*%
%TA.AperFunction,SMDPad,CuDef*%
%ADD32RoundRect,0.200000X0.200000X-0.250000X0.200000X0.250000X-0.200000X0.250000X-0.200000X-0.250000X0*%
%TD*%
%TA.AperFunction,SMDPad,CuDef*%
%ADD33RoundRect,0.140000X-0.140000X-0.170000X0.140000X-0.170000X0.140000X0.170000X-0.140000X0.170000X0*%
%TD*%
%TA.AperFunction,SMDPad,CuDef*%
%ADD34RoundRect,0.140000X0.170000X-0.140000X0.170000X0.140000X-0.170000X0.140000X-0.170000X-0.140000X0*%
%TD*%
%TA.AperFunction,ComponentPad*%
%ADD35RoundRect,0.190500X0.444500X0.444500X-0.444500X0.444500X-0.444500X-0.444500X0.444500X-0.444500X0*%
%TD*%
%TA.AperFunction,SMDPad,CuDef*%
%ADD36RoundRect,0.050000X0.050000X-0.350000X0.050000X0.350000X-0.050000X0.350000X-0.050000X-0.350000X0*%
%TD*%
%TA.AperFunction,SMDPad,CuDef*%
%ADD37RoundRect,0.050000X0.350000X-0.050000X0.350000X0.050000X-0.350000X0.050000X-0.350000X-0.050000X0*%
%TD*%
%TA.AperFunction,SMDPad,CuDef*%
%ADD38RoundRect,0.135000X0.185000X-0.135000X0.185000X0.135000X-0.185000X0.135000X-0.185000X-0.135000X0*%
%TD*%
%TA.AperFunction,SMDPad,CuDef*%
%ADD39R,1.000000X0.800000*%
%TD*%
%TA.AperFunction,SMDPad,CuDef*%
%ADD40R,0.700000X1.500000*%
%TD*%
%TA.AperFunction,ComponentPad*%
%ADD41RoundRect,0.190500X-0.444500X0.444500X-0.444500X-0.444500X0.444500X-0.444500X0.444500X0.444500X0*%
%TD*%
%TA.AperFunction,SMDPad,CuDef*%
%ADD42RoundRect,0.147500X0.172500X-0.147500X0.172500X0.147500X-0.172500X0.147500X-0.172500X-0.147500X0*%
%TD*%
%TA.AperFunction,ComponentPad*%
%ADD43RoundRect,0.250000X-0.750000X0.600000X-0.750000X-0.600000X0.750000X-0.600000X0.750000X0.600000X0*%
%TD*%
%TA.AperFunction,ComponentPad*%
%ADD44O,2.000000X1.700000*%
%TD*%
%TA.AperFunction,SMDPad,CuDef*%
%ADD45RoundRect,0.200000X-0.200000X0.250000X-0.200000X-0.250000X0.200000X-0.250000X0.200000X0.250000X0*%
%TD*%
%TA.AperFunction,SMDPad,CuDef*%
%ADD46RoundRect,0.050000X-0.350000X-0.050000X0.350000X-0.050000X0.350000X0.050000X-0.350000X0.050000X0*%
%TD*%
%TA.AperFunction,SMDPad,CuDef*%
%ADD47RoundRect,0.050000X-0.050000X-0.350000X0.050000X-0.350000X0.050000X0.350000X-0.050000X0.350000X0*%
%TD*%
%TA.AperFunction,SMDPad,CuDef*%
%ADD48RoundRect,0.150000X-0.150000X-0.200000X0.150000X-0.200000X0.150000X0.200000X-0.150000X0.200000X0*%
%TD*%
%TA.AperFunction,ComponentPad*%
%ADD49RoundRect,0.190500X-0.444500X-0.444500X0.444500X-0.444500X0.444500X0.444500X-0.444500X0.444500X0*%
%TD*%
%TA.AperFunction,SMDPad,CuDef*%
%ADD50RoundRect,0.095000X-0.921000X-0.380000X0.921000X-0.380000X0.921000X0.380000X-0.921000X0.380000X0*%
%TD*%
%TA.AperFunction,SMDPad,CuDef*%
%ADD51RoundRect,0.095000X0.921000X0.380000X-0.921000X0.380000X-0.921000X-0.380000X0.921000X-0.380000X0*%
%TD*%
%TA.AperFunction,SMDPad,CuDef*%
%ADD52FreePoly0,0.000000*%
%TD*%
%TA.AperFunction,SMDPad,CuDef*%
%ADD53FreePoly0,180.000000*%
%TD*%
%TA.AperFunction,SMDPad,CuDef*%
%ADD54C,1.700000*%
%TD*%
%TA.AperFunction,SMDPad,CuDef*%
%ADD55RoundRect,0.110000X0.440000X-1.140000X0.440000X1.140000X-0.440000X1.140000X-0.440000X-1.140000X0*%
%TD*%
%TA.AperFunction,SMDPad,CuDef*%
%ADD56RoundRect,0.250000X1.150000X1.000000X-1.150000X1.000000X-1.150000X-1.000000X1.150000X-1.000000X0*%
%TD*%
%TA.AperFunction,SMDPad,CuDef*%
%ADD57RoundRect,0.200000X-0.250000X-0.200000X0.250000X-0.200000X0.250000X0.200000X-0.250000X0.200000X0*%
%TD*%
%TA.AperFunction,SMDPad,CuDef*%
%ADD58RoundRect,0.200000X0.250000X0.200000X-0.250000X0.200000X-0.250000X-0.200000X0.250000X-0.200000X0*%
%TD*%
%TA.AperFunction,ViaPad*%
%ADD59C,0.600000*%
%TD*%
%TA.AperFunction,Conductor*%
%ADD60C,0.200000*%
%TD*%
G04 APERTURE END LIST*
D10*
%TO.P,R4,1*%
%TO.N,/Dice/DIE_PWR*%
X195732371Y-126617473D03*
%TO.P,R4,2*%
%TO.N,/Dice/I2C_SDA*%
X195732371Y-127637473D03*
%TD*%
D11*
%TO.P,C8,1*%
%TO.N,/Dice/DIE_PWR*%
X144037633Y-79110782D03*
%TO.P,C8,2*%
%TO.N,Net-(C8-Pad2)*%
X144037633Y-80070782D03*
%TD*%
D12*
%TO.P,R5,1*%
%TO.N,/Dice/DIE_PWR*%
X198103144Y-129098996D03*
%TO.P,R5,2*%
%TO.N,/Dice/I2C_SCL*%
X197083144Y-129098996D03*
%TD*%
D13*
%TO.P,TP3,1,1_1*%
%TO.N,Net-(U2-P0.21{slash}~{RESET})*%
X126466754Y-55033247D03*
%TD*%
D14*
%TO.P,D1,1,K_1*%
%TO.N,Net-(D1-K)*%
X143086304Y-63085779D03*
%TO.P,D1,2,A_2*%
%TO.N,/Dice/DOCK+*%
X143086304Y-64485779D03*
%TD*%
D15*
%TO.P,C3,1*%
%TO.N,/Dice/DIE_PWR*%
X145991477Y-58988157D03*
%TO.P,C3,2*%
%TO.N,GND*%
X145991477Y-53988157D03*
%TD*%
D16*
%TO.P,U2,1,DEC1_1*%
%TO.N,Net-(U2-DEC1)*%
X173900000Y-98300000D03*
%TO.P,U2,2,P0.00/XL1_2*%
%TO.N,unconnected-(U2-P0.00{slash}XL1-Pad2)*%
X173900000Y-97900000D03*
%TO.P,U2,3,P0.01/XL2_3*%
%TO.N,unconnected-(U2-P0.01{slash}XL2-Pad3)*%
X173900000Y-97500000D03*
%TO.P,U2,4,P0.02/AIN0_4*%
%TO.N,/Dice/MOTION_INT*%
X173900000Y-97100000D03*
%TO.P,U2,5,P0.03/AIN1_5*%
%TO.N,/Dice/I2C_SCL*%
X173900000Y-96700000D03*
%TO.P,U2,6,P0.04/AIN2_6*%
%TO.N,/Dice/I2C_SDA*%
X173900000Y-96300000D03*
%TO.P,U2,7,P0.05/AIN3_7*%
%TO.N,unconnected-(U2-P0.05{slash}AIN3-Pad7)*%
X173900000Y-95900000D03*
%TO.P,U2,8,P0.06_8*%
%TO.N,unconnected-(U2-P0.06-Pad8)*%
X173900000Y-95500000D03*
%TO.P,U2,9,P0.07_9*%
%TO.N,unconnected-(U2-P0.07-Pad9)*%
X173900000Y-95100000D03*
%TO.P,U2,10,P0.08_10*%
%TO.N,unconnected-(U2-P0.08-Pad10)*%
X173900000Y-94700000D03*
%TO.P,U2,11,NFC1/P0.09_11*%
%TO.N,unconnected-(U2-NFC1{slash}P0.09-Pad11)*%
X173900000Y-94300000D03*
%TO.P,U2,12,NFC2/P0.10_12*%
%TO.N,unconnected-(U2-NFC2{slash}P0.10-Pad12)*%
X173900000Y-93900000D03*
D17*
%TO.P,U2,13,VDD_13*%
%TO.N,Net-(C8-Pad2)*%
X173150000Y-93150000D03*
%TO.P,U2,14,P0.11_14*%
%TO.N,unconnected-(U2-P0.11-Pad14)*%
X172750000Y-93150000D03*
%TO.P,U2,15,P0.12_15*%
%TO.N,unconnected-(U2-P0.12-Pad15)*%
X172350000Y-93150000D03*
%TO.P,U2,16,P0.13_16*%
%TO.N,unconnected-(U2-P0.13-Pad16)*%
X171950000Y-93150000D03*
%TO.P,U2,17,P0.14_17*%
%TO.N,unconnected-(U2-P0.14-Pad17)*%
X171550000Y-93150000D03*
%TO.P,U2,18,P0.15_18*%
%TO.N,unconnected-(U2-P0.15-Pad18)*%
X171150000Y-93150000D03*
%TO.P,U2,19,P0.16_19*%
%TO.N,unconnected-(U2-P0.16-Pad19)*%
X170750000Y-93150000D03*
%TO.P,U2,20,P0.17_20*%
%TO.N,unconnected-(U2-P0.17-Pad20)*%
X170350000Y-93150000D03*
%TO.P,U2,21,P0.18/SWO_21*%
%TO.N,unconnected-(U2-P0.18{slash}SWO-Pad21)*%
X169950000Y-93150000D03*
%TO.P,U2,22,P0.19_22*%
%TO.N,unconnected-(U2-P0.19-Pad22)*%
X169550000Y-93150000D03*
%TO.P,U2,23,P0.20_23*%
%TO.N,unconnected-(U2-P0.20-Pad23)*%
X169150000Y-93150000D03*
%TO.P,U2,24,P0.21/~{RESET}_24*%
%TO.N,Net-(U2-P0.21{slash}~{RESET})*%
X168750000Y-93150000D03*
D16*
%TO.P,U2,25,SWDCLK_25*%
%TO.N,Net-(U2-SWDCLK)*%
X168000000Y-93900000D03*
%TO.P,U2,26,SWDIO_26*%
%TO.N,Net-(U2-SWDIO)*%
X168000000Y-94300000D03*
%TO.P,U2,27,P0.22_27*%
%TO.N,unconnected-(U2-P0.22-Pad27)*%
X168000000Y-94700000D03*
%TO.P,U2,28,P0.23_28*%
%TO.N,unconnected-(U2-P0.23-Pad28)*%
X168000000Y-95100000D03*
%TO.P,U2,29,P0.24_29*%
%TO.N,unconnected-(U2-P0.24-Pad29)*%
X168000000Y-95500000D03*
%TO.P,U2,30,ANT_30*%
%TO.N,Net-(U2-ANT)*%
X168000000Y-95900000D03*
%TO.P,U2,31,VSS_31*%
%TO.N,GND*%
X168000000Y-96300000D03*
%TO.P,U2,32,DEC2_32*%
%TO.N,Net-(U2-DEC2)*%
X168000000Y-96700000D03*
%TO.P,U2,33,DEC3_33*%
%TO.N,Net-(U2-DEC3)*%
X168000000Y-97100000D03*
%TO.P,U2,34,XC1_34*%
%TO.N,Net-(U2-XC1)*%
X168000000Y-97500000D03*
%TO.P,U2,35,XC2_35*%
%TO.N,Net-(U2-XC2)*%
X168000000Y-97900000D03*
%TO.P,U2,36,VDD_36*%
%TO.N,Net-(C8-Pad2)*%
X168000000Y-98300000D03*
D17*
%TO.P,U2,37,P0.25_37*%
%TO.N,unconnected-(U2-P0.25-Pad37)*%
X168750000Y-99050000D03*
%TO.P,U2,38,P0.26_38*%
%TO.N,unconnected-(U2-P0.26-Pad38)*%
X169150000Y-99050000D03*
%TO.P,U2,39,P0.27_39*%
%TO.N,unconnected-(U2-P0.27-Pad39)*%
X169550000Y-99050000D03*
%TO.P,U2,40,P0.28/AIN4_40*%
%TO.N,unconnected-(U2-P0.28{slash}AIN4-Pad40)*%
X169950000Y-99050000D03*
%TO.P,U2,41,P0.29/AIN5_41*%
%TO.N,unconnected-(U2-P0.29{slash}AIN5-Pad41)*%
X170350000Y-99050000D03*
%TO.P,U2,42,P0.30/AIN6_42*%
%TO.N,unconnected-(U2-P0.30{slash}AIN6-Pad42)*%
X170750000Y-99050000D03*
%TO.P,U2,43,P0.31/AIN7_43*%
%TO.N,unconnected-(U2-P0.31{slash}AIN7-Pad43)*%
X171150000Y-99050000D03*
%TO.P,U2,44,NC_44*%
%TO.N,unconnected-(U2-NC-Pad44)*%
X171550000Y-99050000D03*
%TO.P,U2,45,VSS_45*%
%TO.N,GND*%
X171950000Y-99050000D03*
%TO.P,U2,46,DEC4_46*%
%TO.N,Net-(U2-DEC4)*%
X172350000Y-99050000D03*
%TO.P,U2,47,DCC_47*%
%TO.N,unconnected-(U2-DCC-Pad47)*%
X172750000Y-99050000D03*
%TO.P,U2,48,VDD_48*%
%TO.N,Net-(C8-Pad2)*%
X173150000Y-99050000D03*
D18*
%TO.P,U2,49,VSS_49*%
%TO.N,GND*%
X170950000Y-96100000D03*
%TD*%
D19*
%TO.P,R5,1*%
%TO.N,/Dice/DIE_PWR*%
X132896856Y-56901004D03*
%TO.P,R5,2*%
%TO.N,/Dice/I2C_SCL*%
X133916856Y-56901004D03*
%TD*%
D11*
%TO.P,C11,1*%
%TO.N,/Dice/DIE_PWR*%
X170732282Y-58368623D03*
%TO.P,C11,2*%
%TO.N,GND*%
X170732282Y-59328623D03*
%TD*%
D20*
%TO.P,J10,1,Pin_1_1*%
%TO.N,/Dice/DOCK+*%
X184160666Y-79895380D03*
D21*
%TO.P,J10,2,Pin_2_2*%
%TO.N,GND*%
X184160666Y-82435380D03*
%TD*%
D12*
%TO.P,R3,1*%
%TO.N,Net-(D1-K)*%
X187774158Y-79785326D03*
%TO.P,R3,2*%
%TO.N,/Dice/DIE_PWR*%
X186754158Y-79785326D03*
%TD*%
D22*
%TO.P,L1,1*%
%TO.N,Net-(U2-ANT)*%
X169985000Y-60500000D03*
%TO.P,L1,2*%
%TO.N,Net-(AE1-PCB_Trace)*%
X169015000Y-60500000D03*
%TD*%
D23*
%TO.P,C7,1*%
%TO.N,GND*%
X174899713Y-100047138D03*
%TO.P,C7,2*%
%TO.N,Net-(U2-DEC4)*%
X173939713Y-100047138D03*
%TD*%
D24*
%TO.P,L1,1*%
%TO.N,Net-(U2-ANT)*%
X126550000Y-79465000D03*
%TO.P,L1,2*%
%TO.N,Net-(AE1-PCB_Trace)*%
X126550000Y-80435000D03*
%TD*%
D11*
%TO.P,C13,1*%
%TO.N,Net-(AE1-PCB_Trace)*%
X174000000Y-118520000D03*
%TO.P,C13,2*%
%TO.N,GND*%
X174000000Y-119480000D03*
%TD*%
D20*
%TO.P,J10,1,Pin_1_1*%
%TO.N,/Dice/DOCK+*%
X181339334Y-107604620D03*
D21*
%TO.P,J10,2,Pin_2_2*%
%TO.N,GND*%
X181339334Y-105064620D03*
%TD*%
D13*
%TO.P,TP4,1,1_1*%
%TO.N,/Dice/DIE_PWR*%
X158500000Y-74500000D03*
%TD*%
D25*
%TO.P,U2,1,DEC1_1*%
%TO.N,Net-(U2-DEC1)*%
X150800000Y-78600000D03*
%TO.P,U2,2,P0.00/XL1_2*%
%TO.N,unconnected-(U2-P0.00{slash}XL1-Pad2)*%
X150400000Y-78600000D03*
%TO.P,U2,3,P0.01/XL2_3*%
%TO.N,unconnected-(U2-P0.01{slash}XL2-Pad3)*%
X150000000Y-78600000D03*
%TO.P,U2,4,P0.02/AIN0_4*%
%TO.N,/Dice/MOTION_INT*%
X149600000Y-78600000D03*
%TO.P,U2,5,P0.03/AIN1_5*%
%TO.N,/Dice/I2C_SCL*%
X149200000Y-78600000D03*
%TO.P,U2,6,P0.04/AIN2_6*%
%TO.N,/Dice/I2C_SDA*%
X148800000Y-78600000D03*
%TO.P,U2,7,P0.05/AIN3_7*%
%TO.N,unconnected-(U2-P0.05{slash}AIN3-Pad7)*%
X148400000Y-78600000D03*
%TO.P,U2,8,P0.06_8*%
%TO.N,unconnected-(U2-P0.06-Pad8)*%
X148000000Y-78600000D03*
%TO.P,U2,9,P0.07_9*%
%TO.N,unconnected-(U2-P0.07-Pad9)*%
X147600000Y-78600000D03*
%TO.P,U2,10,P0.08_10*%
%TO.N,unconnected-(U2-P0.08-Pad10)*%
X147200000Y-78600000D03*
%TO.P,U2,11,NFC1/P0.09_11*%
%TO.N,unconnected-(U2-NFC1{slash}P0.09-Pad11)*%
X146800000Y-78600000D03*
%TO.P,U2,12,NFC2/P0.10_12*%
%TO.N,unconnected-(U2-NFC2{slash}P0.10-Pad12)*%
X146400000Y-78600000D03*
D26*
%TO.P,U2,13,VDD_13*%
%TO.N,Net-(C8-Pad2)*%
X145650000Y-79350000D03*
%TO.P,U2,14,P0.11_14*%
%TO.N,unconnected-(U2-P0.11-Pad14)*%
X145650000Y-79750000D03*
%TO.P,U2,15,P0.12_15*%
%TO.N,unconnected-(U2-P0.12-Pad15)*%
X145650000Y-80150000D03*
%TO.P,U2,16,P0.13_16*%
%TO.N,unconnected-(U2-P0.13-Pad16)*%
X145650000Y-80550000D03*
%TO.P,U2,17,P0.14_17*%
%TO.N,unconnected-(U2-P0.14-Pad17)*%
X145650000Y-80950000D03*
%TO.P,U2,18,P0.15_18*%
%TO.N,unconnected-(U2-P0.15-Pad18)*%
X145650000Y-81350000D03*
%TO.P,U2,19,P0.16_19*%
%TO.N,unconnected-(U2-P0.16-Pad19)*%
X145650000Y-81750000D03*
%TO.P,U2,20,P0.17_20*%
%TO.N,unconnected-(U2-P0.17-Pad20)*%
X145650000Y-82150000D03*
%TO.P,U2,21,P0.18/SWO_21*%
%TO.N,unconnected-(U2-P0.18{slash}SWO-Pad21)*%
X145650000Y-82550000D03*
%TO.P,U2,22,P0.19_22*%
%TO.N,unconnected-(U2-P0.19-Pad22)*%
X145650000Y-82950000D03*
%TO.P,U2,23,P0.20_23*%
%TO.N,unconnected-(U2-P0.20-Pad23)*%
X145650000Y-83350000D03*
%TO.P,U2,24,P0.21/~{RESET}_24*%
%TO.N,Net-(U2-P0.21{slash}~{RESET})*%
X145650000Y-83750000D03*
D25*
%TO.P,U2,25,SWDCLK_25*%
%TO.N,Net-(U2-SWDCLK)*%
X146400000Y-84500000D03*
%TO.P,U2,26,SWDIO_26*%
%TO.N,Net-(U2-SWDIO)*%
X146800000Y-84500000D03*
%TO.P,U2,27,P0.22_27*%
%TO.N,unconnected-(U2-P0.22-Pad27)*%
X147200000Y-84500000D03*
%TO.P,U2,28,P0.23_28*%
%TO.N,unconnected-(U2-P0.23-Pad28)*%
X147600000Y-84500000D03*
%TO.P,U2,29,P0.24_29*%
%TO.N,unconnected-(U2-P0.24-Pad29)*%
X148000000Y-84500000D03*
%TO.P,U2,30,ANT_30*%
%TO.N,Net-(U2-ANT)*%
X148400000Y-84500000D03*
%TO.P,U2,31,VSS_31*%
%TO.N,GND*%
X148800000Y-84500000D03*
%TO.P,U2,32,DEC2_32*%
%TO.N,Net-(U2-DEC2)*%
X149200000Y-84500000D03*
%TO.P,U2,33,DEC3_33*%
%TO.N,Net-(U2-DEC3)*%
X149600000Y-84500000D03*
%TO.P,U2,34,XC1_34*%
%TO.N,Net-(U2-XC1)*%
X150000000Y-84500000D03*
%TO.P,U2,35,XC2_35*%
%TO.N,Net-(U2-XC2)*%
X150400000Y-84500000D03*
%TO.P,U2,36,VDD_36*%
%TO.N,Net-(C8-Pad2)*%
X150800000Y-84500000D03*
D26*
%TO.P,U2,37,P0.25_37*%
%TO.N,unconnected-(U2-P0.25-Pad37)*%
X151550000Y-83750000D03*
%TO.P,U2,38,P0.26_38*%
%TO.N,unconnected-(U2-P0.26-Pad38)*%
X151550000Y-83350000D03*
%TO.P,U2,39,P0.27_39*%
%TO.N,unconnected-(U2-P0.27-Pad39)*%
X151550000Y-82950000D03*
%TO.P,U2,40,P0.28/AIN4_40*%
%TO.N,unconnected-(U2-P0.28{slash}AIN4-Pad40)*%
X151550000Y-82550000D03*
%TO.P,U2,41,P0.29/AIN5_41*%
%TO.N,unconnected-(U2-P0.29{slash}AIN5-Pad41)*%
X151550000Y-82150000D03*
%TO.P,U2,42,P0.30/AIN6_42*%
%TO.N,unconnected-(U2-P0.30{slash}AIN6-Pad42)*%
X151550000Y-81750000D03*
%TO.P,U2,43,P0.31/AIN7_43*%
%TO.N,unconnected-(U2-P0.31{slash}AIN7-Pad43)*%
X151550000Y-81350000D03*
%TO.P,U2,44,NC_44*%
%TO.N,unconnected-(U2-NC-Pad44)*%
X151550000Y-80950000D03*
%TO.P,U2,45,VSS_45*%
%TO.N,GND*%
X151550000Y-80550000D03*
%TO.P,U2,46,DEC4_46*%
%TO.N,Net-(U2-DEC4)*%
X151550000Y-80150000D03*
%TO.P,U2,47,DCC_47*%
%TO.N,unconnected-(U2-DCC-Pad47)*%
X151550000Y-79750000D03*
%TO.P,U2,48,VDD_48*%
%TO.N,Net-(C8-Pad2)*%
X151550000Y-79350000D03*
D18*
%TO.P,U2,49,VSS_49*%
%TO.N,GND*%
X148600000Y-81550000D03*
%TD*%
D11*
%TO.P,C10,1*%
%TO.N,GND*%
X170392642Y-84233091D03*
%TO.P,C10,2*%
%TO.N,Net-(U2-XC2)*%
X170392642Y-85193091D03*
%TD*%
D15*
%TO.P,C3,1*%
%TO.N,/Dice/DIE_PWR*%
X180491477Y-58988157D03*
%TO.P,C3,2*%
%TO.N,GND*%
X180491477Y-53988157D03*
%TD*%
D13*
%TO.P,TP1,1,1_1*%
%TO.N,Net-(U2-SWDIO)*%
X167005591Y-100431024D03*
%TD*%
%TO.P,TP1,1,1_1*%
%TO.N,Net-(U2-SWDIO)*%
X151568976Y-52505591D03*
%TD*%
D23*
%TO.P,C7,1*%
%TO.N,GND*%
X126449713Y-62997138D03*
%TO.P,C7,2*%
%TO.N,Net-(U2-DEC4)*%
X125489713Y-62997138D03*
%TD*%
D13*
%TO.P,TP2,1,1_1*%
%TO.N,Net-(U2-SWDCLK)*%
X144613945Y-85483863D03*
%TD*%
D27*
%TO.P,D1,1,K_1*%
%TO.N,Net-(D1-K)*%
X187913696Y-122914221D03*
%TO.P,D1,2,A_2*%
%TO.N,/Dice/DOCK+*%
X187913696Y-121514221D03*
%TD*%
D28*
%TO.P,L1,1*%
%TO.N,Net-(U2-ANT)*%
X195515000Y-125500000D03*
%TO.P,L1,2*%
%TO.N,Net-(AE1-PCB_Trace)*%
X196485000Y-125500000D03*
%TD*%
D10*
%TO.P,R5,1*%
%TO.N,/Dice/DIE_PWR*%
X194098996Y-68396856D03*
%TO.P,R5,2*%
%TO.N,/Dice/I2C_SCL*%
X194098996Y-69416856D03*
%TD*%
D13*
%TO.P,TP1,1,1_1*%
%TO.N,Net-(U2-SWDIO)*%
X118555591Y-63381024D03*
%TD*%
%TO.P,TP3,1,1_1*%
%TO.N,Net-(U2-P0.21{slash}~{RESET})*%
X194416753Y-60416754D03*
%TD*%
D23*
%TO.P,AE1,1,FEED_1*%
%TO.N,GND*%
X198480000Y-125500000D03*
%TO.P,AE1,2,PCB_Trace_2*%
%TO.N,Net-(AE1-PCB_Trace)*%
X197520000Y-125500000D03*
%TD*%
D11*
%TO.P,C5,1*%
%TO.N,GND*%
X179200765Y-130281157D03*
%TO.P,C5,2*%
%TO.N,Net-(U2-DEC2)*%
X179200765Y-131241157D03*
%TD*%
D13*
%TO.P,TP4,1,1_1*%
%TO.N,/Dice/DIE_PWR*%
X178000000Y-106000000D03*
%TD*%
%TO.P,TP1,1,1_1*%
%TO.N,Net-(U2-SWDIO)*%
X179431024Y-133494409D03*
%TD*%
%TO.P,TP4,1,1_1*%
%TO.N,/Dice/DIE_PWR*%
X187500000Y-81500000D03*
%TD*%
D29*
%TO.P,D1,1,K_1*%
%TO.N,Net-(D1-K)*%
X177585779Y-108913696D03*
%TO.P,D1,2,A_2*%
%TO.N,/Dice/DOCK+*%
X178985779Y-108913696D03*
%TD*%
D30*
%TO.P,U3,1,SDO_1*%
%TO.N,GND*%
X193604565Y-70681570D03*
%TO.P,U3,2,SDX_2*%
%TO.N,/Dice/I2C_SDA*%
X193604565Y-71181570D03*
%TO.P,U3,3,VDDIO_3*%
%TO.N,/Dice/DIE_PWR*%
X193604565Y-71681570D03*
%TO.P,U3,4,NC_4*%
%TO.N,unconnected-(U3-NC-Pad4)*%
X193604565Y-72181570D03*
D31*
%TO.P,U3,5,INT1_5*%
%TO.N,/Dice/MOTION_INT*%
X194117065Y-72194070D03*
%TO.P,U3,6,INT2_6*%
%TO.N,unconnected-(U3-INT2-Pad6)*%
X194617065Y-72194070D03*
D30*
%TO.P,U3,7,VDD_7*%
%TO.N,/Dice/DIE_PWR*%
X195129565Y-72181570D03*
%TO.P,U3,8,GNDIO_8*%
%TO.N,GND*%
X195129565Y-71681570D03*
%TO.P,U3,9,GND_9*%
X195129565Y-71181570D03*
%TO.P,U3,10,CSB_10*%
%TO.N,/Dice/DIE_PWR*%
X195129565Y-70681570D03*
D31*
%TO.P,U3,11,NC_11*%
%TO.N,unconnected-(U3-NC-Pad11)*%
X194617065Y-70669070D03*
%TO.P,U3,12,SCX_12*%
%TO.N,/Dice/I2C_SCL*%
X194117065Y-70669070D03*
%TD*%
D23*
%TO.P,C13,1*%
%TO.N,Net-(AE1-PCB_Trace)*%
X133480000Y-59500000D03*
%TO.P,C13,2*%
%TO.N,GND*%
X132520000Y-59500000D03*
%TD*%
D20*
%TO.P,J6,1,Pin_1_1*%
%TO.N,/Dice/DOCK+*%
X146295000Y-100740000D03*
D21*
%TO.P,J6,2,Pin_2_2*%
%TO.N,GND*%
X146295000Y-103280000D03*
%TD*%
D20*
%TO.P,J10,1,Pin_1_1*%
%TO.N,/Dice/DOCK+*%
X144395380Y-66839334D03*
D21*
%TO.P,J10,2,Pin_2_2*%
%TO.N,GND*%
X146935380Y-66839334D03*
%TD*%
D11*
%TO.P,C4,1*%
%TO.N,GND*%
X151620105Y-76940366D03*
%TO.P,C4,2*%
%TO.N,Net-(U2-DEC1)*%
X151620105Y-77900366D03*
%TD*%
%TO.P,C5,1*%
%TO.N,GND*%
X152700765Y-82281157D03*
%TO.P,C5,2*%
%TO.N,Net-(U2-DEC2)*%
X152700765Y-83241157D03*
%TD*%
D23*
%TO.P,C11,1*%
%TO.N,/Dice/DIE_PWR*%
X192631377Y-71732282D03*
%TO.P,C11,2*%
%TO.N,GND*%
X191671377Y-71732282D03*
%TD*%
D11*
%TO.P,C9,1*%
%TO.N,GND*%
X137715599Y-52906742D03*
%TO.P,C9,2*%
%TO.N,Net-(U2-XC1)*%
X137715599Y-53866742D03*
%TD*%
%TO.P,AE1,1,FEED_1*%
%TO.N,GND*%
X190500000Y-68020000D03*
%TO.P,AE1,2,PCB_Trace_2*%
%TO.N,Net-(AE1-PCB_Trace)*%
X190500000Y-68980000D03*
%TD*%
D13*
%TO.P,TP1,1,1_1*%
%TO.N,Net-(U2-SWDIO)*%
X198494409Y-87068976D03*
%TD*%
D32*
%TO.P,Y1,1,1_1*%
%TO.N,Net-(U2-XC1)*%
X170959939Y-54083657D03*
%TO.P,Y1,2,G_2*%
%TO.N,GND*%
X170959939Y-52683657D03*
%TO.P,Y1,3,3_3*%
%TO.N,Net-(U2-XC2)*%
X169859939Y-52683657D03*
%TO.P,Y1,4,G_4*%
%TO.N,GND*%
X169859939Y-54083657D03*
%TD*%
D30*
%TO.P,U3,1,SDO_1*%
%TO.N,GND*%
X171895435Y-116818430D03*
%TO.P,U3,2,SDX_2*%
%TO.N,/Dice/I2C_SDA*%
X171895435Y-116318430D03*
%TO.P,U3,3,VDDIO_3*%
%TO.N,/Dice/DIE_PWR*%
X171895435Y-115818430D03*
%TO.P,U3,4,NC_4*%
%TO.N,unconnected-(U3-NC-Pad4)*%
X171895435Y-115318430D03*
D31*
%TO.P,U3,5,INT1_5*%
%TO.N,/Dice/MOTION_INT*%
X171382935Y-115305930D03*
%TO.P,U3,6,INT2_6*%
%TO.N,unconnected-(U3-INT2-Pad6)*%
X170882935Y-115305930D03*
D30*
%TO.P,U3,7,VDD_7*%
%TO.N,/Dice/DIE_PWR*%
X170370435Y-115318430D03*
%TO.P,U3,8,GNDIO_8*%
%TO.N,GND*%
X170370435Y-115818430D03*
%TO.P,U3,9,GND_9*%
X170370435Y-116318430D03*
%TO.P,U3,10,CSB_10*%
%TO.N,/Dice/DIE_PWR*%
X170370435Y-116818430D03*
D31*
%TO.P,U3,11,NC_11*%
%TO.N,unconnected-(U3-NC-Pad11)*%
X170882935Y-116830930D03*
%TO.P,U3,12,SCX_12*%
%TO.N,/Dice/I2C_SCL*%
X171382935Y-116830930D03*
%TD*%
D33*
%TO.P,C9,1*%
%TO.N,GND*%
X167406742Y-114284401D03*
%TO.P,C9,2*%
%TO.N,Net-(U2-XC1)*%
X168366742Y-114284401D03*
%TD*%
D23*
%TO.P,C6,1*%
%TO.N,GND*%
X118964018Y-65556260D03*
%TO.P,C6,2*%
%TO.N,Net-(U2-DEC3)*%
X118004018Y-65556260D03*
%TD*%
D20*
%TO.P,J10,1,Pin_1_1*%
%TO.N,/Dice/DOCK+*%
X132889334Y-70554620D03*
D21*
%TO.P,J10,2,Pin_2_2*%
%TO.N,GND*%
X132889334Y-68014620D03*
%TD*%
D34*
%TO.P,C9,1*%
%TO.N,GND*%
X193284401Y-133093258D03*
%TO.P,C9,2*%
%TO.N,Net-(U2-XC1)*%
X193284401Y-132133258D03*
%TD*%
%TO.P,C9,1*%
%TO.N,GND*%
X166784401Y-85093258D03*
%TO.P,C9,2*%
%TO.N,Net-(U2-XC1)*%
X166784401Y-84133258D03*
%TD*%
D33*
%TO.P,C6,1*%
%TO.N,GND*%
X198085982Y-84893740D03*
%TO.P,C6,2*%
%TO.N,Net-(U2-DEC3)*%
X199045982Y-84893740D03*
%TD*%
D23*
%TO.P,C9,1*%
%TO.N,GND*%
X198093258Y-73215599D03*
%TO.P,C9,2*%
%TO.N,Net-(U2-XC1)*%
X197133258Y-73215599D03*
%TD*%
D11*
%TO.P,C10,1*%
%TO.N,GND*%
X196892642Y-132233091D03*
%TO.P,C10,2*%
%TO.N,Net-(U2-XC2)*%
X196892642Y-133193091D03*
%TD*%
D33*
%TO.P,C11,1*%
%TO.N,/Dice/DIE_PWR*%
X172868623Y-115767718D03*
%TO.P,C11,2*%
%TO.N,GND*%
X173828623Y-115767718D03*
%TD*%
D35*
%TO.P,C3,1*%
%TO.N,/Dice/DIE_PWR*%
X125038157Y-68958523D03*
%TO.P,C3,2*%
%TO.N,GND*%
X120038157Y-68958523D03*
%TD*%
D11*
%TO.P,C4,1*%
%TO.N,GND*%
X178120105Y-124940366D03*
%TO.P,C4,2*%
%TO.N,Net-(U2-DEC1)*%
X178120105Y-125900366D03*
%TD*%
D27*
%TO.P,D1,1,K_1*%
%TO.N,Net-(D1-K)*%
X161413696Y-74914221D03*
%TO.P,D1,2,A_2*%
%TO.N,/Dice/DOCK+*%
X161413696Y-73514221D03*
%TD*%
D33*
%TO.P,AE1,1,FEED_1*%
%TO.N,GND*%
X132520000Y-60500000D03*
%TO.P,AE1,2,PCB_Trace_2*%
%TO.N,Net-(AE1-PCB_Trace)*%
X133480000Y-60500000D03*
%TD*%
D34*
%TO.P,C6,1*%
%TO.N,GND*%
X183893740Y-52914018D03*
%TO.P,C6,2*%
%TO.N,Net-(U2-DEC3)*%
X183893740Y-51954018D03*
%TD*%
D25*
%TO.P,U2,1,DEC1_1*%
%TO.N,Net-(U2-DEC1)*%
X177300000Y-126600000D03*
%TO.P,U2,2,P0.00/XL1_2*%
%TO.N,unconnected-(U2-P0.00{slash}XL1-Pad2)*%
X176900000Y-126600000D03*
%TO.P,U2,3,P0.01/XL2_3*%
%TO.N,unconnected-(U2-P0.01{slash}XL2-Pad3)*%
X176500000Y-126600000D03*
%TO.P,U2,4,P0.02/AIN0_4*%
%TO.N,/Dice/MOTION_INT*%
X176100000Y-126600000D03*
%TO.P,U2,5,P0.03/AIN1_5*%
%TO.N,/Dice/I2C_SCL*%
X175700000Y-126600000D03*
%TO.P,U2,6,P0.04/AIN2_6*%
%TO.N,/Dice/I2C_SDA*%
X175300000Y-126600000D03*
%TO.P,U2,7,P0.05/AIN3_7*%
%TO.N,unconnected-(U2-P0.05{slash}AIN3-Pad7)*%
X174900000Y-126600000D03*
%TO.P,U2,8,P0.06_8*%
%TO.N,unconnected-(U2-P0.06-Pad8)*%
X174500000Y-126600000D03*
%TO.P,U2,9,P0.07_9*%
%TO.N,unconnected-(U2-P0.07-Pad9)*%
X174100000Y-126600000D03*
%TO.P,U2,10,P0.08_10*%
%TO.N,unconnected-(U2-P0.08-Pad10)*%
X173700000Y-126600000D03*
%TO.P,U2,11,NFC1/P0.09_11*%
%TO.N,unconnected-(U2-NFC1{slash}P0.09-Pad11)*%
X173300000Y-126600000D03*
%TO.P,U2,12,NFC2/P0.10_12*%
%TO.N,unconnected-(U2-NFC2{slash}P0.10-Pad12)*%
X172900000Y-126600000D03*
D26*
%TO.P,U2,13,VDD_13*%
%TO.N,Net-(C8-Pad2)*%
X172150000Y-127350000D03*
%TO.P,U2,14,P0.11_14*%
%TO.N,unconnected-(U2-P0.11-Pad14)*%
X172150000Y-127750000D03*
%TO.P,U2,15,P0.12_15*%
%TO.N,unconnected-(U2-P0.12-Pad15)*%
X172150000Y-128150000D03*
%TO.P,U2,16,P0.13_16*%
%TO.N,unconnected-(U2-P0.13-Pad16)*%
X172150000Y-128550000D03*
%TO.P,U2,17,P0.14_17*%
%TO.N,unconnected-(U2-P0.14-Pad17)*%
X172150000Y-128950000D03*
%TO.P,U2,18,P0.15_18*%
%TO.N,unconnected-(U2-P0.15-Pad18)*%
X172150000Y-129350000D03*
%TO.P,U2,19,P0.16_19*%
%TO.N,unconnected-(U2-P0.16-Pad19)*%
X172150000Y-129750000D03*
%TO.P,U2,20,P0.17_20*%
%TO.N,unconnected-(U2-P0.17-Pad20)*%
X172150000Y-130150000D03*
%TO.P,U2,21,P0.18/SWO_21*%
%TO.N,unconnected-(U2-P0.18{slash}SWO-Pad21)*%
X172150000Y-130550000D03*
%TO.P,U2,22,P0.19_22*%
%TO.N,unconnected-(U2-P0.19-Pad22)*%
X172150000Y-130950000D03*
%TO.P,U2,23,P0.20_23*%
%TO.N,unconnected-(U2-P0.20-Pad23)*%
X172150000Y-131350000D03*
%TO.P,U2,24,P0.21/~{RESET}_24*%
%TO.N,Net-(U2-P0.21{slash}~{RESET})*%
X172150000Y-131750000D03*
D25*
%TO.P,U2,25,SWDCLK_25*%
%TO.N,Net-(U2-SWDCLK)*%
X172900000Y-132500000D03*
%TO.P,U2,26,SWDIO_26*%
%TO.N,Net-(U2-SWDIO)*%
X173300000Y-132500000D03*
%TO.P,U2,27,P0.22_27*%
%TO.N,unconnected-(U2-P0.22-Pad27)*%
X173700000Y-132500000D03*
%TO.P,U2,28,P0.23_28*%
%TO.N,unconnected-(U2-P0.23-Pad28)*%
X174100000Y-132500000D03*
%TO.P,U2,29,P0.24_29*%
%TO.N,unconnected-(U2-P0.24-Pad29)*%
X174500000Y-132500000D03*
%TO.P,U2,30,ANT_30*%
%TO.N,Net-(U2-ANT)*%
X174900000Y-132500000D03*
%TO.P,U2,31,VSS_31*%
%TO.N,GND*%
X175300000Y-132500000D03*
%TO.P,U2,32,DEC2_32*%
%TO.N,Net-(U2-DEC2)*%
X175700000Y-132500000D03*
%TO.P,U2,33,DEC3_33*%
%TO.N,Net-(U2-DEC3)*%
X176100000Y-132500000D03*
%TO.P,U2,34,XC1_34*%
%TO.N,Net-(U2-XC1)*%
X176500000Y-132500000D03*
%TO.P,U2,35,XC2_35*%
%TO.N,Net-(U2-XC2)*%
X176900000Y-132500000D03*
%TO.P,U2,36,VDD_36*%
%TO.N,Net-(C8-Pad2)*%
X177300000Y-132500000D03*
D26*
%TO.P,U2,37,P0.25_37*%
%TO.N,unconnected-(U2-P0.25-Pad37)*%
X178050000Y-131750000D03*
%TO.P,U2,38,P0.26_38*%
%TO.N,unconnected-(U2-P0.26-Pad38)*%
X178050000Y-131350000D03*
%TO.P,U2,39,P0.27_39*%
%TO.N,unconnected-(U2-P0.27-Pad39)*%
X178050000Y-130950000D03*
%TO.P,U2,40,P0.28/AIN4_40*%
%TO.N,unconnected-(U2-P0.28{slash}AIN4-Pad40)*%
X178050000Y-130550000D03*
%TO.P,U2,41,P0.29/AIN5_41*%
%TO.N,unconnected-(U2-P0.29{slash}AIN5-Pad41)*%
X178050000Y-130150000D03*
%TO.P,U2,42,P0.30/AIN6_42*%
%TO.N,unconnected-(U2-P0.30{slash}AIN6-Pad42)*%
X178050000Y-129750000D03*
%TO.P,U2,43,P0.31/AIN7_43*%
%TO.N,unconnected-(U2-P0.31{slash}AIN7-Pad43)*%
X178050000Y-129350000D03*
%TO.P,U2,44,NC_44*%
%TO.N,unconnected-(U2-NC-Pad44)*%
X178050000Y-128950000D03*
%TO.P,U2,45,VSS_45*%
%TO.N,GND*%
X178050000Y-128550000D03*
%TO.P,U2,46,DEC4_46*%
%TO.N,Net-(U2-DEC4)*%
X178050000Y-128150000D03*
%TO.P,U2,47,DCC_47*%
%TO.N,unconnected-(U2-DCC-Pad47)*%
X178050000Y-127750000D03*
%TO.P,U2,48,VDD_48*%
%TO.N,Net-(C8-Pad2)*%
X178050000Y-127350000D03*
D18*
%TO.P,U2,49,VSS_49*%
%TO.N,GND*%
X175100000Y-129550000D03*
%TD*%
D23*
%TO.P,C12,1*%
%TO.N,GND*%
X169425199Y-91488820D03*
%TO.P,C12,2*%
%TO.N,Net-(U2-ANT)*%
X168465199Y-91488820D03*
%TD*%
D34*
%TO.P,C8,1*%
%TO.N,/Dice/DIE_PWR*%
X194962367Y-58889218D03*
%TO.P,C8,2*%
%TO.N,Net-(C8-Pad2)*%
X194962367Y-57929218D03*
%TD*%
D36*
%TO.P,U2,1,DEC1_1*%
%TO.N,Net-(U2-DEC1)*%
X188200000Y-59400000D03*
%TO.P,U2,2,P0.00/XL1_2*%
%TO.N,unconnected-(U2-P0.00{slash}XL1-Pad2)*%
X188600000Y-59400000D03*
%TO.P,U2,3,P0.01/XL2_3*%
%TO.N,unconnected-(U2-P0.01{slash}XL2-Pad3)*%
X189000000Y-59400000D03*
%TO.P,U2,4,P0.02/AIN0_4*%
%TO.N,/Dice/MOTION_INT*%
X189400000Y-59400000D03*
%TO.P,U2,5,P0.03/AIN1_5*%
%TO.N,/Dice/I2C_SCL*%
X189800000Y-59400000D03*
%TO.P,U2,6,P0.04/AIN2_6*%
%TO.N,/Dice/I2C_SDA*%
X190200000Y-59400000D03*
%TO.P,U2,7,P0.05/AIN3_7*%
%TO.N,unconnected-(U2-P0.05{slash}AIN3-Pad7)*%
X190600000Y-59400000D03*
%TO.P,U2,8,P0.06_8*%
%TO.N,unconnected-(U2-P0.06-Pad8)*%
X191000000Y-59400000D03*
%TO.P,U2,9,P0.07_9*%
%TO.N,unconnected-(U2-P0.07-Pad9)*%
X191400000Y-59400000D03*
%TO.P,U2,10,P0.08_10*%
%TO.N,unconnected-(U2-P0.08-Pad10)*%
X191800000Y-59400000D03*
%TO.P,U2,11,NFC1/P0.09_11*%
%TO.N,unconnected-(U2-NFC1{slash}P0.09-Pad11)*%
X192200000Y-59400000D03*
%TO.P,U2,12,NFC2/P0.10_12*%
%TO.N,unconnected-(U2-NFC2{slash}P0.10-Pad12)*%
X192600000Y-59400000D03*
D37*
%TO.P,U2,13,VDD_13*%
%TO.N,Net-(C8-Pad2)*%
X193350000Y-58650000D03*
%TO.P,U2,14,P0.11_14*%
%TO.N,unconnected-(U2-P0.11-Pad14)*%
X193350000Y-58250000D03*
%TO.P,U2,15,P0.12_15*%
%TO.N,unconnected-(U2-P0.12-Pad15)*%
X193350000Y-57850000D03*
%TO.P,U2,16,P0.13_16*%
%TO.N,unconnected-(U2-P0.13-Pad16)*%
X193350000Y-57450000D03*
%TO.P,U2,17,P0.14_17*%
%TO.N,unconnected-(U2-P0.14-Pad17)*%
X193350000Y-57050000D03*
%TO.P,U2,18,P0.15_18*%
%TO.N,unconnected-(U2-P0.15-Pad18)*%
X193350000Y-56650000D03*
%TO.P,U2,19,P0.16_19*%
%TO.N,unconnected-(U2-P0.16-Pad19)*%
X193350000Y-56250000D03*
%TO.P,U2,20,P0.17_20*%
%TO.N,unconnected-(U2-P0.17-Pad20)*%
X193350000Y-55850000D03*
%TO.P,U2,21,P0.18/SWO_21*%
%TO.N,unconnected-(U2-P0.18{slash}SWO-Pad21)*%
X193350000Y-55450000D03*
%TO.P,U2,22,P0.19_22*%
%TO.N,unconnected-(U2-P0.19-Pad22)*%
X193350000Y-55050000D03*
%TO.P,U2,23,P0.20_23*%
%TO.N,unconnected-(U2-P0.20-Pad23)*%
X193350000Y-54650000D03*
%TO.P,U2,24,P0.21/~{RESET}_24*%
%TO.N,Net-(U2-P0.21{slash}~{RESET})*%
X193350000Y-54250000D03*
D36*
%TO.P,U2,25,SWDCLK_25*%
%TO.N,Net-(U2-SWDCLK)*%
X192600000Y-53500000D03*
%TO.P,U2,26,SWDIO_26*%
%TO.N,Net-(U2-SWDIO)*%
X192200000Y-53500000D03*
%TO.P,U2,27,P0.22_27*%
%TO.N,unconnected-(U2-P0.22-Pad27)*%
X191800000Y-53500000D03*
%TO.P,U2,28,P0.23_28*%
%TO.N,unconnected-(U2-P0.23-Pad28)*%
X191400000Y-53500000D03*
%TO.P,U2,29,P0.24_29*%
%TO.N,unconnected-(U2-P0.24-Pad29)*%
X191000000Y-53500000D03*
%TO.P,U2,30,ANT_30*%
%TO.N,Net-(U2-ANT)*%
X190600000Y-53500000D03*
%TO.P,U2,31,VSS_31*%
%TO.N,GND*%
X190200000Y-53500000D03*
%TO.P,U2,32,DEC2_32*%
%TO.N,Net-(U2-DEC2)*%
X189800000Y-53500000D03*
%TO.P,U2,33,DEC3_33*%
%TO.N,Net-(U2-DEC3)*%
X189400000Y-53500000D03*
%TO.P,U2,34,XC1_34*%
%TO.N,Net-(U2-XC1)*%
X189000000Y-53500000D03*
%TO.P,U2,35,XC2_35*%
%TO.N,Net-(U2-XC2)*%
X188600000Y-53500000D03*
%TO.P,U2,36,VDD_36*%
%TO.N,Net-(C8-Pad2)*%
X188200000Y-53500000D03*
D37*
%TO.P,U2,37,P0.25_37*%
%TO.N,unconnected-(U2-P0.25-Pad37)*%
X187450000Y-54250000D03*
%TO.P,U2,38,P0.26_38*%
%TO.N,unconnected-(U2-P0.26-Pad38)*%
X187450000Y-54650000D03*
%TO.P,U2,39,P0.27_39*%
%TO.N,unconnected-(U2-P0.27-Pad39)*%
X187450000Y-55050000D03*
%TO.P,U2,40,P0.28/AIN4_40*%
%TO.N,unconnected-(U2-P0.28{slash}AIN4-Pad40)*%
X187450000Y-55450000D03*
%TO.P,U2,41,P0.29/AIN5_41*%
%TO.N,unconnected-(U2-P0.29{slash}AIN5-Pad41)*%
X187450000Y-55850000D03*
%TO.P,U2,42,P0.30/AIN6_42*%
%TO.N,unconnected-(U2-P0.30{slash}AIN6-Pad42)*%
X187450000Y-56250000D03*
%TO.P,U2,43,P0.31/AIN7_43*%
%TO.N,unconnected-(U2-P0.31{slash}AIN7-Pad43)*%
X187450000Y-56650000D03*
%TO.P,U2,44,NC_44*%
%TO.N,unconnected-(U2-NC-Pad44)*%
X187450000Y-57050000D03*
%TO.P,U2,45,VSS_45*%
%TO.N,GND*%
X187450000Y-57450000D03*
%TO.P,U2,46,DEC4_46*%
%TO.N,Net-(U2-DEC4)*%
X187450000Y-57850000D03*
%TO.P,U2,47,DCC_47*%
%TO.N,unconnected-(U2-DCC-Pad47)*%
X187450000Y-58250000D03*
%TO.P,U2,48,VDD_48*%
%TO.N,Net-(C8-Pad2)*%
X187450000Y-58650000D03*
D18*
%TO.P,U2,49,VSS_49*%
%TO.N,GND*%
X190400000Y-56450000D03*
%TD*%
D38*
%TO.P,R4,1*%
%TO.N,/Dice/DIE_PWR*%
X169767629Y-59382527D03*
%TO.P,R4,2*%
%TO.N,/Dice/I2C_SDA*%
X169767629Y-58362527D03*
%TD*%
D12*
%TO.P,R4,1*%
%TO.N,/Dice/DIE_PWR*%
X173882527Y-116732371D03*
%TO.P,R4,2*%
%TO.N,/Dice/I2C_SDA*%
X172862527Y-116732371D03*
%TD*%
D33*
%TO.P,C11,1*%
%TO.N,/Dice/DIE_PWR*%
X124418623Y-78717718D03*
%TO.P,C11,2*%
%TO.N,GND*%
X125378623Y-78717718D03*
%TD*%
D39*
%TO.P,SW1,*%
%TO.N,*%
X142145000Y-133405000D03*
X142145000Y-135615000D03*
X149445000Y-133405000D03*
X149445000Y-135615000D03*
D40*
%TO.P,SW1,1,A_1*%
%TO.N,Net-(SW1-A)*%
X143545000Y-132755000D03*
%TO.P,SW1,2,B_2*%
%TO.N,Net-(BT1-+)*%
X146545000Y-132755000D03*
%TO.P,SW1,3,C_3*%
%TO.N,unconnected-(SW1-C-Pad3)*%
X148045000Y-132755000D03*
%TD*%
D33*
%TO.P,C8,1*%
%TO.N,/Dice/DIE_PWR*%
X192110782Y-95962367D03*
%TO.P,C8,2*%
%TO.N,Net-(C8-Pad2)*%
X193070782Y-95962367D03*
%TD*%
D20*
%TO.P,J7,1,Pin_1_1*%
%TO.N,/Dock/BL*%
X120795000Y-94625000D03*
D21*
%TO.P,J7,2,Pin_2_2*%
%TO.N,/Dock/CS*%
X120795000Y-97165000D03*
%TO.P,J7,3,Pin_3_3*%
%TO.N,/Dock/DC*%
X120795000Y-99705000D03*
%TO.P,J7,4,Pin_4_4*%
%TO.N,/Dock/RST*%
X120795000Y-102245000D03*
%TO.P,J7,5,Pin_5_5*%
%TO.N,/Dock/DIN*%
X120795000Y-104785000D03*
%TO.P,J7,6,Pin_6_6*%
%TO.N,/Dock/CLK*%
X120795000Y-107325000D03*
%TO.P,J7,7,Pin_7_7*%
%TO.N,/Dice/DOCK+*%
X120795000Y-109865000D03*
%TO.P,J7,8,Pin_8_8*%
%TO.N,GND*%
X120795000Y-112405000D03*
%TD*%
D11*
%TO.P,C7,1*%
%TO.N,GND*%
X179047138Y-125600287D03*
%TO.P,C7,2*%
%TO.N,Net-(U2-DEC4)*%
X179047138Y-126560287D03*
%TD*%
D33*
%TO.P,C4,1*%
%TO.N,GND*%
X189940366Y-88379895D03*
%TO.P,C4,2*%
%TO.N,Net-(U2-DEC1)*%
X190900366Y-88379895D03*
%TD*%
D23*
%TO.P,C12,1*%
%TO.N,GND*%
X120975199Y-54438820D03*
%TO.P,C12,2*%
%TO.N,Net-(U2-ANT)*%
X120015199Y-54438820D03*
%TD*%
D34*
%TO.P,C12,1*%
%TO.N,GND*%
X195011180Y-54925199D03*
%TO.P,C12,2*%
%TO.N,Net-(U2-ANT)*%
X195011180Y-53965199D03*
%TD*%
D41*
%TO.P,C3,1*%
%TO.N,/Dice/DIE_PWR*%
X158508523Y-79011843D03*
%TO.P,C3,2*%
%TO.N,GND*%
X158508523Y-84011843D03*
%TD*%
D20*
%TO.P,J10,1,Pin_1_1*%
%TO.N,/Dice/DOCK+*%
X160104620Y-71160666D03*
D21*
%TO.P,J10,2,Pin_2_2*%
%TO.N,GND*%
X157564620Y-71160666D03*
%TD*%
D11*
%TO.P,C11,1*%
%TO.N,/Dice/DIE_PWR*%
X136232282Y-58368623D03*
%TO.P,C11,2*%
%TO.N,GND*%
X136232282Y-59328623D03*
%TD*%
D20*
%TO.P,J2,1,Pin_1_1*%
%TO.N,/Dice/DOCK+*%
X157295000Y-117240000D03*
D21*
%TO.P,J2,2,Pin_2_2*%
%TO.N,GND*%
X157295000Y-119780000D03*
%TD*%
D42*
%TO.P,L1,1*%
%TO.N,Net-(U2-ANT)*%
X190500000Y-70985000D03*
%TO.P,L1,2*%
%TO.N,Net-(AE1-PCB_Trace)*%
X190500000Y-70015000D03*
%TD*%
D34*
%TO.P,C11,1*%
%TO.N,/Dice/DIE_PWR*%
X194767718Y-127631377D03*
%TO.P,C11,2*%
%TO.N,GND*%
X194767718Y-126671377D03*
%TD*%
D13*
%TO.P,TP4,1,1_1*%
%TO.N,/Dice/DIE_PWR*%
X129550000Y-68950000D03*
%TD*%
D10*
%TO.P,R3,1*%
%TO.N,Net-(D1-K)*%
X178785326Y-63225842D03*
%TO.P,R3,2*%
%TO.N,/Dice/DIE_PWR*%
X178785326Y-64245842D03*
%TD*%
D11*
%TO.P,C12,1*%
%TO.N,GND*%
X170488820Y-131074801D03*
%TO.P,C12,2*%
%TO.N,Net-(U2-ANT)*%
X170488820Y-132034801D03*
%TD*%
D33*
%TO.P,C7,1*%
%TO.N,GND*%
X190600287Y-87452862D03*
%TO.P,C7,2*%
%TO.N,Net-(U2-DEC4)*%
X191560287Y-87452862D03*
%TD*%
D20*
%TO.P,J8,1,Pin_1_1*%
%TO.N,/Dice/DOCK+*%
X157295000Y-100740000D03*
D21*
%TO.P,J8,2,Pin_2_2*%
%TO.N,GND*%
X157295000Y-103280000D03*
%TD*%
D31*
%TO.P,U3,1,SDO_1*%
%TO.N,GND*%
X169681570Y-57395435D03*
%TO.P,U3,2,SDX_2*%
%TO.N,/Dice/I2C_SDA*%
X170181570Y-57395435D03*
%TO.P,U3,3,VDDIO_3*%
%TO.N,/Dice/DIE_PWR*%
X170681570Y-57395435D03*
%TO.P,U3,4,NC_4*%
%TO.N,unconnected-(U3-NC-Pad4)*%
X171181570Y-57395435D03*
D30*
%TO.P,U3,5,INT1_5*%
%TO.N,/Dice/MOTION_INT*%
X171194070Y-56882935D03*
%TO.P,U3,6,INT2_6*%
%TO.N,unconnected-(U3-INT2-Pad6)*%
X171194070Y-56382935D03*
D31*
%TO.P,U3,7,VDD_7*%
%TO.N,/Dice/DIE_PWR*%
X171181570Y-55870435D03*
%TO.P,U3,8,GNDIO_8*%
%TO.N,GND*%
X170681570Y-55870435D03*
%TO.P,U3,9,GND_9*%
X170181570Y-55870435D03*
%TO.P,U3,10,CSB_10*%
%TO.N,/Dice/DIE_PWR*%
X169681570Y-55870435D03*
D30*
%TO.P,U3,11,NC_11*%
%TO.N,unconnected-(U3-NC-Pad11)*%
X169669070Y-56382935D03*
%TO.P,U3,12,SCX_12*%
%TO.N,/Dice/I2C_SCL*%
X169669070Y-56882935D03*
%TD*%
D34*
%TO.P,C8,1*%
%TO.N,/Dice/DIE_PWR*%
X160462367Y-58889218D03*
%TO.P,C8,2*%
%TO.N,Net-(C8-Pad2)*%
X160462367Y-57929218D03*
%TD*%
D23*
%TO.P,C8,1*%
%TO.N,/Dice/DIE_PWR*%
X173389218Y-91537633D03*
%TO.P,C8,2*%
%TO.N,Net-(C8-Pad2)*%
X172429218Y-91537633D03*
%TD*%
D34*
%TO.P,C4,1*%
%TO.N,GND*%
X152879895Y-61059634D03*
%TO.P,C4,2*%
%TO.N,Net-(U2-DEC1)*%
X152879895Y-60099634D03*
%TD*%
D35*
%TO.P,C3,1*%
%TO.N,/Dice/DIE_PWR*%
X173488157Y-106008523D03*
%TO.P,C3,2*%
%TO.N,GND*%
X168488157Y-106008523D03*
%TD*%
D23*
%TO.P,C5,1*%
%TO.N,GND*%
X121768843Y-63150765D03*
%TO.P,C5,2*%
%TO.N,Net-(U2-DEC2)*%
X120808843Y-63150765D03*
%TD*%
D13*
%TO.P,TP3,1,1_1*%
%TO.N,Net-(U2-P0.21{slash}~{RESET})*%
X159916753Y-60416754D03*
%TD*%
D23*
%TO.P,C6,1*%
%TO.N,GND*%
X167414018Y-102606260D03*
%TO.P,C6,2*%
%TO.N,Net-(U2-DEC3)*%
X166454018Y-102606260D03*
%TD*%
D34*
%TO.P,AE1,1,FEED_1*%
%TO.N,GND*%
X126550000Y-82430000D03*
%TO.P,AE1,2,PCB_Trace_2*%
%TO.N,Net-(AE1-PCB_Trace)*%
X126550000Y-81470000D03*
%TD*%
D31*
%TO.P,U3,1,SDO_1*%
%TO.N,GND*%
X135181570Y-57395435D03*
%TO.P,U3,2,SDX_2*%
%TO.N,/Dice/I2C_SDA*%
X135681570Y-57395435D03*
%TO.P,U3,3,VDDIO_3*%
%TO.N,/Dice/DIE_PWR*%
X136181570Y-57395435D03*
%TO.P,U3,4,NC_4*%
%TO.N,unconnected-(U3-NC-Pad4)*%
X136681570Y-57395435D03*
D30*
%TO.P,U3,5,INT1_5*%
%TO.N,/Dice/MOTION_INT*%
X136694070Y-56882935D03*
%TO.P,U3,6,INT2_6*%
%TO.N,unconnected-(U3-INT2-Pad6)*%
X136694070Y-56382935D03*
D31*
%TO.P,U3,7,VDD_7*%
%TO.N,/Dice/DIE_PWR*%
X136681570Y-55870435D03*
%TO.P,U3,8,GNDIO_8*%
%TO.N,GND*%
X136181570Y-55870435D03*
%TO.P,U3,9,GND_9*%
X135681570Y-55870435D03*
%TO.P,U3,10,CSB_10*%
%TO.N,/Dice/DIE_PWR*%
X135181570Y-55870435D03*
D30*
%TO.P,U3,11,NC_11*%
%TO.N,unconnected-(U3-NC-Pad11)*%
X135169070Y-56382935D03*
%TO.P,U3,12,SCX_12*%
%TO.N,/Dice/I2C_SCL*%
X135169070Y-56882935D03*
%TD*%
D13*
%TO.P,TP3,1,1_1*%
%TO.N,Net-(U2-P0.21{slash}~{RESET})*%
X144583247Y-77583246D03*
%TD*%
D23*
%TO.P,C4,1*%
%TO.N,GND*%
X175559634Y-99120105D03*
%TO.P,C4,2*%
%TO.N,Net-(U2-DEC1)*%
X174599634Y-99120105D03*
%TD*%
D13*
%TO.P,TP5,1,1_1*%
%TO.N,GND*%
X181066686Y-82226470D03*
%TD*%
%TO.P,TP5,1,1_1*%
%TO.N,GND*%
X157773530Y-68066686D03*
%TD*%
%TO.P,TP1,1,1_1*%
%TO.N,Net-(U2-SWDIO)*%
X152931024Y-85494409D03*
%TD*%
D38*
%TO.P,R3,1*%
%TO.N,Net-(D1-K)*%
X160214674Y-74774158D03*
%TO.P,R3,2*%
%TO.N,/Dice/DIE_PWR*%
X160214674Y-73754158D03*
%TD*%
D14*
%TO.P,D1,1,K_1*%
%TO.N,Net-(D1-K)*%
X177586304Y-63085779D03*
%TO.P,D1,2,A_2*%
%TO.N,/Dice/DOCK+*%
X177586304Y-64485779D03*
%TD*%
D11*
%TO.P,C12,1*%
%TO.N,GND*%
X143988820Y-83074801D03*
%TO.P,C12,2*%
%TO.N,Net-(U2-ANT)*%
X143988820Y-84034801D03*
%TD*%
D13*
%TO.P,TP4,1,1_1*%
%TO.N,/Dice/DIE_PWR*%
X146000000Y-63500000D03*
%TD*%
D33*
%TO.P,C12,1*%
%TO.N,GND*%
X196074801Y-96011180D03*
%TO.P,C12,2*%
%TO.N,Net-(U2-ANT)*%
X197034801Y-96011180D03*
%TD*%
D20*
%TO.P,J5,1,Pin_1_1*%
%TO.N,/Dice/DOCK+*%
X146295000Y-108740000D03*
D21*
%TO.P,J5,2,Pin_2_2*%
%TO.N,GND*%
X146295000Y-111280000D03*
%TD*%
D10*
%TO.P,R4,1*%
%TO.N,/Dice/DIE_PWR*%
X169232371Y-78617473D03*
%TO.P,R4,2*%
%TO.N,/Dice/I2C_SDA*%
X169232371Y-79637473D03*
%TD*%
D23*
%TO.P,C13,1*%
%TO.N,Net-(AE1-PCB_Trace)*%
X167980000Y-59500000D03*
%TO.P,C13,2*%
%TO.N,GND*%
X167020000Y-59500000D03*
%TD*%
D43*
%TO.P,BT1,1,+_1*%
%TO.N,Net-(BT1-+)*%
X143092249Y-126071897D03*
D44*
%TO.P,BT1,2,-_2*%
%TO.N,GND*%
X143092249Y-128571897D03*
%TD*%
D13*
%TO.P,TP3,1,1_1*%
%TO.N,Net-(U2-P0.21{slash}~{RESET})*%
X190583246Y-95416753D03*
%TD*%
D34*
%TO.P,C5,1*%
%TO.N,GND*%
X151799235Y-55718843D03*
%TO.P,C5,2*%
%TO.N,Net-(U2-DEC2)*%
X151799235Y-54758843D03*
%TD*%
D20*
%TO.P,J9,1,Pin_1_1*%
%TO.N,/Dice/DOCK+*%
X157295000Y-108740000D03*
D21*
%TO.P,J9,2,Pin_2_2*%
%TO.N,GND*%
X157295000Y-111280000D03*
%TD*%
D23*
%TO.P,C4,1*%
%TO.N,GND*%
X127109634Y-62070105D03*
%TO.P,C4,2*%
%TO.N,Net-(U2-DEC1)*%
X126149634Y-62070105D03*
%TD*%
D33*
%TO.P,C10,1*%
%TO.N,GND*%
X197233091Y-69607358D03*
%TO.P,C10,2*%
%TO.N,Net-(U2-XC2)*%
X198193091Y-69607358D03*
%TD*%
D36*
%TO.P,U2,1,DEC1_1*%
%TO.N,Net-(U2-DEC1)*%
X153700000Y-59400000D03*
%TO.P,U2,2,P0.00/XL1_2*%
%TO.N,unconnected-(U2-P0.00{slash}XL1-Pad2)*%
X154100000Y-59400000D03*
%TO.P,U2,3,P0.01/XL2_3*%
%TO.N,unconnected-(U2-P0.01{slash}XL2-Pad3)*%
X154500000Y-59400000D03*
%TO.P,U2,4,P0.02/AIN0_4*%
%TO.N,/Dice/MOTION_INT*%
X154900000Y-59400000D03*
%TO.P,U2,5,P0.03/AIN1_5*%
%TO.N,/Dice/I2C_SCL*%
X155300000Y-59400000D03*
%TO.P,U2,6,P0.04/AIN2_6*%
%TO.N,/Dice/I2C_SDA*%
X155700000Y-59400000D03*
%TO.P,U2,7,P0.05/AIN3_7*%
%TO.N,unconnected-(U2-P0.05{slash}AIN3-Pad7)*%
X156100000Y-59400000D03*
%TO.P,U2,8,P0.06_8*%
%TO.N,unconnected-(U2-P0.06-Pad8)*%
X156500000Y-59400000D03*
%TO.P,U2,9,P0.07_9*%
%TO.N,unconnected-(U2-P0.07-Pad9)*%
X156900000Y-59400000D03*
%TO.P,U2,10,P0.08_10*%
%TO.N,unconnected-(U2-P0.08-Pad10)*%
X157300000Y-59400000D03*
%TO.P,U2,11,NFC1/P0.09_11*%
%TO.N,unconnected-(U2-NFC1{slash}P0.09-Pad11)*%
X157700000Y-59400000D03*
%TO.P,U2,12,NFC2/P0.10_12*%
%TO.N,unconnected-(U2-NFC2{slash}P0.10-Pad12)*%
X158100000Y-59400000D03*
D37*
%TO.P,U2,13,VDD_13*%
%TO.N,Net-(C8-Pad2)*%
X158850000Y-58650000D03*
%TO.P,U2,14,P0.11_14*%
%TO.N,unconnected-(U2-P0.11-Pad14)*%
X158850000Y-58250000D03*
%TO.P,U2,15,P0.12_15*%
%TO.N,unconnected-(U2-P0.12-Pad15)*%
X158850000Y-57850000D03*
%TO.P,U2,16,P0.13_16*%
%TO.N,unconnected-(U2-P0.13-Pad16)*%
X158850000Y-57450000D03*
%TO.P,U2,17,P0.14_17*%
%TO.N,unconnected-(U2-P0.14-Pad17)*%
X158850000Y-57050000D03*
%TO.P,U2,18,P0.15_18*%
%TO.N,unconnected-(U2-P0.15-Pad18)*%
X158850000Y-56650000D03*
%TO.P,U2,19,P0.16_19*%
%TO.N,unconnected-(U2-P0.16-Pad19)*%
X158850000Y-56250000D03*
%TO.P,U2,20,P0.17_20*%
%TO.N,unconnected-(U2-P0.17-Pad20)*%
X158850000Y-55850000D03*
%TO.P,U2,21,P0.18/SWO_21*%
%TO.N,unconnected-(U2-P0.18{slash}SWO-Pad21)*%
X158850000Y-55450000D03*
%TO.P,U2,22,P0.19_22*%
%TO.N,unconnected-(U2-P0.19-Pad22)*%
X158850000Y-55050000D03*
%TO.P,U2,23,P0.20_23*%
%TO.N,unconnected-(U2-P0.20-Pad23)*%
X158850000Y-54650000D03*
%TO.P,U2,24,P0.21/~{RESET}_24*%
%TO.N,Net-(U2-P0.21{slash}~{RESET})*%
X158850000Y-54250000D03*
D36*
%TO.P,U2,25,SWDCLK_25*%
%TO.N,Net-(U2-SWDCLK)*%
X158100000Y-53500000D03*
%TO.P,U2,26,SWDIO_26*%
%TO.N,Net-(U2-SWDIO)*%
X157700000Y-53500000D03*
%TO.P,U2,27,P0.22_27*%
%TO.N,unconnected-(U2-P0.22-Pad27)*%
X157300000Y-53500000D03*
%TO.P,U2,28,P0.23_28*%
%TO.N,unconnected-(U2-P0.23-Pad28)*%
X156900000Y-53500000D03*
%TO.P,U2,29,P0.24_29*%
%TO.N,unconnected-(U2-P0.24-Pad29)*%
X156500000Y-53500000D03*
%TO.P,U2,30,ANT_30*%
%TO.N,Net-(U2-ANT)*%
X156100000Y-53500000D03*
%TO.P,U2,31,VSS_31*%
%TO.N,GND*%
X155700000Y-53500000D03*
%TO.P,U2,32,DEC2_32*%
%TO.N,Net-(U2-DEC2)*%
X155300000Y-53500000D03*
%TO.P,U2,33,DEC3_33*%
%TO.N,Net-(U2-DEC3)*%
X154900000Y-53500000D03*
%TO.P,U2,34,XC1_34*%
%TO.N,Net-(U2-XC1)*%
X154500000Y-53500000D03*
%TO.P,U2,35,XC2_35*%
%TO.N,Net-(U2-XC2)*%
X154100000Y-53500000D03*
%TO.P,U2,36,VDD_36*%
%TO.N,Net-(C8-Pad2)*%
X153700000Y-53500000D03*
D37*
%TO.P,U2,37,P0.25_37*%
%TO.N,unconnected-(U2-P0.25-Pad37)*%
X152950000Y-54250000D03*
%TO.P,U2,38,P0.26_38*%
%TO.N,unconnected-(U2-P0.26-Pad38)*%
X152950000Y-54650000D03*
%TO.P,U2,39,P0.27_39*%
%TO.N,unconnected-(U2-P0.27-Pad39)*%
X152950000Y-55050000D03*
%TO.P,U2,40,P0.28/AIN4_40*%
%TO.N,unconnected-(U2-P0.28{slash}AIN4-Pad40)*%
X152950000Y-55450000D03*
%TO.P,U2,41,P0.29/AIN5_41*%
%TO.N,unconnected-(U2-P0.29{slash}AIN5-Pad41)*%
X152950000Y-55850000D03*
%TO.P,U2,42,P0.30/AIN6_42*%
%TO.N,unconnected-(U2-P0.30{slash}AIN6-Pad42)*%
X152950000Y-56250000D03*
%TO.P,U2,43,P0.31/AIN7_43*%
%TO.N,unconnected-(U2-P0.31{slash}AIN7-Pad43)*%
X152950000Y-56650000D03*
%TO.P,U2,44,NC_44*%
%TO.N,unconnected-(U2-NC-Pad44)*%
X152950000Y-57050000D03*
%TO.P,U2,45,VSS_45*%
%TO.N,GND*%
X152950000Y-57450000D03*
%TO.P,U2,46,DEC4_46*%
%TO.N,Net-(U2-DEC4)*%
X152950000Y-57850000D03*
%TO.P,U2,47,DCC_47*%
%TO.N,unconnected-(U2-DCC-Pad47)*%
X152950000Y-58250000D03*
%TO.P,U2,48,VDD_48*%
%TO.N,Net-(C8-Pad2)*%
X152950000Y-58650000D03*
D18*
%TO.P,U2,49,VSS_49*%
%TO.N,GND*%
X155900000Y-56450000D03*
%TD*%
D34*
%TO.P,C12,1*%
%TO.N,GND*%
X160511180Y-54925199D03*
%TO.P,C12,2*%
%TO.N,Net-(U2-ANT)*%
X160511180Y-53965199D03*
%TD*%
D12*
%TO.P,R4,1*%
%TO.N,/Dice/DIE_PWR*%
X125432527Y-79682371D03*
%TO.P,R4,2*%
%TO.N,/Dice/I2C_SDA*%
X124412527Y-79682371D03*
%TD*%
D33*
%TO.P,C13,1*%
%TO.N,Net-(AE1-PCB_Trace)*%
X197520000Y-126500000D03*
%TO.P,C13,2*%
%TO.N,GND*%
X198480000Y-126500000D03*
%TD*%
D38*
%TO.P,R5,1*%
%TO.N,/Dice/DIE_PWR*%
X171401004Y-119103144D03*
%TO.P,R5,2*%
%TO.N,/Dice/I2C_SCL*%
X171401004Y-118083144D03*
%TD*%
D34*
%TO.P,C5,1*%
%TO.N,GND*%
X186299235Y-55718843D03*
%TO.P,C5,2*%
%TO.N,Net-(U2-DEC2)*%
X186299235Y-54758843D03*
%TD*%
%TO.P,C11,1*%
%TO.N,/Dice/DIE_PWR*%
X168267718Y-79631377D03*
%TO.P,C11,2*%
%TO.N,GND*%
X168267718Y-78671377D03*
%TD*%
D19*
%TO.P,R3,1*%
%TO.N,Net-(D1-K)*%
X177725842Y-107714674D03*
%TO.P,R3,2*%
%TO.N,/Dice/DIE_PWR*%
X178745842Y-107714674D03*
%TD*%
D13*
%TO.P,TP1,1,1_1*%
%TO.N,Net-(U2-SWDIO)*%
X186068976Y-52505591D03*
%TD*%
D20*
%TO.P,J4,1,Pin_1_1*%
%TO.N,/Dice/DOCK+*%
X146295000Y-117240000D03*
D21*
%TO.P,J4,2,Pin_2_2*%
%TO.N,GND*%
X146295000Y-119780000D03*
%TD*%
D12*
%TO.P,R5,1*%
%TO.N,/Dice/DIE_PWR*%
X171603144Y-81098996D03*
%TO.P,R5,2*%
%TO.N,/Dice/I2C_SCL*%
X170583144Y-81098996D03*
%TD*%
D23*
%TO.P,C5,1*%
%TO.N,GND*%
X170218843Y-100200765D03*
%TO.P,C5,2*%
%TO.N,Net-(U2-DEC2)*%
X169258843Y-100200765D03*
%TD*%
D13*
%TO.P,TP3,1,1_1*%
%TO.N,Net-(U2-P0.21{slash}~{RESET})*%
X171083247Y-125583246D03*
%TD*%
%TO.P,TP5,1,1_1*%
%TO.N,GND*%
X181226470Y-69933314D03*
%TD*%
D41*
%TO.P,C3,1*%
%TO.N,/Dice/DIE_PWR*%
X185008523Y-127011843D03*
%TO.P,C3,2*%
%TO.N,GND*%
X185008523Y-132011843D03*
%TD*%
D13*
%TO.P,TP5,1,1_1*%
%TO.N,GND*%
X184273530Y-116066686D03*
%TD*%
D38*
%TO.P,R3,1*%
%TO.N,Net-(D1-K)*%
X186714674Y-122774158D03*
%TO.P,R3,2*%
%TO.N,/Dice/DIE_PWR*%
X186714674Y-121754158D03*
%TD*%
D33*
%TO.P,C5,1*%
%TO.N,GND*%
X195281157Y-87299235D03*
%TO.P,C5,2*%
%TO.N,Net-(U2-DEC2)*%
X196241157Y-87299235D03*
%TD*%
D13*
%TO.P,TP2,1,1_1*%
%TO.N,Net-(U2-SWDCLK)*%
X171113945Y-133483863D03*
%TD*%
%TO.P,TP2,1,1_1*%
%TO.N,Net-(U2-SWDCLK)*%
X167016137Y-92113945D03*
%TD*%
%TO.P,TP5,1,1_1*%
%TO.N,GND*%
X146726470Y-69933314D03*
%TD*%
D31*
%TO.P,U3,1,SDO_1*%
%TO.N,GND*%
X195818430Y-128604565D03*
%TO.P,U3,2,SDX_2*%
%TO.N,/Dice/I2C_SDA*%
X195318430Y-128604565D03*
%TO.P,U3,3,VDDIO_3*%
%TO.N,/Dice/DIE_PWR*%
X194818430Y-128604565D03*
%TO.P,U3,4,NC_4*%
%TO.N,unconnected-(U3-NC-Pad4)*%
X194318430Y-128604565D03*
D30*
%TO.P,U3,5,INT1_5*%
%TO.N,/Dice/MOTION_INT*%
X194305930Y-129117065D03*
%TO.P,U3,6,INT2_6*%
%TO.N,unconnected-(U3-INT2-Pad6)*%
X194305930Y-129617065D03*
D31*
%TO.P,U3,7,VDD_7*%
%TO.N,/Dice/DIE_PWR*%
X194318430Y-130129565D03*
%TO.P,U3,8,GNDIO_8*%
%TO.N,GND*%
X194818430Y-130129565D03*
%TO.P,U3,9,GND_9*%
X195318430Y-130129565D03*
%TO.P,U3,10,CSB_10*%
%TO.N,/Dice/DIE_PWR*%
X195818430Y-130129565D03*
D30*
%TO.P,U3,11,NC_11*%
%TO.N,unconnected-(U3-NC-Pad11)*%
X195830930Y-129617065D03*
%TO.P,U3,12,SCX_12*%
%TO.N,/Dice/I2C_SCL*%
X195830930Y-129117065D03*
%TD*%
D22*
%TO.P,L1,1*%
%TO.N,Net-(U2-ANT)*%
X135485000Y-60500000D03*
%TO.P,L1,2*%
%TO.N,Net-(AE1-PCB_Trace)*%
X134515000Y-60500000D03*
%TD*%
D34*
%TO.P,C7,1*%
%TO.N,GND*%
X186452862Y-60399713D03*
%TO.P,C7,2*%
%TO.N,Net-(U2-DEC4)*%
X186452862Y-59439713D03*
%TD*%
%TO.P,C13,1*%
%TO.N,Net-(AE1-PCB_Trace)*%
X191500000Y-68980000D03*
%TO.P,C13,2*%
%TO.N,GND*%
X191500000Y-68020000D03*
%TD*%
D10*
%TO.P,R3,1*%
%TO.N,Net-(D1-K)*%
X144285326Y-63225842D03*
%TO.P,R3,2*%
%TO.N,/Dice/DIE_PWR*%
X144285326Y-64245842D03*
%TD*%
D11*
%TO.P,C6,1*%
%TO.N,GND*%
X155106260Y-85085982D03*
%TO.P,C6,2*%
%TO.N,Net-(U2-DEC3)*%
X155106260Y-86045982D03*
%TD*%
D23*
%TO.P,C10,1*%
%TO.N,GND*%
X119816909Y-80842642D03*
%TO.P,C10,2*%
%TO.N,Net-(U2-XC2)*%
X118856909Y-80842642D03*
%TD*%
D34*
%TO.P,C4,1*%
%TO.N,GND*%
X187379895Y-61059634D03*
%TO.P,C4,2*%
%TO.N,Net-(U2-DEC1)*%
X187379895Y-60099634D03*
%TD*%
D23*
%TO.P,AE1,1,FEED_1*%
%TO.N,GND*%
X171980000Y-77500000D03*
%TO.P,AE1,2,PCB_Trace_2*%
%TO.N,Net-(AE1-PCB_Trace)*%
X171020000Y-77500000D03*
%TD*%
D31*
%TO.P,U3,1,SDO_1*%
%TO.N,GND*%
X169318430Y-80604565D03*
%TO.P,U3,2,SDX_2*%
%TO.N,/Dice/I2C_SDA*%
X168818430Y-80604565D03*
%TO.P,U3,3,VDDIO_3*%
%TO.N,/Dice/DIE_PWR*%
X168318430Y-80604565D03*
%TO.P,U3,4,NC_4*%
%TO.N,unconnected-(U3-NC-Pad4)*%
X167818430Y-80604565D03*
D30*
%TO.P,U3,5,INT1_5*%
%TO.N,/Dice/MOTION_INT*%
X167805930Y-81117065D03*
%TO.P,U3,6,INT2_6*%
%TO.N,unconnected-(U3-INT2-Pad6)*%
X167805930Y-81617065D03*
D31*
%TO.P,U3,7,VDD_7*%
%TO.N,/Dice/DIE_PWR*%
X167818430Y-82129565D03*
%TO.P,U3,8,GNDIO_8*%
%TO.N,GND*%
X168318430Y-82129565D03*
%TO.P,U3,9,GND_9*%
X168818430Y-82129565D03*
%TO.P,U3,10,CSB_10*%
%TO.N,/Dice/DIE_PWR*%
X169318430Y-82129565D03*
D30*
%TO.P,U3,11,NC_11*%
%TO.N,unconnected-(U3-NC-Pad11)*%
X169330930Y-81617065D03*
%TO.P,U3,12,SCX_12*%
%TO.N,/Dice/I2C_SCL*%
X169330930Y-81117065D03*
%TD*%
D23*
%TO.P,C10,1*%
%TO.N,GND*%
X168266909Y-117892642D03*
%TO.P,C10,2*%
%TO.N,Net-(U2-XC2)*%
X167306909Y-117892642D03*
%TD*%
D45*
%TO.P,Y1,1,1_1*%
%TO.N,Net-(U2-XC1)*%
X194540061Y-131916343D03*
%TO.P,Y1,2,G_2*%
%TO.N,GND*%
X194540061Y-133316343D03*
%TO.P,Y1,3,3_3*%
%TO.N,Net-(U2-XC2)*%
X195640061Y-133316343D03*
%TO.P,Y1,4,G_4*%
%TO.N,GND*%
X195640061Y-131916343D03*
%TD*%
D13*
%TO.P,TP4,1,1_1*%
%TO.N,/Dice/DIE_PWR*%
X180500000Y-63500000D03*
%TD*%
D11*
%TO.P,C8,1*%
%TO.N,/Dice/DIE_PWR*%
X170537633Y-127110782D03*
%TO.P,C8,2*%
%TO.N,Net-(C8-Pad2)*%
X170537633Y-128070782D03*
%TD*%
D34*
%TO.P,AE1,1,FEED_1*%
%TO.N,GND*%
X175000000Y-119480000D03*
%TO.P,AE1,2,PCB_Trace_2*%
%TO.N,Net-(AE1-PCB_Trace)*%
X175000000Y-118520000D03*
%TD*%
%TO.P,C10,1*%
%TO.N,GND*%
X168607358Y-53766909D03*
%TO.P,C10,2*%
%TO.N,Net-(U2-XC2)*%
X168607358Y-52806909D03*
%TD*%
D24*
%TO.P,L1,1*%
%TO.N,Net-(U2-ANT)*%
X175000000Y-116515000D03*
%TO.P,L1,2*%
%TO.N,Net-(AE1-PCB_Trace)*%
X175000000Y-117485000D03*
%TD*%
D33*
%TO.P,C13,1*%
%TO.N,Net-(AE1-PCB_Trace)*%
X171020000Y-78500000D03*
%TO.P,C13,2*%
%TO.N,GND*%
X171980000Y-78500000D03*
%TD*%
D11*
%TO.P,C13,1*%
%TO.N,Net-(AE1-PCB_Trace)*%
X125550000Y-81470000D03*
%TO.P,C13,2*%
%TO.N,GND*%
X125550000Y-82430000D03*
%TD*%
D45*
%TO.P,Y1,1,1_1*%
%TO.N,Net-(U2-XC1)*%
X168040061Y-83916343D03*
%TO.P,Y1,2,G_2*%
%TO.N,GND*%
X168040061Y-85316343D03*
%TO.P,Y1,3,3_3*%
%TO.N,Net-(U2-XC2)*%
X169140061Y-85316343D03*
%TO.P,Y1,4,G_4*%
%TO.N,GND*%
X169140061Y-83916343D03*
%TD*%
D46*
%TO.P,U2,1,DEC1_1*%
%TO.N,Net-(U2-DEC1)*%
X191600000Y-89200000D03*
%TO.P,U2,2,P0.00/XL1_2*%
%TO.N,unconnected-(U2-P0.00{slash}XL1-Pad2)*%
X191600000Y-89600000D03*
%TO.P,U2,3,P0.01/XL2_3*%
%TO.N,unconnected-(U2-P0.01{slash}XL2-Pad3)*%
X191600000Y-90000000D03*
%TO.P,U2,4,P0.02/AIN0_4*%
%TO.N,/Dice/MOTION_INT*%
X191600000Y-90400000D03*
%TO.P,U2,5,P0.03/AIN1_5*%
%TO.N,/Dice/I2C_SCL*%
X191600000Y-90800000D03*
%TO.P,U2,6,P0.04/AIN2_6*%
%TO.N,/Dice/I2C_SDA*%
X191600000Y-91200000D03*
%TO.P,U2,7,P0.05/AIN3_7*%
%TO.N,unconnected-(U2-P0.05{slash}AIN3-Pad7)*%
X191600000Y-91600000D03*
%TO.P,U2,8,P0.06_8*%
%TO.N,unconnected-(U2-P0.06-Pad8)*%
X191600000Y-92000000D03*
%TO.P,U2,9,P0.07_9*%
%TO.N,unconnected-(U2-P0.07-Pad9)*%
X191600000Y-92400000D03*
%TO.P,U2,10,P0.08_10*%
%TO.N,unconnected-(U2-P0.08-Pad10)*%
X191600000Y-92800000D03*
%TO.P,U2,11,NFC1/P0.09_11*%
%TO.N,unconnected-(U2-NFC1{slash}P0.09-Pad11)*%
X191600000Y-93200000D03*
%TO.P,U2,12,NFC2/P0.10_12*%
%TO.N,unconnected-(U2-NFC2{slash}P0.10-Pad12)*%
X191600000Y-93600000D03*
D47*
%TO.P,U2,13,VDD_13*%
%TO.N,Net-(C8-Pad2)*%
X192350000Y-94350000D03*
%TO.P,U2,14,P0.11_14*%
%TO.N,unconnected-(U2-P0.11-Pad14)*%
X192750000Y-94350000D03*
%TO.P,U2,15,P0.12_15*%
%TO.N,unconnected-(U2-P0.12-Pad15)*%
X193150000Y-94350000D03*
%TO.P,U2,16,P0.13_16*%
%TO.N,unconnected-(U2-P0.13-Pad16)*%
X193550000Y-94350000D03*
%TO.P,U2,17,P0.14_17*%
%TO.N,unconnected-(U2-P0.14-Pad17)*%
X193950000Y-94350000D03*
%TO.P,U2,18,P0.15_18*%
%TO.N,unconnected-(U2-P0.15-Pad18)*%
X194350000Y-94350000D03*
%TO.P,U2,19,P0.16_19*%
%TO.N,unconnected-(U2-P0.16-Pad19)*%
X194750000Y-94350000D03*
%TO.P,U2,20,P0.17_20*%
%TO.N,unconnected-(U2-P0.17-Pad20)*%
X195150000Y-94350000D03*
%TO.P,U2,21,P0.18/SWO_21*%
%TO.N,unconnected-(U2-P0.18{slash}SWO-Pad21)*%
X195550000Y-94350000D03*
%TO.P,U2,22,P0.19_22*%
%TO.N,unconnected-(U2-P0.19-Pad22)*%
X195950000Y-94350000D03*
%TO.P,U2,23,P0.20_23*%
%TO.N,unconnected-(U2-P0.20-Pad23)*%
X196350000Y-94350000D03*
%TO.P,U2,24,P0.21/~{RESET}_24*%
%TO.N,Net-(U2-P0.21{slash}~{RESET})*%
X196750000Y-94350000D03*
D46*
%TO.P,U2,25,SWDCLK_25*%
%TO.N,Net-(U2-SWDCLK)*%
X197500000Y-93600000D03*
%TO.P,U2,26,SWDIO_26*%
%TO.N,Net-(U2-SWDIO)*%
X197500000Y-93200000D03*
%TO.P,U2,27,P0.22_27*%
%TO.N,unconnected-(U2-P0.22-Pad27)*%
X197500000Y-92800000D03*
%TO.P,U2,28,P0.23_28*%
%TO.N,unconnected-(U2-P0.23-Pad28)*%
X197500000Y-92400000D03*
%TO.P,U2,29,P0.24_29*%
%TO.N,unconnected-(U2-P0.24-Pad29)*%
X197500000Y-92000000D03*
%TO.P,U2,30,ANT_30*%
%TO.N,Net-(U2-ANT)*%
X197500000Y-91600000D03*
%TO.P,U2,31,VSS_31*%
%TO.N,GND*%
X197500000Y-91200000D03*
%TO.P,U2,32,DEC2_32*%
%TO.N,Net-(U2-DEC2)*%
X197500000Y-90800000D03*
%TO.P,U2,33,DEC3_33*%
%TO.N,Net-(U2-DEC3)*%
X197500000Y-90400000D03*
%TO.P,U2,34,XC1_34*%
%TO.N,Net-(U2-XC1)*%
X197500000Y-90000000D03*
%TO.P,U2,35,XC2_35*%
%TO.N,Net-(U2-XC2)*%
X197500000Y-89600000D03*
%TO.P,U2,36,VDD_36*%
%TO.N,Net-(C8-Pad2)*%
X197500000Y-89200000D03*
D47*
%TO.P,U2,37,P0.25_37*%
%TO.N,unconnected-(U2-P0.25-Pad37)*%
X196750000Y-88450000D03*
%TO.P,U2,38,P0.26_38*%
%TO.N,unconnected-(U2-P0.26-Pad38)*%
X196350000Y-88450000D03*
%TO.P,U2,39,P0.27_39*%
%TO.N,unconnected-(U2-P0.27-Pad39)*%
X195950000Y-88450000D03*
%TO.P,U2,40,P0.28/AIN4_40*%
%TO.N,unconnected-(U2-P0.28{slash}AIN4-Pad40)*%
X195550000Y-88450000D03*
%TO.P,U2,41,P0.29/AIN5_41*%
%TO.N,unconnected-(U2-P0.29{slash}AIN5-Pad41)*%
X195150000Y-88450000D03*
%TO.P,U2,42,P0.30/AIN6_42*%
%TO.N,unconnected-(U2-P0.30{slash}AIN6-Pad42)*%
X194750000Y-88450000D03*
%TO.P,U2,43,P0.31/AIN7_43*%
%TO.N,unconnected-(U2-P0.31{slash}AIN7-Pad43)*%
X194350000Y-88450000D03*
%TO.P,U2,44,NC_44*%
%TO.N,unconnected-(U2-NC-Pad44)*%
X193950000Y-88450000D03*
%TO.P,U2,45,VSS_45*%
%TO.N,GND*%
X193550000Y-88450000D03*
%TO.P,U2,46,DEC4_46*%
%TO.N,Net-(U2-DEC4)*%
X193150000Y-88450000D03*
%TO.P,U2,47,DCC_47*%
%TO.N,unconnected-(U2-DCC-Pad47)*%
X192750000Y-88450000D03*
%TO.P,U2,48,VDD_48*%
%TO.N,Net-(C8-Pad2)*%
X192350000Y-88450000D03*
D18*
%TO.P,U2,49,VSS_49*%
%TO.N,GND*%
X194550000Y-91400000D03*
%TD*%
D33*
%TO.P,C9,1*%
%TO.N,GND*%
X118956742Y-77234401D03*
%TO.P,C9,2*%
%TO.N,Net-(U2-XC1)*%
X119916742Y-77234401D03*
%TD*%
%TO.P,AE1,1,FEED_1*%
%TO.N,GND*%
X167020000Y-60500000D03*
%TO.P,AE1,2,PCB_Trace_2*%
%TO.N,Net-(AE1-PCB_Trace)*%
X167980000Y-60500000D03*
%TD*%
D38*
%TO.P,R4,1*%
%TO.N,/Dice/DIE_PWR*%
X135267629Y-59382527D03*
%TO.P,R4,2*%
%TO.N,/Dice/I2C_SDA*%
X135267629Y-58362527D03*
%TD*%
D32*
%TO.P,Y1,1,1_1*%
%TO.N,Net-(U2-XC1)*%
X136459939Y-54083657D03*
%TO.P,Y1,2,G_2*%
%TO.N,GND*%
X136459939Y-52683657D03*
%TO.P,Y1,3,3_3*%
%TO.N,Net-(U2-XC2)*%
X135359939Y-52683657D03*
%TO.P,Y1,4,G_4*%
%TO.N,GND*%
X135359939Y-54083657D03*
%TD*%
D48*
%TO.P,D1,1,K_1*%
%TO.N,Net-(D1-K)*%
X187914221Y-78586304D03*
%TO.P,D1,2,A_2*%
%TO.N,/Dice/DOCK+*%
X186514221Y-78586304D03*
%TD*%
D13*
%TO.P,TP2,1,1_1*%
%TO.N,Net-(U2-SWDCLK)*%
X198483863Y-95386055D03*
%TD*%
D38*
%TO.P,R5,1*%
%TO.N,/Dice/DIE_PWR*%
X122951004Y-82053144D03*
%TO.P,R5,2*%
%TO.N,/Dice/I2C_SCL*%
X122951004Y-81033144D03*
%TD*%
D30*
%TO.P,U3,1,SDO_1*%
%TO.N,GND*%
X123445435Y-79768430D03*
%TO.P,U3,2,SDX_2*%
%TO.N,/Dice/I2C_SDA*%
X123445435Y-79268430D03*
%TO.P,U3,3,VDDIO_3*%
%TO.N,/Dice/DIE_PWR*%
X123445435Y-78768430D03*
%TO.P,U3,4,NC_4*%
%TO.N,unconnected-(U3-NC-Pad4)*%
X123445435Y-78268430D03*
D31*
%TO.P,U3,5,INT1_5*%
%TO.N,/Dice/MOTION_INT*%
X122932935Y-78255930D03*
%TO.P,U3,6,INT2_6*%
%TO.N,unconnected-(U3-INT2-Pad6)*%
X122432935Y-78255930D03*
D30*
%TO.P,U3,7,VDD_7*%
%TO.N,/Dice/DIE_PWR*%
X121920435Y-78268430D03*
%TO.P,U3,8,GNDIO_8*%
%TO.N,GND*%
X121920435Y-78768430D03*
%TO.P,U3,9,GND_9*%
X121920435Y-79268430D03*
%TO.P,U3,10,CSB_10*%
%TO.N,/Dice/DIE_PWR*%
X121920435Y-79768430D03*
D31*
%TO.P,U3,11,NC_11*%
%TO.N,unconnected-(U3-NC-Pad11)*%
X122432935Y-79780930D03*
%TO.P,U3,12,SCX_12*%
%TO.N,/Dice/I2C_SCL*%
X122932935Y-79780930D03*
%TD*%
D13*
%TO.P,TP3,1,1_1*%
%TO.N,Net-(U2-P0.21{slash}~{RESET})*%
X174916754Y-92083247D03*
%TD*%
D19*
%TO.P,R3,1*%
%TO.N,Net-(D1-K)*%
X129275842Y-70664674D03*
%TO.P,R3,2*%
%TO.N,/Dice/DIE_PWR*%
X130295842Y-70664674D03*
%TD*%
D20*
%TO.P,J10,1,Pin_1_1*%
%TO.N,/Dice/DOCK+*%
X178895380Y-66839334D03*
D21*
%TO.P,J10,2,Pin_2_2*%
%TO.N,GND*%
X181435380Y-66839334D03*
%TD*%
D49*
%TO.P,C3,1*%
%TO.N,/Dice/DIE_PWR*%
X192011843Y-81491477D03*
%TO.P,C3,2*%
%TO.N,GND*%
X197011843Y-81491477D03*
%TD*%
D11*
%TO.P,C6,1*%
%TO.N,GND*%
X181606260Y-133085982D03*
%TO.P,C6,2*%
%TO.N,Net-(U2-DEC3)*%
X181606260Y-134045982D03*
%TD*%
D13*
%TO.P,TP5,1,1_1*%
%TO.N,GND*%
X184433314Y-105273530D03*
%TD*%
D11*
%TO.P,C9,1*%
%TO.N,GND*%
X172215599Y-52906742D03*
%TO.P,C9,2*%
%TO.N,Net-(U2-XC1)*%
X172215599Y-53866742D03*
%TD*%
D13*
%TO.P,TP5,1,1_1*%
%TO.N,GND*%
X135983314Y-68223530D03*
%TD*%
D28*
%TO.P,L1,1*%
%TO.N,Net-(U2-ANT)*%
X169015000Y-77500000D03*
%TO.P,L1,2*%
%TO.N,Net-(AE1-PCB_Trace)*%
X169985000Y-77500000D03*
%TD*%
D13*
%TO.P,TP2,1,1_1*%
%TO.N,Net-(U2-SWDCLK)*%
X194386055Y-52516137D03*
%TD*%
D34*
%TO.P,C10,1*%
%TO.N,GND*%
X134107358Y-53766909D03*
%TO.P,C10,2*%
%TO.N,Net-(U2-XC2)*%
X134107358Y-52806909D03*
%TD*%
D19*
%TO.P,R5,1*%
%TO.N,/Dice/DIE_PWR*%
X167396856Y-56901004D03*
%TO.P,R5,2*%
%TO.N,/Dice/I2C_SCL*%
X168416856Y-56901004D03*
%TD*%
D50*
%TO.P,U4,1,D0_1*%
%TO.N,unconnected-(U4-D0-Pad1)*%
X137795000Y-133255000D03*
%TO.P,U4,2,D1_2*%
%TO.N,unconnected-(U4-D1-Pad2)*%
X137795000Y-130715000D03*
%TO.P,U4,3,D2_3*%
%TO.N,unconnected-(U4-D2-Pad3)*%
X137795000Y-128175000D03*
%TO.P,U4,4,D3_4*%
%TO.N,/Dock/CS*%
X137795000Y-125635000D03*
%TO.P,U4,5,D4_5*%
%TO.N,/Dock/DC*%
X137795000Y-123095000D03*
%TO.P,U4,6,D5_6*%
%TO.N,/Dock/RST*%
X137795000Y-120555000D03*
%TO.P,U4,7,D6_7*%
%TO.N,/Dock/BL*%
X137795000Y-118015000D03*
D51*
%TO.P,U4,8,D7_8*%
%TO.N,unconnected-(U4-D7-Pad8)*%
X121285000Y-118015000D03*
%TO.P,U4,9,D8_9*%
%TO.N,/Dock/CLK*%
X121285000Y-120555000D03*
%TO.P,U4,10,D9_10*%
%TO.N,unconnected-(U4-D9-Pad10)*%
X121285000Y-123095000D03*
%TO.P,U4,11,D10_11*%
%TO.N,/Dock/DIN*%
X121285000Y-125635000D03*
%TO.P,U4,12,3V3_OUT_12*%
%TO.N,/Dice/DOCK+*%
X121285000Y-128175000D03*
%TO.P,U4,13,GND_13*%
%TO.N,GND*%
X121285000Y-130715000D03*
%TO.P,U4,14,VBUS_14*%
%TO.N,unconnected-(U4-VBUS-Pad14)*%
X121285000Y-133255000D03*
D52*
%TO.P,U4,15,D11_15*%
%TO.N,unconnected-(U4-D11-Pad15)*%
X138195000Y-131985000D03*
%TO.P,U4,16,D12_16*%
%TO.N,unconnected-(U4-D12-Pad16)*%
X138195000Y-129445000D03*
%TO.P,U4,17,D13_17*%
%TO.N,unconnected-(U4-D13-Pad17)*%
X138195000Y-126905000D03*
%TO.P,U4,18,D14_18*%
%TO.N,unconnected-(U4-D14-Pad18)*%
X138195000Y-124365000D03*
%TO.P,U4,19,D15_19*%
%TO.N,unconnected-(U4-D15-Pad19)*%
X138195000Y-121825000D03*
%TO.P,U4,20,D16_20*%
%TO.N,unconnected-(U4-D16-Pad20)*%
X138195000Y-119285000D03*
D53*
%TO.P,U4,21,D19_21*%
%TO.N,unconnected-(U4-D19-Pad21)*%
X120885000Y-119285000D03*
%TO.P,U4,22,D18_22*%
%TO.N,unconnected-(U4-D18-Pad22)*%
X120885000Y-121825000D03*
%TO.P,U4,23,D17_23*%
%TO.N,unconnected-(U4-D17-Pad23)*%
X120885000Y-124365000D03*
D54*
%TO.P,U4,24,D14/MTDI_24*%
%TO.N,unconnected-(U4-D14{slash}MTDI-Pad24)*%
X130810000Y-134271000D03*
%TO.P,U4,25,D13/MTDO_25*%
%TO.N,unconnected-(U4-D13{slash}MTDO-Pad25)*%
X128270000Y-134271000D03*
%TO.P,U4,26,EN_26*%
%TO.N,unconnected-(U4-EN-Pad26)*%
X130810000Y-131731000D03*
%TO.P,U4,27,GND_27*%
%TO.N,unconnected-(U4-GND-Pad27)*%
X128270000Y-131731000D03*
%TO.P,U4,28,D15/MTMS_28*%
%TO.N,unconnected-(U4-D15{slash}MTMS-Pad28)*%
X130810000Y-129191000D03*
%TO.P,U4,29,D12/MTCK_29*%
%TO.N,unconnected-(U4-D12{slash}MTCK-Pad29)*%
X128270000Y-129191000D03*
%TO.P,U4,30,USB_DN_30*%
%TO.N,unconnected-(U4-USB_DN-Pad30)*%
X130810000Y-126651000D03*
%TO.P,U4,31,USB_DP_31*%
%TO.N,unconnected-(U4-USB_DP-Pad31)*%
X128270000Y-126651000D03*
D55*
%TO.P,U4,32,VBAT_32*%
%TO.N,Net-(SW1-A)*%
X130533988Y-120117177D03*
%TO.P,U4,33,GND_33*%
%TO.N,GND*%
X128533988Y-120117177D03*
D56*
%TO.P,U4,34,PAD_34*%
%TO.N,unconnected-(U4-PAD-Pad34)*%
X128415000Y-123760000D03*
%TD*%
D19*
%TO.P,R4,1*%
%TO.N,/Dice/DIE_PWR*%
X191617473Y-70767629D03*
%TO.P,R4,2*%
%TO.N,/Dice/I2C_SDA*%
X192637473Y-70767629D03*
%TD*%
D23*
%TO.P,C8,1*%
%TO.N,/Dice/DIE_PWR*%
X124939218Y-54487633D03*
%TO.P,C8,2*%
%TO.N,Net-(C8-Pad2)*%
X123979218Y-54487633D03*
%TD*%
D13*
%TO.P,TP2,1,1_1*%
%TO.N,Net-(U2-SWDCLK)*%
X159886055Y-52516137D03*
%TD*%
D34*
%TO.P,C7,1*%
%TO.N,GND*%
X151952862Y-60399713D03*
%TO.P,C7,2*%
%TO.N,Net-(U2-DEC4)*%
X151952862Y-59439713D03*
%TD*%
D13*
%TO.P,TP2,1,1_1*%
%TO.N,Net-(U2-SWDCLK)*%
X118566137Y-55063945D03*
%TD*%
D57*
%TO.P,Y1,1,1_1*%
%TO.N,Net-(U2-XC1)*%
X196916343Y-71959939D03*
%TO.P,Y1,2,G_2*%
%TO.N,GND*%
X198316343Y-71959939D03*
%TO.P,Y1,3,3_3*%
%TO.N,Net-(U2-XC2)*%
X198316343Y-70859939D03*
%TO.P,Y1,4,G_4*%
%TO.N,GND*%
X196916343Y-70859939D03*
%TD*%
D58*
%TO.P,Y1,1,1_1*%
%TO.N,Net-(U2-XC1)*%
X168583657Y-115540061D03*
%TO.P,Y1,2,G_2*%
%TO.N,GND*%
X167183657Y-115540061D03*
%TO.P,Y1,3,3_3*%
%TO.N,Net-(U2-XC2)*%
X167183657Y-116640061D03*
%TO.P,Y1,4,G_4*%
%TO.N,GND*%
X168583657Y-116640061D03*
%TD*%
%TO.P,Y1,1,1_1*%
%TO.N,Net-(U2-XC1)*%
X120133657Y-78490061D03*
%TO.P,Y1,2,G_2*%
%TO.N,GND*%
X118733657Y-78490061D03*
%TO.P,Y1,3,3_3*%
%TO.N,Net-(U2-XC2)*%
X118733657Y-79590061D03*
%TO.P,Y1,4,G_4*%
%TO.N,GND*%
X120133657Y-79590061D03*
%TD*%
D20*
%TO.P,J10,1,Pin_1_1*%
%TO.N,/Dice/DOCK+*%
X186604620Y-119160666D03*
D21*
%TO.P,J10,2,Pin_2_2*%
%TO.N,GND*%
X184064620Y-119160666D03*
%TD*%
D29*
%TO.P,D1,1,K_1*%
%TO.N,Net-(D1-K)*%
X129135779Y-71863696D03*
%TO.P,D1,2,A_2*%
%TO.N,/Dice/DOCK+*%
X130535779Y-71863696D03*
%TD*%
D34*
%TO.P,C6,1*%
%TO.N,GND*%
X149393740Y-52914018D03*
%TO.P,C6,2*%
%TO.N,Net-(U2-DEC3)*%
X149393740Y-51954018D03*
%TD*%
D13*
%TO.P,TP4,1,1_1*%
%TO.N,/Dice/DIE_PWR*%
X185000000Y-122500000D03*
%TD*%
D16*
%TO.P,U2,1,DEC1_1*%
%TO.N,Net-(U2-DEC1)*%
X125450000Y-61250000D03*
%TO.P,U2,2,P0.00/XL1_2*%
%TO.N,unconnected-(U2-P0.00{slash}XL1-Pad2)*%
X125450000Y-60850000D03*
%TO.P,U2,3,P0.01/XL2_3*%
%TO.N,unconnected-(U2-P0.01{slash}XL2-Pad3)*%
X125450000Y-60450000D03*
%TO.P,U2,4,P0.02/AIN0_4*%
%TO.N,/Dice/MOTION_INT*%
X125450000Y-60050000D03*
%TO.P,U2,5,P0.03/AIN1_5*%
%TO.N,/Dice/I2C_SCL*%
X125450000Y-59650000D03*
%TO.P,U2,6,P0.04/AIN2_6*%
%TO.N,/Dice/I2C_SDA*%
X125450000Y-59250000D03*
%TO.P,U2,7,P0.05/AIN3_7*%
%TO.N,unconnected-(U2-P0.05{slash}AIN3-Pad7)*%
X125450000Y-58850000D03*
%TO.P,U2,8,P0.06_8*%
%TO.N,unconnected-(U2-P0.06-Pad8)*%
X125450000Y-58450000D03*
%TO.P,U2,9,P0.07_9*%
%TO.N,unconnected-(U2-P0.07-Pad9)*%
X125450000Y-58050000D03*
%TO.P,U2,10,P0.08_10*%
%TO.N,unconnected-(U2-P0.08-Pad10)*%
X125450000Y-57650000D03*
%TO.P,U2,11,NFC1/P0.09_11*%
%TO.N,unconnected-(U2-NFC1{slash}P0.09-Pad11)*%
X125450000Y-57250000D03*
%TO.P,U2,12,NFC2/P0.10_12*%
%TO.N,unconnected-(U2-NFC2{slash}P0.10-Pad12)*%
X125450000Y-56850000D03*
D17*
%TO.P,U2,13,VDD_13*%
%TO.N,Net-(C8-Pad2)*%
X124700000Y-56100000D03*
%TO.P,U2,14,P0.11_14*%
%TO.N,unconnected-(U2-P0.11-Pad14)*%
X124300000Y-56100000D03*
%TO.P,U2,15,P0.12_15*%
%TO.N,unconnected-(U2-P0.12-Pad15)*%
X123900000Y-56100000D03*
%TO.P,U2,16,P0.13_16*%
%TO.N,unconnected-(U2-P0.13-Pad16)*%
X123500000Y-56100000D03*
%TO.P,U2,17,P0.14_17*%
%TO.N,unconnected-(U2-P0.14-Pad17)*%
X123100000Y-56100000D03*
%TO.P,U2,18,P0.15_18*%
%TO.N,unconnected-(U2-P0.15-Pad18)*%
X122700000Y-56100000D03*
%TO.P,U2,19,P0.16_19*%
%TO.N,unconnected-(U2-P0.16-Pad19)*%
X122300000Y-56100000D03*
%TO.P,U2,20,P0.17_20*%
%TO.N,unconnected-(U2-P0.17-Pad20)*%
X121900000Y-56100000D03*
%TO.P,U2,21,P0.18/SWO_21*%
%TO.N,unconnected-(U2-P0.18{slash}SWO-Pad21)*%
X121500000Y-56100000D03*
%TO.P,U2,22,P0.19_22*%
%TO.N,unconnected-(U2-P0.19-Pad22)*%
X121100000Y-56100000D03*
%TO.P,U2,23,P0.20_23*%
%TO.N,unconnected-(U2-P0.20-Pad23)*%
X120700000Y-56100000D03*
%TO.P,U2,24,P0.21/~{RESET}_24*%
%TO.N,Net-(U2-P0.21{slash}~{RESET})*%
X120300000Y-56100000D03*
D16*
%TO.P,U2,25,SWDCLK_25*%
%TO.N,Net-(U2-SWDCLK)*%
X119550000Y-56850000D03*
%TO.P,U2,26,SWDIO_26*%
%TO.N,Net-(U2-SWDIO)*%
X119550000Y-57250000D03*
%TO.P,U2,27,P0.22_27*%
%TO.N,unconnected-(U2-P0.22-Pad27)*%
X119550000Y-57650000D03*
%TO.P,U2,28,P0.23_28*%
%TO.N,unconnected-(U2-P0.23-Pad28)*%
X119550000Y-58050000D03*
%TO.P,U2,29,P0.24_29*%
%TO.N,unconnected-(U2-P0.24-Pad29)*%
X119550000Y-58450000D03*
%TO.P,U2,30,ANT_30*%
%TO.N,Net-(U2-ANT)*%
X119550000Y-58850000D03*
%TO.P,U2,31,VSS_31*%
%TO.N,GND*%
X119550000Y-59250000D03*
%TO.P,U2,32,DEC2_32*%
%TO.N,Net-(U2-DEC2)*%
X119550000Y-59650000D03*
%TO.P,U2,33,DEC3_33*%
%TO.N,Net-(U2-DEC3)*%
X119550000Y-60050000D03*
%TO.P,U2,34,XC1_34*%
%TO.N,Net-(U2-XC1)*%
X119550000Y-60450000D03*
%TO.P,U2,35,XC2_35*%
%TO.N,Net-(U2-XC2)*%
X119550000Y-60850000D03*
%TO.P,U2,36,VDD_36*%
%TO.N,Net-(C8-Pad2)*%
X119550000Y-61250000D03*
D17*
%TO.P,U2,37,P0.25_37*%
%TO.N,unconnected-(U2-P0.25-Pad37)*%
X120300000Y-62000000D03*
%TO.P,U2,38,P0.26_38*%
%TO.N,unconnected-(U2-P0.26-Pad38)*%
X120700000Y-62000000D03*
%TO.P,U2,39,P0.27_39*%
%TO.N,unconnected-(U2-P0.27-Pad39)*%
X121100000Y-62000000D03*
%TO.P,U2,40,P0.28/AIN4_40*%
%TO.N,unconnected-(U2-P0.28{slash}AIN4-Pad40)*%
X121500000Y-62000000D03*
%TO.P,U2,41,P0.29/AIN5_41*%
%TO.N,unconnected-(U2-P0.29{slash}AIN5-Pad41)*%
X121900000Y-62000000D03*
%TO.P,U2,42,P0.30/AIN6_42*%
%TO.N,unconnected-(U2-P0.30{slash}AIN6-Pad42)*%
X122300000Y-62000000D03*
%TO.P,U2,43,P0.31/AIN7_43*%
%TO.N,unconnected-(U2-P0.31{slash}AIN7-Pad43)*%
X122700000Y-62000000D03*
%TO.P,U2,44,NC_44*%
%TO.N,unconnected-(U2-NC-Pad44)*%
X123100000Y-62000000D03*
%TO.P,U2,45,VSS_45*%
%TO.N,GND*%
X123500000Y-62000000D03*
%TO.P,U2,46,DEC4_46*%
%TO.N,Net-(U2-DEC4)*%
X123900000Y-62000000D03*
%TO.P,U2,47,DCC_47*%
%TO.N,unconnected-(U2-DCC-Pad47)*%
X124300000Y-62000000D03*
%TO.P,U2,48,VDD_48*%
%TO.N,Net-(C8-Pad2)*%
X124700000Y-62000000D03*
D18*
%TO.P,U2,49,VSS_49*%
%TO.N,GND*%
X122500000Y-59050000D03*
%TD*%
D11*
%TO.P,C7,1*%
%TO.N,GND*%
X152547138Y-77600287D03*
%TO.P,C7,2*%
%TO.N,Net-(U2-DEC4)*%
X152547138Y-78560287D03*
%TD*%
D59*
%TO.N,/Dice/DIE_PWR*%
X191500000Y-70000000D03*
X159425689Y-59250000D03*
X133335735Y-57835735D03*
X172335735Y-118664265D03*
X157361964Y-77500000D03*
X197664265Y-128164265D03*
X125550000Y-80450000D03*
X171164265Y-80164265D03*
X126550000Y-67811964D03*
X175000000Y-104861964D03*
X147138036Y-60500000D03*
X170000000Y-78500000D03*
X196500000Y-126500000D03*
X169000000Y-59500000D03*
X134500000Y-59500000D03*
X125300000Y-55524311D03*
X183861964Y-125500000D03*
X190500000Y-82638036D03*
X173750000Y-92574311D03*
X191750000Y-94925689D03*
X174000000Y-117500000D03*
X171574311Y-126750000D03*
X123885735Y-81614265D03*
X193925689Y-59250000D03*
X145074311Y-78750000D03*
X181638036Y-60500000D03*
X167835735Y-57835735D03*
X193164265Y-68835735D03*
%TO.N,/Dice/I2C_SDA*%
X192924094Y-70940122D03*
X190718044Y-92191631D03*
X174308369Y-125718044D03*
X135440122Y-58075906D03*
X174781956Y-95308369D03*
X169940122Y-58075906D03*
X124125906Y-79509878D03*
X169059878Y-79924094D03*
X156691631Y-60281956D03*
X147808369Y-77718044D03*
X172575906Y-116559878D03*
X126331956Y-58258369D03*
X195559878Y-127924094D03*
X191191631Y-60281956D03*
%TO.N,Net-(C8-Pad2)*%
X194410288Y-84241183D03*
X124900000Y-61930445D03*
X167972833Y-98500000D03*
X153019555Y-58850000D03*
X180879273Y-130120727D03*
X194230932Y-58054372D03*
X151000000Y-84527167D03*
X197527167Y-89000000D03*
X159730932Y-58054372D03*
X182258817Y-129410288D03*
X192150000Y-88519555D03*
X184620727Y-55879273D03*
X187519555Y-58850000D03*
X122639712Y-66208817D03*
X173350000Y-98980445D03*
X150120727Y-55879273D03*
X183241183Y-56589712D03*
X171089712Y-103258817D03*
X154379273Y-82120727D03*
X171269068Y-127945628D03*
X170379273Y-101879273D03*
X195120727Y-85620727D03*
X144769068Y-79945628D03*
X151480445Y-79150000D03*
X192945628Y-95230932D03*
X121929273Y-64829273D03*
X153500000Y-53472833D03*
X124104372Y-55219068D03*
X155758817Y-81410288D03*
X148741183Y-56589712D03*
X119522833Y-61450000D03*
X177980445Y-127150000D03*
X188000000Y-53472833D03*
X172554372Y-92269068D03*
X177500000Y-132527167D03*
%TO.N,/Dice/I2C_SCL*%
X190700000Y-93000000D03*
X170583144Y-81098996D03*
X171401004Y-118083144D03*
X122951004Y-81033144D03*
X168416856Y-56901004D03*
X147000000Y-77700000D03*
X197083144Y-129098996D03*
X194098996Y-69416856D03*
X173500000Y-125700000D03*
X192000000Y-60300000D03*
X133916856Y-56901004D03*
X157500000Y-60300000D03*
X126350000Y-57450000D03*
X174800000Y-94500000D03*
%TO.N,Net-(U2-P0.21{slash}~{RESET})*%
X144583247Y-77583246D03*
X171083247Y-125583246D03*
X194700000Y-57000000D03*
X170800000Y-129000000D03*
X159916753Y-60416754D03*
X144300000Y-81000000D03*
X190583246Y-95416753D03*
X126466754Y-55033247D03*
X174916754Y-92083247D03*
X123050000Y-54750000D03*
X160200000Y-57000000D03*
X194416753Y-60416754D03*
X171500000Y-91800000D03*
X194000000Y-95700000D03*
%TO.N,/Dice/DOCK+*%
X123540735Y-115999265D03*
X123389265Y-114150735D03*
%TO.N,GND*%
X157950000Y-55496342D03*
X192450000Y-55496342D03*
X194700000Y-54925199D03*
X144300000Y-83074801D03*
X195503658Y-93450000D03*
X170800000Y-131074801D03*
X167500000Y-78411843D03*
X183000000Y-52735207D03*
X120975199Y-54750000D03*
X146550000Y-82503658D03*
X182500000Y-133264793D03*
X156000000Y-85264793D03*
X170052371Y-79505415D03*
X125638157Y-77950000D03*
X137000000Y-59588157D03*
X160200000Y-54925199D03*
X173050000Y-130503658D03*
X169996342Y-94050000D03*
X191411843Y-72500000D03*
X148500000Y-52735207D03*
X171500000Y-59588157D03*
X121546342Y-57000000D03*
X124544585Y-80502371D03*
X198264793Y-84000000D03*
X118785207Y-66450000D03*
X167235207Y-103500000D03*
X169425199Y-91800000D03*
X196074801Y-95700000D03*
X192505415Y-69947629D03*
X196552371Y-127505415D03*
X172994585Y-117552371D03*
X174088157Y-115000000D03*
X134447629Y-58494585D03*
X194000000Y-126411843D03*
X168947629Y-58494585D03*
%TO.N,/Dice/MOTION_INT*%
X192611843Y-74551473D03*
X124438157Y-75898527D03*
X190700000Y-89500000D03*
X126350000Y-60950000D03*
X165448527Y-79611843D03*
X174800000Y-98000000D03*
X154000000Y-60300000D03*
X172888157Y-112948527D03*
X139051473Y-58388157D03*
X150500000Y-77700000D03*
X173551473Y-58388157D03*
X188500000Y-60300000D03*
X177000000Y-125700000D03*
X191948527Y-127611843D03*
%TO.N,Net-(U2-SWDIO)*%
X167400000Y-100431024D03*
X192220058Y-52709444D03*
X157720058Y-52709444D03*
X198290556Y-93220058D03*
X118759444Y-57229942D03*
X152931024Y-85100000D03*
X167209444Y-94279942D03*
X146779942Y-85290556D03*
X186068976Y-52900000D03*
X151568976Y-52900000D03*
X173279942Y-133290556D03*
X198100000Y-87068976D03*
X118950000Y-63381024D03*
X179431024Y-133100000D03*
%TO.N,Net-(U2-ANT)*%
X193367667Y-52867667D03*
X194211843Y-76500000D03*
X141000000Y-56788157D03*
X174009444Y-133700000D03*
X118917667Y-56082333D03*
X167367667Y-93132333D03*
X157325735Y-82174265D03*
X181674265Y-55825735D03*
X125638157Y-73850000D03*
X191411843Y-76600000D03*
X147174265Y-55825735D03*
X172888157Y-111000000D03*
X198132333Y-94367667D03*
X171288157Y-111000000D03*
X180010015Y-130099999D03*
X121875735Y-67775735D03*
X172132333Y-133132333D03*
X141100000Y-59588157D03*
X191490556Y-52300000D03*
X170400001Y-101010015D03*
X163400000Y-78411843D03*
X121950001Y-63960015D03*
X170325735Y-104825735D03*
X122838157Y-73950000D03*
X185489985Y-55900001D03*
X144300000Y-84034801D03*
X190000000Y-127611843D03*
X141000000Y-58388157D03*
X118350000Y-57959444D03*
X195174265Y-82674265D03*
X168465199Y-91800000D03*
X156990556Y-52300000D03*
X189900000Y-126411843D03*
X190000000Y-129211843D03*
X174088157Y-110900000D03*
X170800000Y-132034801D03*
X195099999Y-86489985D03*
X124438157Y-73950000D03*
X120015199Y-54750000D03*
X145632333Y-85132333D03*
X153510015Y-82099999D03*
X150989985Y-55900001D03*
X163500000Y-79611843D03*
X175500000Y-58388157D03*
X183825735Y-130174265D03*
X194700000Y-53965199D03*
X158867667Y-52867667D03*
X175600000Y-59588157D03*
X163500000Y-81211843D03*
X192611843Y-76500000D03*
X160200000Y-53965199D03*
X166800000Y-95009444D03*
X175500000Y-56788157D03*
X198700000Y-92490556D03*
X147509444Y-85700000D03*
X197034801Y-95700000D03*
%TO.N,Net-(U2-DEC2)*%
X118350000Y-59074265D03*
X151507108Y-54600000D03*
X179492892Y-131400000D03*
X196400000Y-87007108D03*
X120650000Y-63442892D03*
X186007108Y-54600000D03*
X166800000Y-96124265D03*
X169100000Y-100492892D03*
X155875735Y-52300000D03*
X198700000Y-91375735D03*
X175124265Y-133700000D03*
X152992892Y-83400000D03*
X148624265Y-85700000D03*
X190375735Y-52300000D03*
%TO.N,Net-(U2-DEC3)*%
X149500000Y-85700000D03*
X198700000Y-90500000D03*
X150000000Y-52300000D03*
X154500000Y-85700000D03*
X198700000Y-85500000D03*
X155000000Y-52300000D03*
X118350000Y-64950000D03*
X184500000Y-52300000D03*
X189500000Y-52300000D03*
X176000000Y-133700000D03*
X166800000Y-102000000D03*
X118350000Y-59950000D03*
X166800000Y-97000000D03*
X181000000Y-133700000D03*
%TO.N,Net-(U2-XC1)*%
X119450000Y-64450000D03*
X167900000Y-101500000D03*
X150500000Y-53400000D03*
X154000000Y-84600000D03*
X197133258Y-73215599D03*
X172215599Y-53866742D03*
X193284401Y-132133258D03*
X185000000Y-53400000D03*
X168366742Y-114284401D03*
X137715599Y-53866742D03*
X197600000Y-86000000D03*
X119916742Y-77234401D03*
X180500000Y-132600000D03*
X166784401Y-84133258D03*
%TO.N,Net-(U2-XC2)*%
X119050000Y-74950000D03*
X167183657Y-116640061D03*
X198316343Y-70859939D03*
X169140061Y-85316343D03*
X169859939Y-52683657D03*
X198000000Y-75500000D03*
X167500000Y-112000000D03*
X135359939Y-52683657D03*
X195640061Y-133316343D03*
X164500000Y-85000000D03*
X118733657Y-79590061D03*
X140000000Y-53000000D03*
X191000000Y-133000000D03*
X174500000Y-53000000D03*
%TO.N,/Dock/BL*%
X140185003Y-117755000D03*
X140385006Y-113172500D03*
X128229874Y-101540735D03*
X129482061Y-102057939D03*
%TO.N,/Dock/CS*%
X127670735Y-102140735D03*
X128916374Y-102623626D03*
X139585003Y-113172500D03*
X137795000Y-125635000D03*
%TO.N,/Dock/DC*%
X138785000Y-113172500D03*
X126777868Y-103033603D03*
X128350687Y-103189313D03*
X137795000Y-123095000D03*
%TO.N,/Dock/RST*%
X127785000Y-103755000D03*
X126170735Y-103640735D03*
X134785000Y-113172500D03*
X135285000Y-114372500D03*
%TD*%
%TO.N,/Dice/DIE_PWR*%
D60*
X170370435Y-116818430D02*
X170370435Y-118072575D01*
X196500000Y-126500000D02*
X195849844Y-126500000D01*
X158508523Y-78646559D02*
X157361964Y-77500000D01*
X180491477Y-58988157D02*
X180491477Y-59353441D01*
X172868623Y-115767718D02*
X173833276Y-116732371D01*
X171488157Y-113500000D02*
X171000000Y-113500000D01*
X190500000Y-127011843D02*
X192500000Y-129011843D01*
X194601585Y-59250000D02*
X194900000Y-58951585D01*
X198103144Y-128603144D02*
X197664265Y-128164265D01*
X170681570Y-58317911D02*
X170681570Y-57395435D01*
X185000000Y-123000000D02*
X185008523Y-123008523D01*
X171896856Y-119103144D02*
X172335735Y-118664265D01*
X170572575Y-82129565D02*
X171603144Y-81098996D01*
X178745842Y-106745842D02*
X178000000Y-106000000D01*
X192631377Y-71732282D02*
X192682089Y-71681570D01*
X129550000Y-68950000D02*
X129050000Y-68950000D01*
X144100000Y-79048415D02*
X144100000Y-79110782D01*
X173750000Y-91898415D02*
X173451585Y-91600000D01*
X192011843Y-81491477D02*
X192011843Y-76000000D01*
X192011843Y-76000000D02*
X194011843Y-74000000D01*
X173488157Y-111500000D02*
X173488157Y-115148184D01*
X168318430Y-79682089D02*
X168318430Y-80604565D01*
X124418623Y-78717718D02*
X124367911Y-78768430D01*
X133927425Y-55870435D02*
X132896856Y-56901004D01*
X132896856Y-56901004D02*
X132896856Y-57396856D01*
X191646559Y-81491477D02*
X190500000Y-82638036D01*
X145991477Y-59353441D02*
X147138036Y-60500000D01*
X185745842Y-121754158D02*
X185000000Y-122500000D01*
X122550000Y-76450000D02*
X121920435Y-77079565D01*
X158508523Y-75008523D02*
X158508523Y-79011843D01*
X170732282Y-58368623D02*
X169767629Y-59333276D01*
X158508523Y-79011843D02*
X164000000Y-79011843D01*
X166629565Y-82129565D02*
X167818430Y-82129565D01*
X135267629Y-59333276D02*
X135267629Y-59382527D01*
X173488157Y-106008523D02*
X173853441Y-106008523D01*
X173000000Y-56988157D02*
X173000000Y-56500000D01*
X179754158Y-64245842D02*
X180500000Y-63500000D01*
X166000000Y-81500000D02*
X166629565Y-82129565D01*
X170000000Y-78500000D02*
X169349844Y-78500000D01*
X170370435Y-114129565D02*
X170370435Y-115318430D01*
X129041477Y-68958523D02*
X125038157Y-68958523D01*
X138500000Y-56988157D02*
X138500000Y-56500000D01*
X169232371Y-78666724D02*
X169232371Y-78617473D01*
X171351816Y-58988157D02*
X170732282Y-58368623D01*
X180500000Y-63500000D02*
X180500000Y-63000000D01*
X192048415Y-95900000D02*
X192110782Y-95900000D01*
X125550000Y-80450000D02*
X125550000Y-79799844D01*
X186714674Y-121754158D02*
X185745842Y-121754158D01*
X178745842Y-107714674D02*
X178745842Y-106745842D01*
X167396856Y-56901004D02*
X167396856Y-57396856D01*
X191666724Y-70767629D02*
X191617473Y-70767629D01*
X125550000Y-79799844D02*
X125432527Y-79682371D01*
X124367911Y-78768430D02*
X123445435Y-78768430D01*
X170898415Y-126750000D02*
X170600000Y-127048415D01*
X192500000Y-129011843D02*
X192500000Y-129500000D01*
X160101585Y-59250000D02*
X160400000Y-58951585D01*
X173488157Y-115148184D02*
X172868623Y-115767718D01*
X125383276Y-79682371D02*
X125432527Y-79682371D01*
X185008523Y-126646559D02*
X183861964Y-125500000D01*
X140500000Y-58988157D02*
X136851816Y-58988157D01*
X145991477Y-58988157D02*
X145991477Y-59353441D01*
X171603144Y-80603144D02*
X171164265Y-80164265D01*
X125403441Y-68958523D02*
X126550000Y-67811964D01*
X146000000Y-63000000D02*
X145991477Y-62991477D01*
X193603144Y-68396856D02*
X193164265Y-68835735D01*
X170732282Y-58368623D02*
X170681570Y-58317911D01*
X192500000Y-129500000D02*
X193129565Y-130129565D01*
X169650156Y-59500000D02*
X169767629Y-59382527D01*
X194818430Y-127682089D02*
X194818430Y-128604565D01*
X134500000Y-59500000D02*
X135150156Y-59500000D01*
X138500000Y-56500000D02*
X137870435Y-55870435D01*
X144285326Y-64245842D02*
X145254158Y-64245842D01*
X175000000Y-58988157D02*
X171351816Y-58988157D01*
X169349844Y-78500000D02*
X169232371Y-78617473D01*
X170370435Y-118072575D02*
X171401004Y-119103144D01*
X125038157Y-68958523D02*
X125403441Y-68958523D01*
X173488157Y-111500000D02*
X171488157Y-113500000D01*
X193925689Y-59250000D02*
X194601585Y-59250000D01*
X160400000Y-58951585D02*
X160400000Y-58889218D01*
X191750000Y-94925689D02*
X191750000Y-95601585D01*
X197072575Y-130129565D02*
X198103144Y-129098996D01*
X170600000Y-127048415D02*
X170600000Y-127110782D01*
X172817911Y-115818430D02*
X171895435Y-115818430D01*
X195732371Y-126666724D02*
X195732371Y-126617473D01*
X185008523Y-127011843D02*
X185008523Y-126646559D01*
X194011843Y-74000000D02*
X194500000Y-74000000D01*
X121920435Y-81022575D02*
X122951004Y-82053144D01*
X132896856Y-57396856D02*
X133335735Y-57835735D01*
X137870435Y-55870435D02*
X136681570Y-55870435D01*
X125038157Y-74450000D02*
X125038157Y-78098184D01*
X191500000Y-70000000D02*
X191500000Y-70650156D01*
X121920435Y-77079565D02*
X121920435Y-78268430D01*
X194767718Y-127631377D02*
X194818430Y-127682089D01*
X174000000Y-117500000D02*
X174000000Y-116849844D01*
X123038157Y-76450000D02*
X122550000Y-76450000D01*
X173488157Y-106008523D02*
X173488157Y-111500000D01*
X188008523Y-81491477D02*
X192011843Y-81491477D01*
X194767718Y-127631377D02*
X195732371Y-126666724D01*
X144398415Y-78750000D02*
X144100000Y-79048415D01*
X164000000Y-79011843D02*
X167648184Y-79011843D01*
X125001585Y-54550000D02*
X124939218Y-54550000D01*
X125300000Y-54848415D02*
X125001585Y-54550000D01*
X125038157Y-68958523D02*
X125038157Y-74450000D01*
X169681570Y-55870435D02*
X168427425Y-55870435D01*
X175000000Y-58988157D02*
X173000000Y-56988157D01*
X171000000Y-113500000D02*
X170370435Y-114129565D01*
X125038157Y-74450000D02*
X123038157Y-76450000D01*
X130295842Y-70664674D02*
X130295842Y-69695842D01*
X195129565Y-70681570D02*
X195129565Y-69427425D01*
X192011843Y-72351816D02*
X192631377Y-71732282D01*
X169767629Y-59333276D02*
X169767629Y-59382527D01*
X136851816Y-58988157D02*
X136232282Y-58368623D01*
X178000000Y-106000000D02*
X177500000Y-106000000D01*
X158500000Y-75000000D02*
X158508523Y-75008523D01*
X191500000Y-70650156D02*
X191617473Y-70767629D01*
X158500000Y-74500000D02*
X158500000Y-75000000D01*
X180491477Y-58988157D02*
X175000000Y-58988157D01*
X194148184Y-127011843D02*
X194767718Y-127631377D01*
X145991477Y-62991477D02*
X145991477Y-58988157D01*
X167396856Y-57396856D02*
X167835735Y-57835735D01*
X192011843Y-76000000D02*
X192011843Y-72351816D01*
X185008523Y-123008523D02*
X185008523Y-127011843D01*
X169318430Y-82129565D02*
X170572575Y-82129565D01*
X180491477Y-62991477D02*
X180491477Y-58988157D01*
X173853441Y-106008523D02*
X175000000Y-104861964D01*
X180491477Y-59353441D02*
X181638036Y-60500000D01*
X173000000Y-56500000D02*
X172370435Y-55870435D01*
X186754158Y-80754158D02*
X187500000Y-81500000D01*
X135150156Y-59500000D02*
X135267629Y-59382527D01*
X145074311Y-78750000D02*
X144398415Y-78750000D01*
X173833276Y-116732371D02*
X173882527Y-116732371D01*
X123446856Y-82053144D02*
X123885735Y-81614265D01*
X167648184Y-79011843D02*
X168267718Y-79631377D01*
X129050000Y-68950000D02*
X129041477Y-68958523D01*
X159425689Y-59250000D02*
X160101585Y-59250000D01*
X192011843Y-81491477D02*
X191646559Y-81491477D01*
X180500000Y-63000000D02*
X180491477Y-62991477D01*
X185000000Y-122500000D02*
X185000000Y-123000000D01*
X194900000Y-58951585D02*
X194900000Y-58889218D01*
X173750000Y-92574311D02*
X173750000Y-91898415D01*
X195818430Y-130129565D02*
X197072575Y-130129565D01*
X178785326Y-64245842D02*
X179754158Y-64245842D01*
X172370435Y-55870435D02*
X171181570Y-55870435D01*
X145991477Y-58988157D02*
X140500000Y-58988157D01*
X192682089Y-71681570D02*
X193604565Y-71681570D01*
X169000000Y-59500000D02*
X169650156Y-59500000D01*
X122951004Y-82053144D02*
X123446856Y-82053144D01*
X192631377Y-71732282D02*
X191666724Y-70767629D01*
X168267718Y-79631377D02*
X169232371Y-78666724D01*
X158508523Y-79011843D02*
X158508523Y-78646559D01*
X136232282Y-58368623D02*
X135267629Y-59333276D01*
X168427425Y-55870435D02*
X167396856Y-56901004D01*
X194098996Y-68396856D02*
X193603144Y-68396856D01*
X124418623Y-78717718D02*
X125383276Y-79682371D01*
X174000000Y-116849844D02*
X173882527Y-116732371D01*
X146000000Y-63500000D02*
X146000000Y-63000000D01*
X140500000Y-58988157D02*
X138500000Y-56988157D01*
X171401004Y-119103144D02*
X171896856Y-119103144D01*
X193129565Y-130129565D02*
X194318430Y-130129565D01*
X172868623Y-115767718D02*
X172817911Y-115818430D01*
X177491477Y-106008523D02*
X173488157Y-106008523D01*
X145254158Y-64245842D02*
X146000000Y-63500000D01*
X177500000Y-106000000D02*
X177491477Y-106008523D01*
X130295842Y-69695842D02*
X129550000Y-68950000D01*
X164000000Y-79011843D02*
X166000000Y-81011843D01*
X187500000Y-81500000D02*
X188000000Y-81500000D01*
X195849844Y-126500000D02*
X195732371Y-126617473D01*
X160214674Y-73754158D02*
X159245842Y-73754158D01*
X159245842Y-73754158D02*
X158500000Y-74500000D01*
X186754158Y-79785326D02*
X186754158Y-80754158D01*
X195129565Y-69427425D02*
X194098996Y-68396856D01*
X191750000Y-95601585D02*
X192048415Y-95900000D01*
X135181570Y-55870435D02*
X133927425Y-55870435D01*
X173451585Y-91600000D02*
X173389218Y-91600000D01*
X136181570Y-58317911D02*
X136181570Y-57395435D01*
X125300000Y-55524311D02*
X125300000Y-54848415D01*
X188000000Y-81500000D02*
X188008523Y-81491477D01*
X136232282Y-58368623D02*
X136181570Y-58317911D01*
X171574311Y-126750000D02*
X170898415Y-126750000D01*
X166000000Y-81011843D02*
X166000000Y-81500000D01*
X198103144Y-129098996D02*
X198103144Y-128603144D01*
X185008523Y-127011843D02*
X190500000Y-127011843D01*
X194500000Y-74000000D02*
X195129565Y-73370435D01*
X195129565Y-73370435D02*
X195129565Y-72181570D01*
X125038157Y-78098184D02*
X124418623Y-78717718D01*
X121920435Y-79768430D02*
X121920435Y-81022575D01*
X168267718Y-79631377D02*
X168318430Y-79682089D01*
X190500000Y-127011843D02*
X194148184Y-127011843D01*
X171603144Y-81098996D02*
X171603144Y-80603144D01*
%TO.N,/Dice/I2C_SDA*%
X174781956Y-95914404D02*
X174781956Y-95308369D01*
X170181570Y-57395435D02*
X170181570Y-57948586D01*
X175300000Y-126600000D02*
X175300000Y-126103640D01*
X190200000Y-59896360D02*
X190585596Y-60281956D01*
X195318430Y-128604565D02*
X195318430Y-128051414D01*
X126331956Y-58864404D02*
X126331956Y-58258369D01*
X168818430Y-80051414D02*
X169232371Y-79637473D01*
X174914404Y-125718044D02*
X174308369Y-125718044D01*
X170181570Y-57948586D02*
X169767629Y-58362527D01*
X190585596Y-60281956D02*
X191191631Y-60281956D01*
X125450000Y-59250000D02*
X125946360Y-59250000D01*
X173900000Y-96300000D02*
X174396360Y-96300000D01*
X168818430Y-80604565D02*
X168818430Y-80051414D01*
X191103640Y-91200000D02*
X190718044Y-91585596D01*
X135681570Y-57948586D02*
X135267629Y-58362527D01*
X193604565Y-71181570D02*
X193051414Y-71181570D01*
X172448586Y-116318430D02*
X172862527Y-116732371D01*
X171895435Y-116318430D02*
X172448586Y-116318430D01*
X155700000Y-59896360D02*
X156085596Y-60281956D01*
X195318430Y-128051414D02*
X195732371Y-127637473D01*
X190718044Y-91585596D02*
X190718044Y-92191631D01*
X156085596Y-60281956D02*
X156691631Y-60281956D01*
X123998586Y-79268430D02*
X124412527Y-79682371D01*
X148800000Y-78600000D02*
X148800000Y-78103640D01*
X148414404Y-77718044D02*
X147808369Y-77718044D01*
X190200000Y-59400000D02*
X190200000Y-59896360D01*
X123445435Y-79268430D02*
X123998586Y-79268430D01*
X125946360Y-59250000D02*
X126331956Y-58864404D01*
X175300000Y-126103640D02*
X174914404Y-125718044D01*
X193051414Y-71181570D02*
X192637473Y-70767629D01*
X191600000Y-91200000D02*
X191103640Y-91200000D01*
X148800000Y-78103640D02*
X148414404Y-77718044D01*
X155700000Y-59400000D02*
X155700000Y-59896360D01*
X174396360Y-96300000D02*
X174781956Y-95914404D01*
X135681570Y-57395435D02*
X135681570Y-57948586D01*
%TO.N,Net-(C8-Pad2)*%
X194230932Y-58054372D02*
X194837213Y-58054372D01*
X193350000Y-58650000D02*
X194241585Y-58650000D01*
X173150000Y-92258415D02*
X172491585Y-91600000D01*
X171089712Y-102589712D02*
X170379273Y-101879273D01*
X171258415Y-127350000D02*
X170600000Y-128008415D01*
X187450000Y-58650000D02*
X187450000Y-58780445D01*
X178050000Y-127350000D02*
X178050000Y-127219555D01*
X193008415Y-95900000D02*
X193070782Y-95900000D01*
X152950000Y-58780445D02*
X153019555Y-58850000D01*
X178050000Y-127219555D02*
X177980445Y-127150000D01*
X149410288Y-56589712D02*
X150120727Y-55879273D01*
X124700000Y-56100000D02*
X124700000Y-55208415D01*
X187450000Y-58780445D02*
X187519555Y-58850000D01*
X144769068Y-79945628D02*
X144162787Y-79945628D01*
X124700000Y-62000000D02*
X124830445Y-62000000D01*
X159741585Y-58650000D02*
X160400000Y-57991585D01*
X160337213Y-58054372D02*
X160400000Y-57991585D01*
X124104372Y-55219068D02*
X124104372Y-54612787D01*
X155758817Y-81410288D02*
X155089712Y-81410288D01*
X183910288Y-56589712D02*
X184620727Y-55879273D01*
X192945628Y-95837213D02*
X193008415Y-95900000D01*
X124041585Y-54550000D02*
X123979218Y-54550000D01*
X194241585Y-58650000D02*
X194900000Y-57991585D01*
X144162787Y-79945628D02*
X144100000Y-80008415D01*
X172491585Y-91600000D02*
X172429218Y-91600000D01*
X160400000Y-57991585D02*
X160400000Y-57929218D01*
X170600000Y-128008415D02*
X170600000Y-128070782D01*
X181589712Y-129410288D02*
X180879273Y-130120727D01*
X152950000Y-58650000D02*
X152950000Y-58780445D01*
X172150000Y-127350000D02*
X171258415Y-127350000D01*
X194410288Y-84910288D02*
X195120727Y-85620727D01*
X183241183Y-56589712D02*
X183910288Y-56589712D01*
X192350000Y-95241585D02*
X193008415Y-95900000D01*
X182258817Y-129410288D02*
X181589712Y-129410288D01*
X148741183Y-56589712D02*
X149410288Y-56589712D01*
X194900000Y-57991585D02*
X194900000Y-57929218D01*
X144758415Y-79350000D02*
X144100000Y-80008415D01*
X124830445Y-62000000D02*
X124900000Y-61930445D01*
X124700000Y-55208415D02*
X124041585Y-54550000D01*
X144100000Y-80008415D02*
X144100000Y-80070782D01*
X173280445Y-99050000D02*
X173350000Y-98980445D01*
X124104372Y-54612787D02*
X124041585Y-54550000D01*
X151550000Y-79219555D02*
X151480445Y-79150000D01*
X145650000Y-79350000D02*
X144758415Y-79350000D01*
X158850000Y-58650000D02*
X159741585Y-58650000D01*
X192945628Y-95230932D02*
X192945628Y-95837213D01*
X155089712Y-81410288D02*
X154379273Y-82120727D01*
X194837213Y-58054372D02*
X194900000Y-57991585D01*
X122639712Y-65539712D02*
X121929273Y-64829273D01*
X170662787Y-127945628D02*
X170600000Y-128008415D01*
X171269068Y-127945628D02*
X170662787Y-127945628D01*
X159730932Y-58054372D02*
X160337213Y-58054372D01*
X173150000Y-99050000D02*
X173280445Y-99050000D01*
X151550000Y-79350000D02*
X151550000Y-79219555D01*
X172554372Y-92269068D02*
X172554372Y-91662787D01*
X192350000Y-88450000D02*
X192219555Y-88450000D01*
X192219555Y-88450000D02*
X192150000Y-88519555D01*
X122639712Y-66208817D02*
X122639712Y-65539712D01*
X194410288Y-84241183D02*
X194410288Y-84910288D01*
X192350000Y-94350000D02*
X192350000Y-95241585D01*
X171089712Y-103258817D02*
X171089712Y-102589712D01*
X173150000Y-93150000D02*
X173150000Y-92258415D01*
X172554372Y-91662787D02*
X172491585Y-91600000D01*
%TO.N,/Dice/I2C_SCL*%
X122932935Y-79780930D02*
X122932935Y-81015075D01*
X155300000Y-59400000D02*
X155300000Y-60100000D01*
X125450000Y-59650000D02*
X126150000Y-59650000D01*
X155300000Y-60100000D02*
X156081956Y-60881956D01*
X194117065Y-70669070D02*
X194117065Y-69434925D01*
X190581956Y-60881956D02*
X191440160Y-60881956D01*
X175381956Y-95059840D02*
X174822116Y-94500000D01*
X189800000Y-60100000D02*
X190581956Y-60881956D01*
X148418044Y-77118044D02*
X147559840Y-77118044D01*
X190900000Y-90800000D02*
X190118044Y-91581956D01*
X190677884Y-93000000D02*
X190700000Y-93000000D01*
X168434925Y-56882935D02*
X168416856Y-56901004D01*
X175700000Y-125900000D02*
X174918044Y-125118044D01*
X174059840Y-125118044D02*
X173500000Y-125677884D01*
X174822116Y-94500000D02*
X174800000Y-94500000D01*
X191600000Y-90800000D02*
X190900000Y-90800000D01*
X195830930Y-129117065D02*
X197065075Y-129117065D01*
X133934925Y-56882935D02*
X133916856Y-56901004D01*
X156940160Y-60881956D02*
X157500000Y-60322116D01*
X174600000Y-96700000D02*
X175381956Y-95918044D01*
X169330930Y-81117065D02*
X170565075Y-81117065D01*
X147000000Y-77677884D02*
X147000000Y-77700000D01*
X147559840Y-77118044D02*
X147000000Y-77677884D01*
X173500000Y-125677884D02*
X173500000Y-125700000D01*
X126931956Y-58009840D02*
X126372116Y-57450000D01*
X191440160Y-60881956D02*
X192000000Y-60322116D01*
X157500000Y-60322116D02*
X157500000Y-60300000D01*
X126931956Y-58868044D02*
X126931956Y-58009840D01*
X122932935Y-81015075D02*
X122951004Y-81033144D01*
X175381956Y-95918044D02*
X175381956Y-95059840D01*
X190118044Y-91581956D02*
X190118044Y-92440160D01*
X171382935Y-118065075D02*
X171401004Y-118083144D01*
X156081956Y-60881956D02*
X156940160Y-60881956D01*
X190118044Y-92440160D02*
X190677884Y-93000000D01*
X149200000Y-77900000D02*
X148418044Y-77118044D01*
X170565075Y-81117065D02*
X170583144Y-81098996D01*
X174918044Y-125118044D02*
X174059840Y-125118044D01*
X169669070Y-56882935D02*
X168434925Y-56882935D01*
X149200000Y-78600000D02*
X149200000Y-77900000D01*
X126372116Y-57450000D02*
X126350000Y-57450000D01*
X126150000Y-59650000D02*
X126931956Y-58868044D01*
X189800000Y-59400000D02*
X189800000Y-60100000D01*
X192000000Y-60322116D02*
X192000000Y-60300000D01*
X175700000Y-126600000D02*
X175700000Y-125900000D01*
X135169070Y-56882935D02*
X133934925Y-56882935D01*
X171382935Y-116830930D02*
X171382935Y-118065075D01*
X197065075Y-129117065D02*
X197083144Y-129098996D01*
X194117065Y-69434925D02*
X194098996Y-69416856D01*
X173900000Y-96700000D02*
X174600000Y-96700000D01*
%TO.N,Net-(U2-P0.21{slash}~{RESET})*%
X194700000Y-57000000D02*
X194050000Y-56350000D01*
X194050000Y-56350000D02*
X194050000Y-54453640D01*
X144300000Y-81000000D02*
X144950000Y-81650000D01*
X171500000Y-91800000D02*
X170850000Y-92450000D01*
X196750000Y-94846360D02*
X196750000Y-94350000D01*
X160200000Y-57000000D02*
X159550000Y-56350000D01*
X194050000Y-54453640D02*
X193846360Y-54250000D01*
X120503640Y-55400000D02*
X120300000Y-55603640D01*
X159346360Y-54250000D02*
X158850000Y-54250000D01*
X159550000Y-56350000D02*
X159550000Y-54453640D01*
X194650000Y-95050000D02*
X196546360Y-95050000D01*
X170850000Y-92450000D02*
X168953640Y-92450000D01*
X193846360Y-54250000D02*
X193350000Y-54250000D01*
X171450000Y-129650000D02*
X171450000Y-131546360D01*
X194000000Y-95700000D02*
X194650000Y-95050000D01*
X196546360Y-95050000D02*
X196750000Y-94846360D01*
X171450000Y-131546360D02*
X171653640Y-131750000D01*
X168953640Y-92450000D02*
X168750000Y-92653640D01*
X144950000Y-83546360D02*
X145153640Y-83750000D01*
X171653640Y-131750000D02*
X172150000Y-131750000D01*
X170800000Y-129000000D02*
X171450000Y-129650000D01*
X120300000Y-55603640D02*
X120300000Y-56100000D01*
X144950000Y-81650000D02*
X144950000Y-83546360D01*
X123050000Y-54750000D02*
X122400000Y-55400000D01*
X159550000Y-54453640D02*
X159346360Y-54250000D01*
X168750000Y-92653640D02*
X168750000Y-93150000D01*
X145153640Y-83750000D02*
X145650000Y-83750000D01*
X122400000Y-55400000D02*
X120503640Y-55400000D01*
%TO.N,Net-(D1-K)*%
X187914221Y-79645263D02*
X187774158Y-79785326D01*
X177585779Y-108913696D02*
X177585779Y-107854737D01*
X144145263Y-63085779D02*
X144285326Y-63225842D01*
X177586304Y-63085779D02*
X178645263Y-63085779D01*
X161413696Y-74914221D02*
X160354737Y-74914221D01*
X187914221Y-78586304D02*
X187914221Y-79645263D01*
X129135779Y-71863696D02*
X129135779Y-70804737D01*
X129135779Y-70804737D02*
X129275842Y-70664674D01*
X177585779Y-107854737D02*
X177725842Y-107714674D01*
X187913696Y-122914221D02*
X186854737Y-122914221D01*
X186854737Y-122914221D02*
X186714674Y-122774158D01*
X160354737Y-74914221D02*
X160214674Y-74774158D01*
X178645263Y-63085779D02*
X178785326Y-63225842D01*
X143086304Y-63085779D02*
X144145263Y-63085779D01*
%TO.N,/Dice/DOCK+*%
X131580258Y-71863696D02*
X130535779Y-71863696D01*
X157295000Y-100740000D02*
X159270000Y-100740000D01*
X181339334Y-107604620D02*
X180030258Y-108913696D01*
X159270000Y-100740000D02*
X159785000Y-101255000D01*
X161413696Y-72469742D02*
X161413696Y-73514221D01*
X146295000Y-100740000D02*
X157295000Y-100740000D01*
X159780000Y-106255000D02*
X157295000Y-108740000D01*
X187913696Y-120469742D02*
X187913696Y-121514221D01*
X158300000Y-117240000D02*
X157295000Y-117240000D01*
X178895380Y-66839334D02*
X177586304Y-65530258D01*
X186604620Y-119160666D02*
X187913696Y-120469742D01*
X121285000Y-128175000D02*
X123540735Y-125919265D01*
X157770000Y-108740000D02*
X160285000Y-111255000D01*
X143086304Y-65530258D02*
X143086304Y-64485779D01*
X184160666Y-79895380D02*
X185469742Y-78586304D01*
X159785000Y-101255000D02*
X159785000Y-106255000D01*
X123389265Y-114150735D02*
X123389265Y-112459265D01*
X123389265Y-112459265D02*
X120795000Y-109865000D01*
X129920000Y-100740000D02*
X146295000Y-100740000D01*
X123540735Y-125919265D02*
X123540735Y-115999265D01*
X180030258Y-108913696D02*
X178985779Y-108913696D01*
X120795000Y-109865000D02*
X129920000Y-100740000D01*
X146295000Y-117240000D02*
X157295000Y-117240000D01*
X132889334Y-70554620D02*
X131580258Y-71863696D01*
X160285000Y-115255000D02*
X158300000Y-117240000D01*
X144395380Y-66839334D02*
X143086304Y-65530258D01*
X185469742Y-78586304D02*
X186514221Y-78586304D01*
X146295000Y-108740000D02*
X157295000Y-108740000D01*
X160104620Y-71160666D02*
X161413696Y-72469742D01*
X177586304Y-65530258D02*
X177586304Y-64485779D01*
X159785000Y-106255000D02*
X159780000Y-106255000D01*
X157295000Y-108740000D02*
X157770000Y-108740000D01*
X160285000Y-111255000D02*
X160285000Y-115255000D01*
%TO.N,GND*%
X182238036Y-64261964D02*
X182238036Y-58738036D01*
X122500000Y-59050000D02*
X121546342Y-58096342D01*
X195281157Y-87299235D02*
X193750765Y-87299235D01*
X191500000Y-68020000D02*
X192080000Y-68020000D01*
X174899713Y-100047138D02*
X174289713Y-100657138D01*
X172900000Y-82600000D02*
X171266909Y-84233091D01*
X168818430Y-82129565D02*
X168318430Y-82129565D01*
X133098244Y-68223530D02*
X132889334Y-68014620D01*
X193550000Y-88450000D02*
X193550000Y-90400000D01*
X182321189Y-133085982D02*
X182500000Y-133264793D01*
X168905288Y-116318430D02*
X170370435Y-116318430D01*
X128533988Y-120117177D02*
X128533988Y-118867177D01*
X184433314Y-105273530D02*
X181548244Y-105273530D01*
X193604565Y-70124565D02*
X193604565Y-70681570D01*
X173420000Y-119480000D02*
X172500000Y-120400000D01*
X152453149Y-60900000D02*
X152879895Y-60900000D01*
X171491477Y-106008523D02*
X168488157Y-106008523D01*
X134447629Y-58494585D02*
X134447629Y-58129376D01*
X128533988Y-118867177D02*
X133628665Y-113772500D01*
X173406742Y-52906742D02*
X172215599Y-52906742D01*
X171266909Y-84233091D02*
X170392642Y-84233091D01*
X168040061Y-85316343D02*
X168040061Y-85253695D01*
X196916343Y-70859939D02*
X196594712Y-71181570D01*
X174088157Y-115508184D02*
X174088157Y-115000000D01*
X169900000Y-120400000D02*
X168266909Y-118766909D01*
X118956742Y-76043258D02*
X118956742Y-77234401D01*
X165593258Y-85093258D02*
X166784401Y-85093258D01*
X120548634Y-57098634D02*
X120548634Y-56990612D01*
X198093258Y-72183024D02*
X198316343Y-71959939D01*
X198480000Y-126500000D02*
X198480000Y-127080000D01*
X143785000Y-117270000D02*
X143785000Y-113790000D01*
X118956742Y-78266976D02*
X118733657Y-78490061D01*
X136683024Y-52906742D02*
X136459939Y-52683657D01*
X190100000Y-87953149D02*
X190100000Y-88379895D01*
X192261964Y-83238036D02*
X194008523Y-81491477D01*
X151799235Y-55718843D02*
X151799235Y-57249235D01*
X120038157Y-68958523D02*
X120038157Y-74961843D01*
X132520000Y-59500000D02*
X132520000Y-58920000D01*
X192093258Y-133093258D02*
X193284401Y-133093258D01*
X125378623Y-78717718D02*
X125638157Y-78458184D01*
X195640061Y-131916343D02*
X195318430Y-131594712D01*
X170991816Y-59588157D02*
X171500000Y-59588157D01*
X191411843Y-71991816D02*
X191411843Y-72500000D01*
X152950000Y-57450000D02*
X154900000Y-57450000D01*
X196916343Y-69924106D02*
X197233091Y-69607358D01*
X197766909Y-132233091D02*
X196892642Y-132233091D01*
X180491477Y-53988157D02*
X180491477Y-55491477D01*
X170052371Y-79505415D02*
X170052371Y-79870624D01*
X186299235Y-55718843D02*
X186299235Y-57249235D01*
X123445435Y-80325435D02*
X123445435Y-79768430D01*
X181066686Y-82226470D02*
X183951756Y-82226470D01*
X175100000Y-129550000D02*
X176100000Y-128550000D01*
X183261964Y-121738036D02*
X183261964Y-127261964D01*
X152700765Y-80750765D02*
X152500000Y-80550000D01*
X191011843Y-132011843D02*
X192093258Y-133093258D01*
X136491816Y-59588157D02*
X137000000Y-59588157D01*
X156761964Y-73738036D02*
X156761964Y-79261964D01*
X190400000Y-56450000D02*
X191353658Y-55496342D01*
X143785000Y-105755000D02*
X143820000Y-105755000D01*
X198085982Y-84893740D02*
X198085982Y-84178811D01*
X198253695Y-71959939D02*
X197153695Y-70859939D01*
X124788036Y-67211964D02*
X123041477Y-68958523D01*
X147646342Y-82503658D02*
X146550000Y-82503658D01*
X170075894Y-83916343D02*
X170392642Y-84233091D01*
X179657138Y-126210287D02*
X179657138Y-127892862D01*
X195508523Y-81491477D02*
X193550000Y-83450000D01*
X190600287Y-87452862D02*
X190100000Y-87953149D01*
X166100000Y-55400000D02*
X167733091Y-53766909D01*
X193000000Y-67100000D02*
X195600000Y-67100000D01*
X145991477Y-53988157D02*
X139988157Y-53988157D01*
X180491477Y-55491477D02*
X182450000Y-57450000D01*
X132520000Y-59500000D02*
X134624565Y-57395435D01*
X198480000Y-126500000D02*
X196375435Y-128604565D01*
X168488157Y-106008523D02*
X168488157Y-112011843D01*
X145991477Y-53988157D02*
X145991477Y-55491477D01*
X123500000Y-62000000D02*
X123500000Y-60050000D01*
X170732282Y-59328623D02*
X170991816Y-59588157D01*
X179200765Y-130281157D02*
X179200765Y-128750765D01*
X170750000Y-96300000D02*
X168000000Y-96300000D01*
X167414018Y-102606260D02*
X167414018Y-103321189D01*
X147738036Y-64261964D02*
X147738036Y-58738036D01*
X146295000Y-119780000D02*
X143785000Y-117270000D01*
X183261964Y-127261964D02*
X185008523Y-129008523D01*
X186452862Y-60399713D02*
X185842862Y-59789713D01*
X146295000Y-125369146D02*
X146295000Y-119780000D01*
X194540061Y-133253695D02*
X195640061Y-132153695D01*
X181606260Y-133085982D02*
X182321189Y-133085982D01*
X125638157Y-78458184D02*
X125638157Y-77950000D01*
X130311964Y-67211964D02*
X124788036Y-67211964D01*
X155700000Y-56250000D02*
X155700000Y-53500000D01*
X157564620Y-72935380D02*
X156761964Y-73738036D01*
X167183657Y-115540061D02*
X167246305Y-115540061D01*
X181226470Y-67048244D02*
X181435380Y-66839334D01*
X120133657Y-79590061D02*
X120455288Y-79268430D01*
X171950000Y-104050000D02*
X171950000Y-100000000D01*
X183178811Y-52914018D02*
X183000000Y-52735207D01*
X131600000Y-58000000D02*
X131600000Y-55400000D01*
X138906742Y-52906742D02*
X137715599Y-52906742D01*
X156550000Y-80550000D02*
X152500000Y-80550000D01*
X179047138Y-125600287D02*
X178546851Y-125100000D01*
X190200000Y-56250000D02*
X190200000Y-53500000D01*
X186299235Y-57249235D02*
X186500000Y-57450000D01*
X149393740Y-52914018D02*
X148678811Y-52914018D01*
X185008523Y-129008523D02*
X185008523Y-132011843D01*
X197011843Y-75488157D02*
X198093258Y-74406742D01*
X135359939Y-54083657D02*
X135681570Y-54405288D01*
X168583657Y-116640061D02*
X168583657Y-117575894D01*
X134424106Y-54083657D02*
X134107358Y-53766909D01*
X185008523Y-132011843D02*
X185008523Y-130508523D01*
X183050000Y-128550000D02*
X179000000Y-128550000D01*
X121920435Y-79268430D02*
X121920435Y-78768430D01*
X171980000Y-78500000D02*
X169875435Y-80604565D01*
X194767718Y-126671377D02*
X194508184Y-126411843D01*
X175100000Y-129550000D02*
X174146342Y-130503658D01*
X118956742Y-77234401D02*
X118956742Y-78266976D01*
X169859939Y-54083657D02*
X170181570Y-54405288D01*
X148600000Y-81550000D02*
X149600000Y-80550000D01*
X170052371Y-79870624D02*
X169318430Y-80604565D01*
X167816976Y-85093258D02*
X168040061Y-85316343D01*
X153157138Y-78210287D02*
X153157138Y-79892862D01*
X149445000Y-131915000D02*
X147785000Y-130255000D01*
X184160666Y-82435380D02*
X185935380Y-82435380D01*
X198093258Y-73215599D02*
X198093258Y-72183024D01*
X194550000Y-91400000D02*
X194750000Y-91200000D01*
X123500000Y-67000000D02*
X123500000Y-62950000D01*
X195503658Y-92353658D02*
X195503658Y-93450000D01*
X152700765Y-82281157D02*
X152700765Y-80750765D01*
X121450000Y-83350000D02*
X119816909Y-81716909D01*
X148800000Y-81750000D02*
X148800000Y-84500000D01*
X120133657Y-80525894D02*
X119816909Y-80842642D01*
X136459939Y-52683657D02*
X136459939Y-52746305D01*
X172994585Y-117552371D02*
X172629376Y-117552371D01*
X183951756Y-82226470D02*
X184160666Y-82435380D01*
X170959939Y-52746305D02*
X169859939Y-53846305D01*
X191353658Y-55496342D02*
X192450000Y-55496342D01*
X172629376Y-117552371D02*
X171895435Y-116818430D01*
X146101897Y-128571897D02*
X143092249Y-128571897D01*
X158508523Y-81008523D02*
X158508523Y-84011843D01*
X135681570Y-54405288D02*
X135681570Y-55870435D01*
X156853658Y-55496342D02*
X157950000Y-55496342D01*
X193750765Y-87299235D02*
X193550000Y-87500000D01*
X166100000Y-58000000D02*
X166100000Y-55400000D01*
X178546851Y-125100000D02*
X178120105Y-125100000D01*
X194540061Y-133316343D02*
X194540061Y-133253695D01*
X168008184Y-78411843D02*
X167500000Y-78411843D01*
X196375435Y-128604565D02*
X195818430Y-128604565D01*
X169859939Y-53846305D02*
X169859939Y-54083657D01*
X170370435Y-116318430D02*
X170370435Y-115818430D01*
X195129565Y-71181570D02*
X195129565Y-71681570D01*
X182238036Y-58738036D02*
X180491477Y-56991477D01*
X142145000Y-135615000D02*
X142145000Y-133405000D01*
X118733657Y-78490061D02*
X118796305Y-78490061D01*
X132520000Y-59500000D02*
X132520000Y-60500000D01*
X168947629Y-58129376D02*
X169681570Y-57395435D01*
X164511843Y-84011843D02*
X165593258Y-85093258D01*
X151342862Y-58107138D02*
X152000000Y-57450000D01*
X185842862Y-58107138D02*
X186500000Y-57450000D01*
X179047138Y-125600287D02*
X179657138Y-126210287D01*
X137715599Y-52906742D02*
X136683024Y-52906742D01*
X196552371Y-127505415D02*
X196552371Y-127870624D01*
X146648634Y-83501366D02*
X146540612Y-83501366D01*
X126715000Y-125285000D02*
X126715000Y-121936165D01*
X195318430Y-131594712D02*
X195318430Y-130129565D01*
X157773530Y-68066686D02*
X157773530Y-70951756D01*
X180491477Y-53988157D02*
X174488157Y-53988157D01*
X178050000Y-128550000D02*
X176100000Y-128550000D01*
X192892862Y-86842862D02*
X193550000Y-87500000D01*
X185842862Y-59789713D02*
X185842862Y-58107138D01*
X167406742Y-113093258D02*
X167406742Y-114284401D01*
X168040061Y-85253695D02*
X169140061Y-84153695D01*
X167246305Y-115540061D02*
X168346305Y-116640061D01*
X170959939Y-52683657D02*
X170959939Y-52746305D01*
X196916343Y-70859939D02*
X196916343Y-69924106D01*
X174000000Y-119480000D02*
X171895435Y-117375435D01*
X120038157Y-68958523D02*
X121541477Y-68958523D01*
X122500000Y-59050000D02*
X122300000Y-59250000D01*
X172500000Y-120400000D02*
X169900000Y-120400000D01*
X184064620Y-119160666D02*
X184064620Y-120935380D01*
X120133657Y-79590061D02*
X120133657Y-80525894D01*
X172215599Y-52906742D02*
X171183024Y-52906742D01*
X170218843Y-100200765D02*
X171749235Y-100200765D01*
X194008523Y-81491477D02*
X197011843Y-81491477D01*
X174899713Y-100047138D02*
X175400000Y-99546851D01*
X118796305Y-78490061D02*
X119896305Y-79590061D01*
X197011843Y-81491477D02*
X195508523Y-81491477D01*
X173148634Y-131501366D02*
X173040612Y-131501366D01*
X126715000Y-121936165D02*
X128533988Y-120117177D01*
X179000000Y-128550000D02*
X178050000Y-128550000D01*
X185008523Y-132011843D02*
X191011843Y-132011843D01*
X196552371Y-127870624D02*
X195818430Y-128604565D01*
X191500000Y-68020000D02*
X193604565Y-70124565D01*
X131600000Y-55400000D02*
X133233091Y-53766909D01*
X152500000Y-80550000D02*
X151550000Y-80550000D01*
X169140061Y-83916343D02*
X168818430Y-83594712D01*
X195600000Y-67100000D02*
X197233091Y-68733091D01*
X171950000Y-100000000D02*
X171950000Y-99050000D01*
X168488157Y-106008523D02*
X169991477Y-106008523D01*
X168818430Y-83594712D02*
X168818430Y-82129565D01*
X148678811Y-52914018D02*
X148500000Y-52735207D01*
X192351366Y-54498634D02*
X192459388Y-54498634D01*
X170950000Y-96100000D02*
X171950000Y-97100000D01*
X186500000Y-57450000D02*
X187450000Y-57450000D01*
X194550000Y-91400000D02*
X193550000Y-90400000D01*
X155900000Y-56450000D02*
X156853658Y-55496342D01*
X169140061Y-83916343D02*
X170075894Y-83916343D01*
X179564620Y-105064620D02*
X178761964Y-104261964D01*
X121541477Y-68958523D02*
X123500000Y-67000000D01*
X119896305Y-79590061D02*
X120133657Y-79590061D01*
X190400000Y-56450000D02*
X190200000Y-56250000D01*
X148600000Y-81550000D02*
X147646342Y-82503658D01*
X167020000Y-59500000D02*
X167020000Y-58920000D01*
X187450000Y-57450000D02*
X189400000Y-57450000D01*
X126449713Y-62997138D02*
X125839713Y-63607138D01*
X148600000Y-81550000D02*
X148800000Y-81750000D01*
X132889334Y-68014620D02*
X131114620Y-68014620D01*
X184273530Y-118951756D02*
X184064620Y-119160666D01*
X146295000Y-103280000D02*
X157295000Y-103280000D01*
X167733091Y-53766909D02*
X168607358Y-53766909D01*
X193284401Y-133093258D02*
X194316976Y-133093258D01*
X185008523Y-130508523D02*
X183050000Y-128550000D01*
X169875435Y-80604565D02*
X169318430Y-80604565D01*
X184064620Y-120935380D02*
X183261964Y-121738036D01*
X186953149Y-60900000D02*
X187379895Y-60900000D01*
X133233091Y-53766909D02*
X134107358Y-53766909D01*
X125839713Y-63607138D02*
X124157138Y-63607138D01*
X175100000Y-129550000D02*
X175300000Y-129750000D01*
X168346305Y-116640061D02*
X168583657Y-116640061D01*
X174000000Y-119480000D02*
X175000000Y-119480000D01*
X153157138Y-79892862D02*
X152500000Y-80550000D01*
X126449713Y-62997138D02*
X126950000Y-62496851D01*
X156761964Y-79261964D02*
X158508523Y-81008523D01*
X171183024Y-52906742D02*
X170959939Y-52683657D01*
X134447629Y-58129376D02*
X135181570Y-57395435D01*
X198480000Y-127080000D02*
X199400000Y-128000000D01*
X118964018Y-66271189D02*
X118785207Y-66450000D01*
X168947629Y-58494585D02*
X168947629Y-58129376D01*
X172607138Y-100657138D02*
X171950000Y-100000000D01*
X186738036Y-83238036D02*
X192261964Y-83238036D01*
X124050000Y-83350000D02*
X121450000Y-83350000D01*
X181548244Y-105273530D02*
X181339334Y-105064620D01*
X133628665Y-113772500D02*
X143802500Y-113772500D01*
X167020000Y-59500000D02*
X167020000Y-60500000D01*
X147738036Y-58738036D02*
X145991477Y-56991477D01*
X170950000Y-96100000D02*
X170750000Y-96300000D01*
X124179376Y-80502371D02*
X123445435Y-79768430D01*
X146726470Y-67048244D02*
X146935380Y-66839334D01*
X197153695Y-70859939D02*
X196916343Y-70859939D01*
X146935380Y-66839334D02*
X146935380Y-65064620D01*
X178761964Y-104261964D02*
X173238036Y-104261964D01*
X175400000Y-99546851D02*
X175400000Y-99120105D01*
X192080000Y-68020000D02*
X193000000Y-67100000D01*
X121546342Y-58096342D02*
X121546342Y-57000000D01*
X169996342Y-95146342D02*
X169996342Y-94050000D01*
X171980000Y-79080000D02*
X172900000Y-80000000D01*
X168583657Y-116640061D02*
X168905288Y-116318430D01*
X191500000Y-68020000D02*
X190500000Y-68020000D01*
X186452862Y-60399713D02*
X186953149Y-60900000D01*
X136232282Y-59328623D02*
X136491816Y-59588157D01*
X179200765Y-128750765D02*
X179000000Y-128550000D01*
X171895435Y-117375435D02*
X171895435Y-116818430D01*
X170181570Y-55870435D02*
X170681570Y-55870435D01*
X168266909Y-118766909D02*
X168266909Y-117892642D01*
X197233091Y-68733091D02*
X197233091Y-69607358D01*
X183893740Y-52914018D02*
X183178811Y-52914018D01*
X181226470Y-69933314D02*
X181226470Y-67048244D01*
X167414018Y-103321189D02*
X167235207Y-103500000D01*
X149445000Y-133405000D02*
X149445000Y-135615000D01*
X135681570Y-55870435D02*
X136181570Y-55870435D01*
X194508184Y-126411843D02*
X194000000Y-126411843D01*
X180491477Y-56991477D02*
X180491477Y-53988157D01*
X131114620Y-68014620D02*
X130311964Y-67211964D01*
X155900000Y-56450000D02*
X154900000Y-57450000D01*
X174146342Y-130503658D02*
X173050000Y-130503658D01*
X122300000Y-59250000D02*
X119550000Y-59250000D01*
X174000000Y-119480000D02*
X173420000Y-119480000D01*
X145991477Y-56991477D02*
X145991477Y-53988157D01*
X173238036Y-104261964D02*
X171491477Y-106008523D01*
X155106260Y-85085982D02*
X155821189Y-85085982D01*
X181339334Y-105064620D02*
X179564620Y-105064620D01*
X134624565Y-57395435D02*
X135181570Y-57395435D01*
X184273530Y-116066686D02*
X184273530Y-118951756D01*
X124544585Y-80502371D02*
X124179376Y-80502371D01*
X151952862Y-60399713D02*
X152453149Y-60900000D01*
X192870624Y-69947629D02*
X193604565Y-70681570D01*
X146726470Y-69933314D02*
X146726470Y-67048244D01*
X151342862Y-59789713D02*
X151342862Y-58107138D01*
X124970000Y-82430000D02*
X124050000Y-83350000D01*
X135983314Y-68223530D02*
X133098244Y-68223530D01*
X167020000Y-59500000D02*
X169124565Y-57395435D01*
X168488157Y-112011843D02*
X167406742Y-113093258D01*
X195318430Y-130129565D02*
X194818430Y-130129565D01*
X151952862Y-60399713D02*
X151342862Y-59789713D01*
X146295000Y-111280000D02*
X143785000Y-108770000D01*
X191210287Y-86842862D02*
X192892862Y-86842862D01*
X146295000Y-111280000D02*
X157295000Y-111280000D01*
X185935380Y-82435380D02*
X186738036Y-83238036D01*
X168924106Y-54083657D02*
X168607358Y-53766909D01*
X157773530Y-70951756D02*
X157564620Y-71160666D01*
X174488157Y-53988157D02*
X173406742Y-52906742D01*
X146295000Y-119780000D02*
X157295000Y-119780000D01*
X152547138Y-77600287D02*
X153157138Y-78210287D01*
X193550000Y-87500000D02*
X193550000Y-88450000D01*
X152547138Y-77600287D02*
X152046851Y-77100000D01*
X123041477Y-68958523D02*
X120038157Y-68958523D01*
X126950000Y-62496851D02*
X126950000Y-62070105D01*
X119816909Y-81716909D02*
X119816909Y-80842642D01*
X195640061Y-131916343D02*
X196575894Y-131916343D01*
X198480000Y-126500000D02*
X198480000Y-125500000D01*
X199400000Y-128000000D02*
X199400000Y-130600000D01*
X120455288Y-79268430D02*
X121920435Y-79268430D01*
X174289713Y-100657138D02*
X172607138Y-100657138D01*
X182450000Y-57450000D02*
X186500000Y-57450000D01*
X190400000Y-56450000D02*
X189400000Y-57450000D01*
X149445000Y-135615000D02*
X142145000Y-135615000D01*
X152000000Y-57450000D02*
X152950000Y-57450000D01*
X168267718Y-78671377D02*
X168008184Y-78411843D01*
X143785000Y-113790000D02*
X143802500Y-113772500D01*
X120038157Y-74961843D02*
X118956742Y-76043258D01*
X146935380Y-65064620D02*
X147738036Y-64261964D01*
X199400000Y-130600000D02*
X197766909Y-132233091D01*
X143802500Y-113772500D02*
X146295000Y-111280000D01*
X169124565Y-57395435D02*
X169681570Y-57395435D01*
X151799235Y-57249235D02*
X152000000Y-57450000D01*
X190600287Y-87452862D02*
X191210287Y-86842862D01*
X169140061Y-84153695D02*
X169140061Y-83916343D01*
X136459939Y-52746305D02*
X135359939Y-53846305D01*
X125550000Y-82430000D02*
X126550000Y-82430000D01*
X192505415Y-69947629D02*
X192870624Y-69947629D01*
X196575894Y-131916343D02*
X196892642Y-132233091D01*
X139988157Y-53988157D02*
X138906742Y-52906742D01*
X168998634Y-94148634D02*
X168998634Y-94040612D01*
X132520000Y-58920000D02*
X131600000Y-58000000D01*
X143785000Y-108770000D02*
X143785000Y-105755000D01*
X123500000Y-62950000D02*
X123500000Y-62000000D01*
X149445000Y-133405000D02*
X149445000Y-131915000D01*
X194750000Y-91200000D02*
X197500000Y-91200000D01*
X179657138Y-127892862D02*
X179000000Y-128550000D01*
X172900000Y-80000000D02*
X172900000Y-82600000D01*
X197011843Y-81491477D02*
X197011843Y-75488157D01*
X191671377Y-71732282D02*
X191411843Y-71991816D01*
X198085982Y-84178811D02*
X198264793Y-84000000D01*
X155821189Y-85085982D02*
X156000000Y-85264793D01*
X143820000Y-105755000D02*
X146295000Y-103280000D01*
X157851366Y-54498634D02*
X157959388Y-54498634D01*
X152046851Y-77100000D02*
X151620105Y-77100000D01*
X155900000Y-56450000D02*
X155700000Y-56250000D01*
X167406742Y-114284401D02*
X167406742Y-115316976D01*
X147785000Y-130255000D02*
X146101897Y-128571897D01*
X151550000Y-80550000D02*
X149600000Y-80550000D01*
X181435380Y-65064620D02*
X182238036Y-64261964D01*
X169859939Y-54083657D02*
X168924106Y-54083657D01*
X120795000Y-112405000D02*
X128507177Y-120117177D01*
X170181570Y-54405288D02*
X170181570Y-55870435D01*
X135359939Y-54083657D02*
X134424106Y-54083657D01*
X194550000Y-91400000D02*
X195503658Y-92353658D01*
X125550000Y-82430000D02*
X123445435Y-80325435D01*
X171980000Y-78500000D02*
X171980000Y-77500000D01*
X123299235Y-63150765D02*
X123500000Y-62950000D01*
X198316343Y-71959939D02*
X198253695Y-71959939D01*
X171950000Y-99050000D02*
X171950000Y-97100000D01*
X171749235Y-100200765D02*
X171950000Y-100000000D01*
X121285000Y-130715000D02*
X126715000Y-125285000D01*
X173828623Y-115767718D02*
X174088157Y-115508184D01*
X128507177Y-120117177D02*
X128533988Y-120117177D01*
X157564620Y-71160666D02*
X157564620Y-72935380D01*
X194316976Y-133093258D02*
X194540061Y-133316343D01*
X118964018Y-65556260D02*
X118964018Y-66271189D01*
X143092249Y-128571897D02*
X146295000Y-125369146D01*
X167406742Y-115316976D02*
X167183657Y-115540061D01*
X170950000Y-96100000D02*
X169996342Y-95146342D01*
X181435380Y-66839334D02*
X181435380Y-65064620D01*
X158508523Y-82508523D02*
X156550000Y-80550000D01*
X145991477Y-55491477D02*
X147950000Y-57450000D01*
X147950000Y-57450000D02*
X152000000Y-57450000D01*
X125550000Y-82430000D02*
X124970000Y-82430000D01*
X122500000Y-59050000D02*
X123500000Y-60050000D01*
X158508523Y-84011843D02*
X164511843Y-84011843D01*
X166784401Y-85093258D02*
X167816976Y-85093258D01*
X196594712Y-71181570D02*
X195129565Y-71181570D01*
X124157138Y-63607138D02*
X123500000Y-62950000D01*
X169991477Y-106008523D02*
X171950000Y-104050000D01*
X158508523Y-84011843D02*
X158508523Y-82508523D01*
X121768843Y-63150765D02*
X123299235Y-63150765D01*
X193550000Y-83450000D02*
X193550000Y-87500000D01*
X135359939Y-53846305D02*
X135359939Y-54083657D01*
X198093258Y-74406742D02*
X198093258Y-73215599D01*
X168583657Y-117575894D02*
X168266909Y-117892642D01*
X196501366Y-93351366D02*
X196501366Y-93459388D01*
X175300000Y-129750000D02*
X175300000Y-132500000D01*
X195640061Y-132153695D02*
X195640061Y-131916343D01*
X171980000Y-78500000D02*
X171980000Y-79080000D01*
X167020000Y-58920000D02*
X166100000Y-58000000D01*
%TO.N,Net-(U2-DEC1)*%
X188200000Y-59400000D02*
X188079529Y-59400000D01*
X125450000Y-61370471D02*
X126149634Y-62070105D01*
X173900000Y-98420471D02*
X174599634Y-99120105D01*
X191600000Y-89200000D02*
X191600000Y-89079529D01*
X125450000Y-61250000D02*
X125450000Y-61370471D01*
X150800000Y-78600000D02*
X150920471Y-78600000D01*
X150920471Y-78600000D02*
X151620105Y-77900366D01*
X191600000Y-89079529D02*
X190900366Y-88379895D01*
X153579529Y-59400000D02*
X152879895Y-60099634D01*
X153700000Y-59400000D02*
X153579529Y-59400000D01*
X173900000Y-98300000D02*
X173900000Y-98420471D01*
X177300000Y-126600000D02*
X177420471Y-126600000D01*
X177420471Y-126600000D02*
X178120105Y-125900366D01*
X188079529Y-59400000D02*
X187379895Y-60099634D01*
%TO.N,/Dice/MOTION_INT*%
X173551473Y-58388157D02*
X172046251Y-56882935D01*
X154900000Y-59896360D02*
X154900000Y-59400000D01*
X174800000Y-97503640D02*
X174396360Y-97100000D01*
X154000000Y-60300000D02*
X154496360Y-60300000D01*
X166953749Y-81117065D02*
X167805930Y-81117065D01*
X125946360Y-60050000D02*
X125450000Y-60050000D01*
X177000000Y-125700000D02*
X176503640Y-125700000D01*
X126350000Y-60950000D02*
X126350000Y-60453640D01*
X176100000Y-126103640D02*
X176100000Y-126600000D01*
X194117065Y-73046251D02*
X194117065Y-72194070D01*
X165448527Y-79611843D02*
X166953749Y-81117065D01*
X171382935Y-114453749D02*
X171382935Y-115305930D01*
X191948527Y-127611843D02*
X193453749Y-129117065D01*
X189400000Y-59896360D02*
X189400000Y-59400000D01*
X149600000Y-78103640D02*
X149600000Y-78600000D01*
X172046251Y-56882935D02*
X171194070Y-56882935D01*
X192611843Y-74551473D02*
X194117065Y-73046251D01*
X191103640Y-90400000D02*
X191600000Y-90400000D01*
X174800000Y-98000000D02*
X174800000Y-97503640D01*
X154496360Y-60300000D02*
X154900000Y-59896360D01*
X188996360Y-60300000D02*
X189400000Y-59896360D01*
X150500000Y-77700000D02*
X150003640Y-77700000D01*
X190700000Y-89500000D02*
X190700000Y-89996360D01*
X193453749Y-129117065D02*
X194305930Y-129117065D01*
X190700000Y-89996360D02*
X191103640Y-90400000D01*
X150003640Y-77700000D02*
X149600000Y-78103640D01*
X137546251Y-56882935D02*
X136694070Y-56882935D01*
X188500000Y-60300000D02*
X188996360Y-60300000D01*
X124438157Y-75898527D02*
X122932935Y-77403749D01*
X172888157Y-112948527D02*
X171382935Y-114453749D01*
X176503640Y-125700000D02*
X176100000Y-126103640D01*
X126350000Y-60453640D02*
X125946360Y-60050000D01*
X139051473Y-58388157D02*
X137546251Y-56882935D01*
X122932935Y-77403749D02*
X122932935Y-78255930D01*
X174396360Y-97100000D02*
X173900000Y-97100000D01*
%TO.N,Net-(U2-SWDCLK)*%
X193583863Y-53500000D02*
X194386055Y-52697808D01*
X198302192Y-95386055D02*
X198483863Y-95386055D01*
X158100000Y-53500000D02*
X159083863Y-53500000D01*
X194386055Y-52697808D02*
X194386055Y-52516137D01*
X118747808Y-55063945D02*
X118566137Y-55063945D01*
X119550000Y-55866137D02*
X118747808Y-55063945D01*
X145416137Y-84500000D02*
X144613945Y-85302192D01*
X159083863Y-53500000D02*
X159886055Y-52697808D01*
X171113945Y-133302192D02*
X171113945Y-133483863D01*
X119550000Y-56850000D02*
X119550000Y-55866137D01*
X171916137Y-132500000D02*
X171113945Y-133302192D01*
X144613945Y-85302192D02*
X144613945Y-85483863D01*
X146400000Y-84500000D02*
X145416137Y-84500000D01*
X167197808Y-92113945D02*
X167016137Y-92113945D01*
X197500000Y-93600000D02*
X197500000Y-94583863D01*
X192600000Y-53500000D02*
X193583863Y-53500000D01*
X159886055Y-52697808D02*
X159886055Y-52516137D01*
X197500000Y-94583863D02*
X198302192Y-95386055D01*
X168000000Y-92916137D02*
X167197808Y-92113945D01*
X168000000Y-93900000D02*
X168000000Y-92916137D01*
X172900000Y-132500000D02*
X171916137Y-132500000D01*
%TO.N,Net-(U2-SWDIO)*%
X192200000Y-52729502D02*
X192220058Y-52709444D01*
X146800000Y-85270498D02*
X146779942Y-85290556D01*
X198270498Y-93200000D02*
X198290556Y-93220058D01*
X197500000Y-93200000D02*
X198270498Y-93200000D01*
X146800000Y-84500000D02*
X146800000Y-85270498D01*
X173300000Y-133270498D02*
X173279942Y-133290556D01*
X168000000Y-94300000D02*
X167229502Y-94300000D01*
X167229502Y-94300000D02*
X167209444Y-94279942D01*
X173300000Y-132500000D02*
X173300000Y-133270498D01*
X119550000Y-57250000D02*
X118779502Y-57250000D01*
X157700000Y-52729502D02*
X157720058Y-52709444D01*
X118779502Y-57250000D02*
X118759444Y-57229942D01*
X192200000Y-53500000D02*
X192200000Y-52729502D01*
X157700000Y-53500000D02*
X157700000Y-52729502D01*
%TO.N,Net-(U2-ANT)*%
X148400000Y-84996360D02*
X148400000Y-84500000D01*
X189900000Y-126411843D02*
X190811843Y-125500000D01*
X150989985Y-55900001D02*
X150104493Y-55014509D01*
X166800000Y-95009444D02*
X166800000Y-95196360D01*
X198890556Y-93609444D02*
X198132333Y-94367667D01*
X166609444Y-95009444D02*
X166609444Y-93890556D01*
X198000000Y-91600000D02*
X198890556Y-92490556D01*
X190600000Y-53500000D02*
X190600000Y-53000000D01*
X169514509Y-101895507D02*
X169514509Y-104014509D01*
X172890556Y-133890556D02*
X172132333Y-133132333D01*
X119550000Y-58850000D02*
X119050000Y-58850000D01*
X174900000Y-132500000D02*
X174900000Y-133000000D01*
X185489985Y-55900001D02*
X184604493Y-55014509D01*
X175500000Y-56788157D02*
X175500000Y-58388157D01*
X153510015Y-82099999D02*
X154395507Y-82985491D01*
X194211843Y-76500000D02*
X192611843Y-76500000D01*
X118159444Y-56840556D02*
X118917667Y-56082333D01*
X190811843Y-125500000D02*
X195515000Y-125500000D01*
X190600000Y-53000000D02*
X191490556Y-52109444D01*
X174009444Y-133890556D02*
X172890556Y-133890556D01*
X174009444Y-133700000D02*
X174196360Y-133700000D01*
X174088157Y-110900000D02*
X175000000Y-111811843D01*
X121950001Y-63960015D02*
X121064509Y-64845507D01*
X183014509Y-130985491D02*
X183825735Y-130174265D01*
X146390556Y-85890556D02*
X145632333Y-85132333D01*
X197996360Y-91600000D02*
X197500000Y-91600000D01*
X184604493Y-55014509D02*
X182485491Y-55014509D01*
X166609444Y-93890556D02*
X167367667Y-93132333D01*
X174900000Y-132996360D02*
X174900000Y-132500000D01*
X191490556Y-52300000D02*
X191303640Y-52300000D01*
X156990556Y-52109444D02*
X158109444Y-52109444D01*
X156514509Y-82985491D02*
X157325735Y-82174265D01*
X197500000Y-91600000D02*
X198000000Y-91600000D01*
X156990556Y-52300000D02*
X156803640Y-52300000D01*
X141000000Y-56788157D02*
X141000000Y-58388157D01*
X195985491Y-83485491D02*
X195174265Y-82674265D01*
X148400000Y-85000000D02*
X147509444Y-85890556D01*
X167500000Y-95900000D02*
X166609444Y-95009444D01*
X169514509Y-104014509D02*
X170325735Y-104825735D01*
X126550000Y-74761843D02*
X126550000Y-79465000D01*
X174900000Y-133000000D02*
X174009444Y-133890556D01*
X156100000Y-53000000D02*
X156990556Y-52109444D01*
X121064509Y-64845507D02*
X121064509Y-66964509D01*
X121064509Y-66964509D02*
X121875735Y-67775735D01*
X175000000Y-111811843D02*
X175000000Y-116515000D01*
X163400000Y-78411843D02*
X164311843Y-77500000D01*
X156100000Y-53003640D02*
X156100000Y-53500000D01*
X147509444Y-85700000D02*
X147696360Y-85700000D01*
X148400000Y-84500000D02*
X148400000Y-85000000D01*
X190600000Y-53003640D02*
X190600000Y-53500000D01*
X158109444Y-52109444D02*
X158867667Y-52867667D01*
X192609444Y-52109444D02*
X193367667Y-52867667D01*
X154395507Y-82985491D02*
X156514509Y-82985491D01*
X198700000Y-92490556D02*
X198700000Y-92303640D01*
X195099999Y-86489985D02*
X195985491Y-85604493D01*
X147985491Y-55014509D02*
X147174265Y-55825735D01*
X190500000Y-75688157D02*
X190500000Y-70985000D01*
X182485491Y-55014509D02*
X181674265Y-55825735D01*
X163500000Y-81211843D02*
X163500000Y-79611843D01*
X180895507Y-130985491D02*
X183014509Y-130985491D01*
X141100000Y-59588157D02*
X140188157Y-60500000D01*
X164311843Y-77500000D02*
X169015000Y-77500000D01*
X147509444Y-85890556D02*
X146390556Y-85890556D01*
X118159444Y-57959444D02*
X118159444Y-56840556D01*
X125638157Y-73850000D02*
X126550000Y-74761843D01*
X140188157Y-60500000D02*
X135485000Y-60500000D01*
X171288157Y-111000000D02*
X172888157Y-111000000D01*
X195985491Y-85604493D02*
X195985491Y-83485491D01*
X167503640Y-95900000D02*
X168000000Y-95900000D01*
X156100000Y-53500000D02*
X156100000Y-53000000D01*
X119050000Y-58850000D02*
X118159444Y-57959444D01*
X191490556Y-52109444D02*
X192609444Y-52109444D01*
X170400001Y-101010015D02*
X169514509Y-101895507D01*
X118350000Y-57959444D02*
X118350000Y-58146360D01*
X150104493Y-55014509D02*
X147985491Y-55014509D01*
X175600000Y-59588157D02*
X174688157Y-60500000D01*
X190000000Y-129211843D02*
X190000000Y-127611843D01*
X168000000Y-95900000D02*
X167500000Y-95900000D01*
X119053640Y-58850000D02*
X119550000Y-58850000D01*
X198890556Y-92490556D02*
X198890556Y-93609444D01*
X180010015Y-130099999D02*
X180895507Y-130985491D01*
X122838157Y-73950000D02*
X124438157Y-73950000D01*
X191411843Y-76600000D02*
X190500000Y-75688157D01*
X174688157Y-60500000D02*
X169985000Y-60500000D01*
%TO.N,Net-(U2-DEC2)*%
X148624265Y-85624265D02*
X149200000Y-85048530D01*
X149200000Y-85048530D02*
X149200000Y-84500000D01*
X119001470Y-59650000D02*
X119550000Y-59650000D01*
X151507108Y-54600000D02*
X151640392Y-54600000D01*
X118350000Y-59074265D02*
X118425735Y-59074265D01*
X196400000Y-87140392D02*
X196241157Y-87299235D01*
X166800000Y-96124265D02*
X166875735Y-96124265D01*
X166875735Y-96124265D02*
X167451470Y-96700000D01*
X120650000Y-63442892D02*
X120650000Y-63309608D01*
X175700000Y-133048530D02*
X175700000Y-132500000D01*
X148624265Y-85700000D02*
X148624265Y-85624265D01*
X198048530Y-90800000D02*
X197500000Y-90800000D01*
X179359608Y-131400000D02*
X179200765Y-131241157D01*
X196400000Y-87007108D02*
X196400000Y-87140392D01*
X175124265Y-133700000D02*
X175124265Y-133624265D01*
X155300000Y-52951470D02*
X155300000Y-53500000D01*
X167451470Y-96700000D02*
X168000000Y-96700000D01*
X186140392Y-54600000D02*
X186299235Y-54758843D01*
X186007108Y-54600000D02*
X186140392Y-54600000D01*
X198624265Y-91375735D02*
X198048530Y-90800000D01*
X155875735Y-52300000D02*
X155875735Y-52375735D01*
X152859608Y-83400000D02*
X152700765Y-83241157D01*
X151640392Y-54600000D02*
X151799235Y-54758843D01*
X169100000Y-100492892D02*
X169100000Y-100359608D01*
X169100000Y-100359608D02*
X169258843Y-100200765D01*
X118425735Y-59074265D02*
X119001470Y-59650000D01*
X190375735Y-52300000D02*
X190375735Y-52375735D01*
X152992892Y-83400000D02*
X152859608Y-83400000D01*
X190375735Y-52375735D02*
X189800000Y-52951470D01*
X120650000Y-63309608D02*
X120808843Y-63150765D01*
X198700000Y-91375735D02*
X198624265Y-91375735D01*
X179492892Y-131400000D02*
X179359608Y-131400000D01*
X155875735Y-52375735D02*
X155300000Y-52951470D01*
X189800000Y-52951470D02*
X189800000Y-53500000D01*
X175124265Y-133624265D02*
X175700000Y-133048530D01*
%TO.N,Net-(U2-DEC3)*%
X118450000Y-60050000D02*
X118350000Y-59950000D01*
X118350000Y-65210278D02*
X118150000Y-65410278D01*
X198700000Y-85500000D02*
X198700000Y-85239722D01*
X154760278Y-85700000D02*
X154960278Y-85900000D01*
X198700000Y-85239722D02*
X198900000Y-85039722D01*
X166800000Y-102260278D02*
X166600000Y-102460278D01*
X189400000Y-52400000D02*
X189500000Y-52300000D01*
X119550000Y-60050000D02*
X118450000Y-60050000D01*
X168000000Y-97100000D02*
X166900000Y-97100000D01*
X149600000Y-85600000D02*
X149500000Y-85700000D01*
X118350000Y-64950000D02*
X118350000Y-65210278D01*
X166600000Y-102460278D02*
X166600000Y-102606260D01*
X154500000Y-85700000D02*
X154760278Y-85700000D01*
X198600000Y-90400000D02*
X198700000Y-90500000D01*
X149600000Y-84500000D02*
X149600000Y-85600000D01*
X184500000Y-52300000D02*
X184239722Y-52300000D01*
X150000000Y-52300000D02*
X149739722Y-52300000D01*
X154900000Y-52400000D02*
X155000000Y-52300000D01*
X166800000Y-102000000D02*
X166800000Y-102260278D01*
X118150000Y-65410278D02*
X118150000Y-65556260D01*
X181260278Y-133700000D02*
X181460278Y-133900000D01*
X176100000Y-133600000D02*
X176000000Y-133700000D01*
X198900000Y-85039722D02*
X198900000Y-84893740D01*
X154900000Y-53500000D02*
X154900000Y-52400000D01*
X149739722Y-52300000D02*
X149539722Y-52100000D01*
X197500000Y-90400000D02*
X198600000Y-90400000D01*
X181460278Y-133900000D02*
X181606260Y-133900000D01*
X184239722Y-52300000D02*
X184039722Y-52100000D01*
X181000000Y-133700000D02*
X181260278Y-133700000D01*
X149539722Y-52100000D02*
X149393740Y-52100000D01*
X154960278Y-85900000D02*
X155106260Y-85900000D01*
X176100000Y-132500000D02*
X176100000Y-133600000D01*
X189400000Y-53500000D02*
X189400000Y-52400000D01*
X184039722Y-52100000D02*
X183893740Y-52100000D01*
X166900000Y-97100000D02*
X166800000Y-97000000D01*
%TO.N,Net-(U2-XC1)*%
X118450000Y-61883033D02*
X119650000Y-63083033D01*
X168583657Y-115540061D02*
X168583657Y-114501316D01*
X168000000Y-97500000D02*
X167337954Y-97500000D01*
X119650000Y-63083033D02*
X119650000Y-64450000D01*
X168100000Y-101500000D02*
X167900000Y-101500000D01*
X154000000Y-84400000D02*
X154000000Y-84600000D01*
X167337954Y-97500000D02*
X166900000Y-97937955D01*
X168040061Y-83916343D02*
X167001316Y-83916343D01*
X185000000Y-53600000D02*
X185000000Y-53400000D01*
X197500000Y-90000000D02*
X198162046Y-90000000D01*
X196916343Y-72998684D02*
X197133258Y-73215599D01*
X120133657Y-78490061D02*
X120133657Y-77451316D01*
X150437955Y-85600000D02*
X151433033Y-85600000D01*
X119550000Y-60450000D02*
X118887954Y-60450000D01*
X166900000Y-98933033D02*
X168100000Y-100133033D01*
X198600000Y-88566967D02*
X197400000Y-87366967D01*
X168100000Y-100133033D02*
X168100000Y-101500000D01*
X196916343Y-71959939D02*
X196916343Y-72998684D01*
X194540061Y-131916343D02*
X193501316Y-131916343D01*
X176937955Y-133600000D02*
X177933033Y-133600000D01*
X119650000Y-64450000D02*
X119450000Y-64450000D01*
X151433033Y-85600000D02*
X152633033Y-84400000D01*
X189000000Y-53500000D02*
X189000000Y-52837954D01*
X176500000Y-133162046D02*
X176937955Y-133600000D01*
X118450000Y-60887955D02*
X118450000Y-61883033D01*
X154500000Y-53500000D02*
X154500000Y-52837954D01*
X136459939Y-54083657D02*
X137498684Y-54083657D01*
X154062045Y-52400000D02*
X153066967Y-52400000D01*
X171998684Y-54083657D02*
X172215599Y-53866742D01*
X198162046Y-90000000D02*
X198600000Y-89562045D01*
X176500000Y-132500000D02*
X176500000Y-133162046D01*
X187566967Y-52400000D02*
X186366967Y-53600000D01*
X166900000Y-97937955D02*
X166900000Y-98933033D01*
X186366967Y-53600000D02*
X185000000Y-53600000D01*
X154500000Y-52837954D02*
X154062045Y-52400000D01*
X150000000Y-85162046D02*
X150437955Y-85600000D01*
X197400000Y-87366967D02*
X197400000Y-86000000D01*
X151866967Y-53600000D02*
X150500000Y-53600000D01*
X152633033Y-84400000D02*
X154000000Y-84400000D01*
X150500000Y-53600000D02*
X150500000Y-53400000D01*
X167001316Y-83916343D02*
X166784401Y-84133258D01*
X188562045Y-52400000D02*
X187566967Y-52400000D01*
X118887954Y-60450000D02*
X118450000Y-60887955D01*
X197400000Y-86000000D02*
X197600000Y-86000000D01*
X193501316Y-131916343D02*
X193284401Y-132133258D01*
X120133657Y-77451316D02*
X119916742Y-77234401D01*
X137498684Y-54083657D02*
X137715599Y-53866742D01*
X180500000Y-132400000D02*
X180500000Y-132600000D01*
X189000000Y-52837954D02*
X188562045Y-52400000D01*
X179133033Y-132400000D02*
X180500000Y-132400000D01*
X198600000Y-89562045D02*
X198600000Y-88566967D01*
X153066967Y-52400000D02*
X151866967Y-53600000D01*
X177933033Y-133600000D02*
X179133033Y-132400000D01*
X170959939Y-54083657D02*
X171998684Y-54083657D01*
X150000000Y-84500000D02*
X150000000Y-85162046D01*
X168583657Y-114501316D02*
X168366742Y-114284401D01*
%TO.N,Net-(U2-XC2)*%
X181091270Y-53000000D02*
X174500000Y-53000000D01*
X120050000Y-62917347D02*
X120050000Y-65450000D01*
X197664793Y-82426477D02*
X198000000Y-82091270D01*
X119053640Y-60850000D02*
X118850000Y-61053640D01*
X187732653Y-52800000D02*
X186532653Y-54000000D01*
X198200000Y-88732653D02*
X197000000Y-87532653D01*
X167306909Y-116763313D02*
X167183657Y-116640061D01*
X198193091Y-69607358D02*
X198193091Y-70736687D01*
X135236687Y-52806909D02*
X135359939Y-52683657D01*
X168500000Y-99967347D02*
X168500000Y-102500000D01*
X155664793Y-84664793D02*
X157573523Y-84664793D01*
X154100000Y-53003640D02*
X153896360Y-52800000D01*
X167835207Y-103164793D02*
X167835207Y-105073523D01*
X167300000Y-98767347D02*
X168500000Y-99967347D01*
X120050000Y-65450000D02*
X119385207Y-66114793D01*
X118856909Y-79713313D02*
X118733657Y-79590061D01*
X195763313Y-133193091D02*
X195640061Y-133316343D01*
X197996360Y-89600000D02*
X198200000Y-89396360D01*
X181426477Y-53335207D02*
X181091270Y-53000000D01*
X178967347Y-132000000D02*
X181500000Y-132000000D01*
X152032653Y-54000000D02*
X149500000Y-54000000D01*
X196892642Y-133193091D02*
X195763313Y-133193091D01*
X176900000Y-132996360D02*
X177103640Y-133200000D01*
X119385207Y-68023523D02*
X119050000Y-68358730D01*
X151267347Y-85200000D02*
X152467347Y-84000000D01*
X182164793Y-132664793D02*
X184073523Y-132664793D01*
X184000000Y-54000000D02*
X183335207Y-53335207D01*
X176900000Y-132500000D02*
X176900000Y-132996360D01*
X184073523Y-132664793D02*
X184408730Y-133000000D01*
X119050000Y-68358730D02*
X119050000Y-74950000D01*
X118850000Y-61717347D02*
X120050000Y-62917347D01*
X197500000Y-89600000D02*
X197996360Y-89600000D01*
X150400000Y-84996360D02*
X150603640Y-85200000D01*
X184408730Y-133000000D02*
X191000000Y-133000000D01*
X198193091Y-70736687D02*
X198316343Y-70859939D01*
X149500000Y-54000000D02*
X148835207Y-53335207D01*
X186532653Y-54000000D02*
X184000000Y-54000000D01*
X154100000Y-53500000D02*
X154100000Y-53003640D01*
X197000000Y-85000000D02*
X197664793Y-84335207D01*
X150603640Y-85200000D02*
X151267347Y-85200000D01*
X198000000Y-82091270D02*
X198000000Y-75500000D01*
X174500000Y-53000000D02*
X174348529Y-53000000D01*
X198200000Y-89396360D02*
X198200000Y-88732653D01*
X169736687Y-52806909D02*
X169859939Y-52683657D01*
X140000000Y-53000000D02*
X139848529Y-53000000D01*
X157908730Y-85000000D02*
X164500000Y-85000000D01*
X119385207Y-66114793D02*
X119385207Y-68023523D01*
X153896360Y-52800000D02*
X153232653Y-52800000D01*
X155000000Y-84000000D02*
X155664793Y-84664793D01*
X197664793Y-84335207D02*
X197664793Y-82426477D01*
X181500000Y-132000000D02*
X182164793Y-132664793D01*
X153232653Y-52800000D02*
X152032653Y-54000000D01*
X167306909Y-117892642D02*
X167306909Y-116763313D01*
X169263313Y-85193091D02*
X169140061Y-85316343D01*
X167500000Y-105408730D02*
X167500000Y-112000000D01*
X146926477Y-53335207D02*
X146591270Y-53000000D01*
X188600000Y-53500000D02*
X188600000Y-53003640D01*
X150400000Y-84500000D02*
X150400000Y-84996360D01*
X168607358Y-52806909D02*
X169736687Y-52806909D01*
X177767347Y-133200000D02*
X178967347Y-132000000D01*
X167500000Y-112000000D02*
X167500000Y-112151471D01*
X152467347Y-84000000D02*
X155000000Y-84000000D01*
X118850000Y-61053640D02*
X118850000Y-61717347D01*
X191000000Y-133000000D02*
X191151471Y-133000000D01*
X134107358Y-52806909D02*
X135236687Y-52806909D01*
X168500000Y-102500000D02*
X167835207Y-103164793D01*
X146591270Y-53000000D02*
X140000000Y-53000000D01*
X119550000Y-60850000D02*
X119053640Y-60850000D01*
X167300000Y-98103640D02*
X167300000Y-98767347D01*
X164500000Y-85000000D02*
X164651471Y-85000000D01*
X177103640Y-133200000D02*
X177767347Y-133200000D01*
X148835207Y-53335207D02*
X146926477Y-53335207D01*
X188600000Y-53003640D02*
X188396360Y-52800000D01*
X157573523Y-84664793D02*
X157908730Y-85000000D01*
X167503640Y-97900000D02*
X167300000Y-98103640D01*
X188396360Y-52800000D02*
X187732653Y-52800000D01*
X167835207Y-105073523D02*
X167500000Y-105408730D01*
X118856909Y-80842642D02*
X118856909Y-79713313D01*
X197000000Y-87532653D02*
X197000000Y-85000000D01*
X170392642Y-85193091D02*
X169263313Y-85193091D01*
X168000000Y-97900000D02*
X167503640Y-97900000D01*
X119050000Y-74950000D02*
X119050000Y-75101471D01*
X183335207Y-53335207D02*
X181426477Y-53335207D01*
X198000000Y-75500000D02*
X198000000Y-75348529D01*
%TO.N,Net-(U2-DEC4)*%
X152046360Y-80150000D02*
X151550000Y-80150000D01*
X124400778Y-62997138D02*
X123900000Y-62496360D01*
X179047138Y-126560287D02*
X179047138Y-127649222D01*
X179047138Y-127649222D02*
X178546360Y-128150000D01*
X178546360Y-128150000D02*
X178050000Y-128150000D01*
X173939713Y-100047138D02*
X172850778Y-100047138D01*
X192649222Y-87452862D02*
X193150000Y-87953640D01*
X123900000Y-62496360D02*
X123900000Y-62000000D01*
X152547138Y-79649222D02*
X152046360Y-80150000D01*
X152453640Y-57850000D02*
X152950000Y-57850000D01*
X186452862Y-59439713D02*
X186452862Y-58350778D01*
X186452862Y-58350778D02*
X186953640Y-57850000D01*
X125489713Y-62997138D02*
X124400778Y-62997138D01*
X191560287Y-87452862D02*
X192649222Y-87452862D01*
X151952862Y-59439713D02*
X151952862Y-58350778D01*
X186953640Y-57850000D02*
X187450000Y-57850000D01*
X172850778Y-100047138D02*
X172350000Y-99546360D01*
X151952862Y-58350778D02*
X152453640Y-57850000D01*
X152547138Y-78560287D02*
X152547138Y-79649222D01*
X172350000Y-99546360D02*
X172350000Y-99050000D01*
X193150000Y-87953640D02*
X193150000Y-88450000D01*
%TO.N,Net-(AE1-PCB_Trace)*%
X190500000Y-68980000D02*
X191500000Y-68980000D01*
X126550000Y-80435000D02*
X126550000Y-81470000D01*
X169015000Y-60500000D02*
X167980000Y-60500000D01*
X175000000Y-117485000D02*
X175000000Y-118520000D01*
X197520000Y-125500000D02*
X197520000Y-126500000D01*
X175000000Y-118520000D02*
X174000000Y-118520000D01*
X190500000Y-70015000D02*
X190500000Y-68980000D01*
X133480000Y-60500000D02*
X133480000Y-59500000D01*
X171020000Y-77500000D02*
X171020000Y-78500000D01*
X126550000Y-81470000D02*
X125550000Y-81470000D01*
X134515000Y-60500000D02*
X133480000Y-60500000D01*
X196485000Y-125500000D02*
X197520000Y-125500000D01*
X169985000Y-77500000D02*
X171020000Y-77500000D01*
X167980000Y-60500000D02*
X167980000Y-59500000D01*
%TO.N,Net-(SW1-A)*%
X133285000Y-122868189D02*
X130533988Y-120117177D01*
X140285000Y-135255000D02*
X139785000Y-135755000D01*
X141345000Y-132705000D02*
X140285000Y-133765000D01*
X139785000Y-135755000D02*
X135785000Y-135755000D01*
X135785000Y-135755000D02*
X133285000Y-133255000D01*
X143545000Y-132755000D02*
X143495000Y-132705000D01*
X133285000Y-133255000D02*
X133285000Y-122868189D01*
X143495000Y-132705000D02*
X141345000Y-132705000D01*
X140285000Y-133765000D02*
X140285000Y-135255000D01*
%TO.N,Net-(BT1-+)*%
X141792249Y-127371897D02*
X141792249Y-129048243D01*
X141792249Y-129048243D02*
X145499006Y-132755000D01*
X143092249Y-126071897D02*
X141792249Y-127371897D01*
X145499006Y-132755000D02*
X146545000Y-132755000D01*
%TO.N,/Dock/BL*%
X126770735Y-101269265D02*
X126785000Y-101255000D01*
X127944139Y-101255000D02*
X128229874Y-101540735D01*
X126785000Y-101255000D02*
X127944139Y-101255000D01*
X139925003Y-118015000D02*
X137795000Y-118015000D01*
X123285000Y-98255000D02*
X126299265Y-101269265D01*
X140385006Y-112960884D02*
X140385006Y-113172500D01*
X123285000Y-97115000D02*
X123285000Y-98255000D01*
X129482061Y-102057939D02*
X140385006Y-112960884D01*
X126299265Y-101269265D02*
X126770735Y-101269265D01*
X120795000Y-94625000D02*
X123285000Y-97115000D01*
X140185003Y-117755000D02*
X139925003Y-118015000D01*
%TO.N,/Dock/CS*%
X128916374Y-102623626D02*
X129153626Y-102623626D01*
X120795000Y-97165000D02*
X125770735Y-102140735D01*
X125770735Y-102140735D02*
X127670735Y-102140735D01*
X139585003Y-113055003D02*
X139585003Y-113172500D01*
X129153626Y-102623626D02*
X139585003Y-113055003D01*
%TO.N,/Dock/DC*%
X124123603Y-103033603D02*
X126777868Y-103033603D01*
X120795000Y-99705000D02*
X124123603Y-103033603D01*
X138333874Y-113172500D02*
X138785000Y-113172500D01*
X128350687Y-103189313D02*
X138333874Y-113172500D01*
%TO.N,/Dock/RST*%
X135285000Y-118045000D02*
X137795000Y-120555000D01*
X127785000Y-103755000D02*
X134785000Y-110755000D01*
X135285000Y-114372500D02*
X135285000Y-118045000D01*
X134785000Y-110755000D02*
X134785000Y-113172500D01*
X122190735Y-103640735D02*
X126170735Y-103640735D01*
X120795000Y-102245000D02*
X122190735Y-103640735D01*
%TO.N,/Dock/DIN*%
X120269000Y-125635000D02*
X121285000Y-125635000D01*
X120795000Y-104785000D02*
X119245000Y-106335000D01*
X119245000Y-124611000D02*
X120269000Y-125635000D01*
X119245000Y-106335000D02*
X119245000Y-124611000D01*
%TO.N,/Dock/CLK*%
X119645000Y-119931000D02*
X120269000Y-120555000D01*
X120795000Y-107325000D02*
X119645000Y-108475000D01*
X119645000Y-108475000D02*
X119645000Y-119931000D01*
X120269000Y-120555000D02*
X121285000Y-120555000D01*
%TD*%
M02*
