%TF.GenerationSoftware,KiCad,Pcbnew,10.0.4*%
%TF.CreationDate,2026-09-13T08:14:41-05:00*%
%TF.ProjectId,WirelessDice,57697265-6c65-4737-9344-6963652e6b69,rev?*%
%TF.SameCoordinates,Original*%
%TF.FileFunction,Profile,NP*%
%FSLAX46Y46*%
G04 Gerber Fmt 4.6, Leading zero omitted, Abs format (unit mm)*
G04 Created by KiCad (PCBNEW 10.0.4) date 2026-09-13 08:14:41*
%MOMM*%
%LPD*%
G01*
G04 APERTURE LIST*
%TA.AperFunction,Profile*%
%ADD10C,0.050000*%
%TD*%
G04 APERTURE END LIST*
D10*
X110500000Y-44000000D02*
X210500000Y-44000000D01*
X110500000Y-144000000D02*
X110500000Y-44000000D01*
X115500000Y-59500000D02*
X115500000Y-49000000D01*
X115500000Y-60500000D02*
X117500000Y-60500000D01*
X115500000Y-77000000D02*
X115500000Y-60500000D01*
X115500000Y-78000000D02*
X117500000Y-78000000D01*
X115500000Y-95000000D02*
X115500000Y-78000000D01*
X115500000Y-95000000D02*
X117500000Y-95000000D01*
X115500000Y-96000000D02*
X115500000Y-111000000D01*
X115500000Y-111000000D02*
X117500000Y-111000000D01*
X115500000Y-112000000D02*
X115500000Y-128500000D01*
X115500000Y-129500000D02*
X115500000Y-139000000D01*
X115500000Y-139000000D02*
X122000000Y-139000000D01*
X117500000Y-59500000D02*
X115500000Y-59500000D01*
X117500000Y-59500000D02*
X117550000Y-53950000D01*
X117500000Y-77000000D02*
X115500000Y-77000000D01*
X117500000Y-77000000D02*
X117500000Y-60500000D01*
X117500000Y-91515000D02*
X117500000Y-95000000D01*
X117500000Y-91515000D02*
X122500000Y-91500000D01*
X117500000Y-96000000D02*
X115500000Y-96000000D01*
X117500000Y-96000000D02*
X117500000Y-111000000D01*
X117500000Y-112000000D02*
X115500000Y-112000000D01*
X117500000Y-112000000D02*
X117500000Y-128500000D01*
X117500000Y-128500000D02*
X115500000Y-128500000D01*
X117500000Y-129500000D02*
X115500000Y-129500000D01*
X117500000Y-129500000D02*
X117500000Y-136500000D01*
X117550000Y-53950000D02*
X121500000Y-53950000D01*
X117550000Y-83950000D02*
X117500000Y-78000000D01*
X121500000Y-49000000D02*
X115500000Y-49000000D01*
X121500000Y-53950000D02*
X121500000Y-49000000D01*
X122000000Y-136500000D02*
X117500000Y-136500000D01*
X122000000Y-136500000D02*
X122000000Y-139000000D01*
X122500000Y-49000000D02*
X122500000Y-53950000D01*
X122500000Y-91500000D02*
X122550000Y-83950000D01*
X122550000Y-83950000D02*
X117550000Y-83950000D01*
X123000000Y-136500000D02*
X136000000Y-136500000D01*
X123000000Y-139000000D02*
X123000000Y-136500000D01*
X123000000Y-139000000D02*
X136000000Y-139000000D01*
X123500000Y-91500000D02*
X123500000Y-84000000D01*
X123500000Y-91500000D02*
X150500000Y-91500000D01*
X127550000Y-53950000D02*
X122500000Y-53950000D01*
X127550000Y-63950000D02*
X127550000Y-53950000D01*
X127550000Y-73950000D02*
X127550000Y-83950000D01*
X127550000Y-73950000D02*
X137550000Y-73950000D01*
X127550000Y-83950000D02*
X123500000Y-84000000D01*
X131000000Y-51500000D02*
X136000000Y-51500000D01*
X131000000Y-61500000D02*
X131000000Y-51500000D01*
X133500000Y-61500000D02*
X131000000Y-61500000D01*
X133500000Y-64000000D02*
X127550000Y-63950000D01*
X133500000Y-64000000D02*
X133500000Y-61500000D01*
X134500000Y-64000000D02*
X134500000Y-61500000D01*
X136000000Y-49000000D02*
X122500000Y-49000000D01*
X136000000Y-51500000D02*
X136000000Y-49000000D01*
X136000000Y-136500000D02*
X136000000Y-139000000D01*
X137000000Y-49000000D02*
X137000000Y-51500000D01*
X137000000Y-51500000D02*
X152500000Y-51500000D01*
X137000000Y-136500000D02*
X150500000Y-136500000D01*
X137000000Y-139000000D02*
X137000000Y-136500000D01*
X137000000Y-139000000D02*
X150500000Y-139000000D01*
X137550000Y-63950000D02*
X134500000Y-64000000D01*
X137550000Y-63950000D02*
X137500000Y-67500000D01*
X137550000Y-68500000D02*
X137550000Y-73950000D01*
X141000000Y-61500000D02*
X134500000Y-61500000D01*
X141000000Y-67500000D02*
X137500000Y-67500000D01*
X141000000Y-67500000D02*
X141000000Y-61500000D01*
X141000000Y-68500000D02*
X137550000Y-68500000D01*
X141000000Y-71500000D02*
X141000000Y-68500000D01*
X141000000Y-71500000D02*
X146000000Y-71500000D01*
X143500000Y-76500000D02*
X143500000Y-86500000D01*
X146000000Y-71500000D02*
X146000000Y-76500000D01*
X146000000Y-76500000D02*
X143500000Y-76500000D01*
X147000000Y-71500000D02*
X147000000Y-76500000D01*
X147000000Y-71500000D02*
X151000000Y-71500000D01*
X150500000Y-86500000D02*
X143500000Y-86500000D01*
X150500000Y-86500000D02*
X150500000Y-91500000D01*
X150500000Y-139000000D02*
X150500000Y-136500000D01*
X151000000Y-61500000D02*
X151000000Y-68000000D01*
X151000000Y-61500000D02*
X161000000Y-61500000D01*
X151000000Y-68000000D02*
X153500000Y-68000000D01*
X151000000Y-69000000D02*
X151000000Y-71500000D01*
X151500000Y-91500000D02*
X151500000Y-86500000D01*
X151500000Y-91500000D02*
X161795000Y-91515000D01*
X151500000Y-136500000D02*
X151500000Y-139000000D01*
X151500000Y-136500000D02*
X161795000Y-136515000D01*
X151500000Y-139000000D02*
X176500000Y-139000000D01*
X152500000Y-49000000D02*
X137000000Y-49000000D01*
X152500000Y-51500000D02*
X152500000Y-49000000D01*
X153500000Y-49000000D02*
X153500000Y-51500000D01*
X153500000Y-51500000D02*
X161000000Y-51500000D01*
X153500000Y-68000000D02*
X153500000Y-66500000D01*
X153500000Y-69000000D02*
X151000000Y-69000000D01*
X153500000Y-76500000D02*
X147000000Y-76500000D01*
X153500000Y-76500000D02*
X153500000Y-69000000D01*
X161000000Y-56000000D02*
X161000000Y-51500000D01*
X161000000Y-56000000D02*
X165500000Y-56000000D01*
X161000000Y-61500000D02*
X161000000Y-57000000D01*
X161795000Y-91515000D02*
X161795000Y-136515000D01*
X163500000Y-66500000D02*
X153500000Y-66500000D01*
X163500000Y-66500000D02*
X163500000Y-67500000D01*
X163500000Y-67500000D02*
X175500000Y-67500000D01*
X163500000Y-68500000D02*
X163500000Y-76500000D01*
X163500000Y-76500000D02*
X173500000Y-76500000D01*
X165500000Y-51500000D02*
X165500000Y-56000000D01*
X165500000Y-57000000D02*
X161000000Y-57000000D01*
X165500000Y-57000000D02*
X165500000Y-61500000D01*
X166000000Y-91000000D02*
X166000000Y-121000000D01*
X170000000Y-124500000D02*
X170000000Y-134500000D01*
X170000000Y-124500000D02*
X173000000Y-124500000D01*
X170500000Y-86500000D02*
X151500000Y-86500000D01*
X170500000Y-91000000D02*
X166000000Y-91000000D01*
X170500000Y-91000000D02*
X170500000Y-86500000D01*
X171000000Y-49000000D02*
X153500000Y-49000000D01*
X171000000Y-49000000D02*
X171000000Y-51500000D01*
X171000000Y-51500000D02*
X165500000Y-51500000D01*
X171500000Y-86500000D02*
X171500000Y-91000000D01*
X172000000Y-51500000D02*
X172000000Y-49000000D01*
X173000000Y-121000000D02*
X166000000Y-121000000D01*
X173000000Y-121000000D02*
X173000000Y-124500000D01*
X173500000Y-76500000D02*
X173500000Y-80500000D01*
X173500000Y-80500000D02*
X179500000Y-80500000D01*
X173500000Y-81500000D02*
X173500000Y-86500000D01*
X173500000Y-86500000D02*
X171500000Y-86500000D01*
X174000000Y-124500000D02*
X174000000Y-121000000D01*
X174000000Y-124500000D02*
X180000000Y-124500000D01*
X175500000Y-61500000D02*
X165500000Y-61500000D01*
X175500000Y-67500000D02*
X175500000Y-61500000D01*
X175500000Y-68500000D02*
X163500000Y-68500000D01*
X175500000Y-71500000D02*
X175500000Y-68500000D01*
X176000000Y-91000000D02*
X171500000Y-91000000D01*
X176000000Y-101000000D02*
X176000000Y-91000000D01*
X176000000Y-111000000D02*
X176000000Y-121000000D01*
X176000000Y-121000000D02*
X174000000Y-121000000D01*
X176500000Y-134500000D02*
X170000000Y-134500000D01*
X176500000Y-134500000D02*
X176500000Y-139000000D01*
X177500000Y-139000000D02*
X177500000Y-134500000D01*
X177500000Y-139000000D02*
X195500000Y-139000000D01*
X179500000Y-76500000D02*
X179500000Y-80500000D01*
X179500000Y-76500000D02*
X182500000Y-76500000D01*
X179500000Y-81500000D02*
X173500000Y-81500000D01*
X179500000Y-81500000D02*
X179500000Y-86500000D01*
X179500000Y-86500000D02*
X189500000Y-86500000D01*
X180000000Y-114500000D02*
X180000000Y-124500000D01*
X180000000Y-114500000D02*
X182000000Y-114500000D01*
X182000000Y-111000000D02*
X176000000Y-111000000D01*
X182000000Y-111000000D02*
X182000000Y-114500000D01*
X182500000Y-71500000D02*
X175500000Y-71500000D01*
X182500000Y-71500000D02*
X182500000Y-76500000D01*
X183000000Y-114500000D02*
X183000000Y-111000000D01*
X183000000Y-114500000D02*
X190000000Y-114500000D01*
X183500000Y-76500000D02*
X183500000Y-71500000D01*
X183500000Y-76500000D02*
X189500000Y-76500000D01*
X185500000Y-61500000D02*
X195500000Y-61500000D01*
X185500000Y-71500000D02*
X183500000Y-71500000D01*
X185500000Y-71500000D02*
X185500000Y-61500000D01*
X186000000Y-49000000D02*
X172000000Y-49000000D01*
X186000000Y-51500000D02*
X172000000Y-51500000D01*
X186000000Y-51500000D02*
X186000000Y-49000000D01*
X186000000Y-101000000D02*
X176000000Y-101000000D01*
X186000000Y-101000000D02*
X186000000Y-104500000D01*
X186000000Y-104500000D02*
X205500000Y-104500000D01*
X186000000Y-105500000D02*
X186000000Y-111000000D01*
X186000000Y-111000000D02*
X183000000Y-111000000D01*
X187000000Y-49000000D02*
X187000000Y-51500000D01*
X189500000Y-66500000D02*
X199500000Y-66500000D01*
X189500000Y-76500000D02*
X189500000Y-66500000D01*
X189500000Y-86500000D02*
X189500000Y-96500000D01*
X189500000Y-96500000D02*
X199500000Y-96500000D01*
X190000000Y-124500000D02*
X190000000Y-114500000D01*
X190000000Y-124500000D02*
X200000000Y-124500000D01*
X195500000Y-51500000D02*
X187000000Y-51500000D01*
X195500000Y-51500000D02*
X195500000Y-55500000D01*
X195500000Y-55500000D02*
X205500000Y-55500000D01*
X195500000Y-56500000D02*
X195500000Y-61500000D01*
X195500000Y-134500000D02*
X177500000Y-134500000D01*
X195500000Y-134500000D02*
X195500000Y-139000000D01*
X196500000Y-139000000D02*
X196500000Y-134500000D01*
X196500000Y-139000000D02*
X205500000Y-139000000D01*
X199500000Y-66500000D02*
X199500000Y-70500000D01*
X199500000Y-70500000D02*
X205500000Y-70500000D01*
X199500000Y-71500000D02*
X199500000Y-88500000D01*
X199500000Y-88500000D02*
X205500000Y-88500000D01*
X199500000Y-89500000D02*
X199500000Y-96500000D01*
X200000000Y-124500000D02*
X200000000Y-128500000D01*
X200000000Y-128500000D02*
X205500000Y-128500000D01*
X200000000Y-129500000D02*
X200000000Y-134500000D01*
X200000000Y-134500000D02*
X196500000Y-134500000D01*
X205500000Y-49000000D02*
X187000000Y-49000000D01*
X205500000Y-49000000D02*
X205500000Y-55500000D01*
X205500000Y-56500000D02*
X195500000Y-56500000D01*
X205500000Y-56500000D02*
X205500000Y-70500000D01*
X205500000Y-71500000D02*
X199500000Y-71500000D01*
X205500000Y-71500000D02*
X205500000Y-88500000D01*
X205500000Y-89500000D02*
X199500000Y-89500000D01*
X205500000Y-89500000D02*
X205500000Y-104500000D01*
X205500000Y-105500000D02*
X186000000Y-105500000D01*
X205500000Y-105500000D02*
X205500000Y-128500000D01*
X205500000Y-129500000D02*
X200000000Y-129500000D01*
X205500000Y-129500000D02*
X205500000Y-139000000D01*
X210500000Y-44000000D02*
X210500000Y-144000000D01*
X210500000Y-144000000D02*
X110500000Y-144000000D01*
M02*
